<svg width="40" height="40" viewBox="0 0 40 40" fill="none" xmlns="http://www.w3.org/2000/svg">
<path d="M38.0013 2H2.33464L1.66797 2.66667V38H38.0013V2Z" fill="url(#paint0_linear)"/>
<path d="M18.7307 36.2308H4.35577C4.01039 36.2308 3.73047 35.9509 3.73047 35.6055V4.35577C3.73047 4.01039 4.01039 3.73047 4.35577 3.73047H18.7307C19.0756 3.73047 19.3555 4.01039 19.3555 4.35577V35.6055C19.3555 35.9509 19.0756 36.2308 18.7307 36.2308ZM4.98062 34.9806H18.1056V4.98062H4.98062V34.9806Z" fill="#333333"/>
<path d="M4.7786 5.44055C4.60396 5.44055 4.43688 5.3673 4.31855 5.23844L3.89557 4.77862C3.74405 4.61428 3.69233 4.38197 3.75916 4.16888C3.82576 3.95556 4.00109 3.7942 4.21921 3.74568C4.43688 3.6967 4.66416 3.76788 4.81522 3.93245L5.23842 4.3925C5.40642 4.57492 5.4506 4.8395 5.3508 5.06655C5.25147 5.2936 5.02671 5.44055 4.7786 5.44055Z" fill="#333333"/>
<path d="M16.7167 18.4182C16.5418 18.4184 16.3749 18.3452 16.2573 18.2161L15.4615 17.3511C15.228 17.0971 15.2443 16.7018 15.4983 16.4681C15.7524 16.2342 16.1479 16.2509 16.3816 16.505L17.1774 17.3699C17.3452 17.5523 17.3893 17.8172 17.2898 18.0442C17.1898 18.2713 16.9652 18.4182 16.7173 18.4182H16.7167ZM14.3296 15.8229C14.1548 15.8229 13.9882 15.7499 13.8696 15.6213L13.0749 14.7561C12.9163 14.5931 12.8591 14.3569 12.925 14.1395C12.9911 13.922 13.1699 13.7575 13.3919 13.7096C13.6142 13.662 13.8449 13.7387 13.9941 13.9101L14.7897 14.7749C14.9577 14.9575 15.0016 15.2219 14.9023 15.4489C14.8025 15.6762 14.5782 15.8229 14.3303 15.8229H14.3296ZM11.9422 13.2281C11.7675 13.2285 11.6009 13.1551 11.483 13.0262L10.6868 12.161C10.5352 11.9969 10.4826 11.7639 10.5492 11.5506C10.6156 11.337 10.7909 11.1755 11.0093 11.1262C11.2272 11.077 11.4549 11.148 11.6066 11.3126L12.4029 12.1775C12.5707 12.3599 12.6149 12.6245 12.5153 12.8518C12.4153 13.0788 12.191 13.2258 11.9431 13.2258L11.9422 13.2281ZM9.55471 10.6335C9.37985 10.6335 9.21299 10.5602 9.09489 10.4318L8.29976 9.56664C8.06607 9.31258 8.08255 8.91685 8.33706 8.68316C8.59112 8.4497 8.98663 8.46641 9.22055 8.72047L10.0152 9.58564C10.1832 9.76806 10.2272 10.0329 10.1278 10.2599C10.028 10.487 9.80351 10.6335 9.55563 10.6335H9.55471ZM7.16908 8.03542C6.99444 8.03542 6.82759 7.96218 6.70903 7.83378L5.91114 6.9686C5.67746 6.71454 5.69394 6.31904 5.94777 6.08535C6.20182 5.85189 6.5971 5.86814 6.83102 6.1222L7.62661 6.98737C7.79416 7.16979 7.83856 7.43346 7.73922 7.66074C7.64035 7.88756 7.4165 8.03473 7.16908 8.03542Z" fill="#333333"/>
<path d="M18.3086 21.0655C18.0605 21.0655 17.836 20.919 17.7364 20.692C17.6366 20.4647 17.6806 20.2001 17.8486 20.0175L17.8829 19.9802L17.8486 19.9426C17.6149 19.6881 17.6316 19.2928 17.8856 19.0591C18.1402 18.8252 18.5354 18.8419 18.7691 19.0962L19.1923 19.5563C19.4123 19.7955 19.4123 20.1635 19.1923 20.4027L18.7691 20.8623C18.651 20.9918 18.4837 21.0655 18.3086 21.0655Z" fill="#333333"/>
<path d="M6.37134 34.0429C6.12323 34.0429 5.89847 33.8962 5.79868 33.6689C5.69911 33.4419 5.74329 33.1775 5.91129 32.9949L6.70688 32.1297C6.85794 31.9656 7.08545 31.8942 7.30312 31.9429C7.52101 31.9919 7.69657 32.1528 7.76317 32.3661C7.82978 32.5792 7.77805 32.8118 7.62653 32.9761L6.83048 33.8387C6.71306 33.9685 6.5462 34.0427 6.37134 34.0429ZM8.75789 31.4478C8.51001 31.4476 8.28571 31.3009 8.18637 31.0739C8.08658 30.8466 8.13075 30.5822 8.29875 30.3996L9.09435 29.5349C9.24381 29.3634 9.47429 29.2867 9.69631 29.3346C9.91855 29.3824 10.0975 29.5468 10.1632 29.7642C10.2294 29.9821 10.1717 30.2181 10.0135 30.381L9.21863 31.246C9.09984 31.3739 8.93276 31.4462 8.75789 31.4453V31.4478ZM11.1454 28.853C10.8973 28.853 10.6727 28.7063 10.5732 28.479C10.4734 28.252 10.5173 27.9872 10.6853 27.8047L11.4809 26.9373C11.7148 26.6832 12.1101 26.6665 12.3642 26.9004C12.6182 27.1341 12.6349 27.5294 12.401 27.7835L11.6061 28.6479C11.4878 28.7773 11.3205 28.8505 11.1454 28.8498V28.853ZM13.5331 26.2586C13.2849 26.2586 13.0602 26.1119 12.9609 25.8847C12.8608 25.6576 12.905 25.393 13.073 25.2104L13.8679 24.3454C14.1016 24.0911 14.4971 24.0747 14.7514 24.3083C15.0055 24.542 15.0224 24.9375 14.7887 25.1918L13.9936 26.0536C13.8755 26.1822 13.7084 26.2554 13.5335 26.2554L13.5331 26.2586ZM15.9187 23.6606C15.6708 23.6604 15.4465 23.5134 15.3467 23.2864C15.2474 23.0591 15.2913 22.7947 15.4593 22.6123L16.2549 21.7474C16.406 21.5828 16.6335 21.5116 16.8514 21.5606C17.0693 21.6091 17.2446 21.7705 17.3112 21.9836C17.3783 22.1965 17.3261 22.4292 17.1748 22.5938L16.3794 23.4585C16.2606 23.5874 16.0936 23.6606 15.9187 23.6606Z" fill="#333333"/>
<path d="M4.35561 36.2305C4.1075 36.2305 3.88297 36.0835 3.78295 35.8565C3.68362 35.6292 3.72756 35.3648 3.89556 35.1822L4.31853 34.7224C4.55428 34.4786 4.94109 34.4672 5.19057 34.6965C5.44006 34.9261 5.46157 35.3126 5.23841 35.5676L4.81521 36.0277C4.6971 36.1568 4.53048 36.23 4.35561 36.2305Z" fill="#333333"/>
<path d="M37.4805 38.7305H2.48039C1.79008 38.7305 1.23047 38.1709 1.23047 37.4805V2.48039C1.23047 1.79008 1.79008 1.23047 2.48039 1.23047H37.4805C38.1709 1.23047 38.7305 1.79008 38.7305 2.48039V37.4805C38.7305 38.1709 38.1709 38.7305 37.4805 38.7305ZM2.48039 2.48039V37.4805H37.4805V2.48039H2.48039ZM35.6053 36.2306H21.2304C20.8855 36.2306 20.6055 35.9507 20.6055 35.6053V4.35562C20.6055 4.01024 20.8855 3.73032 21.2304 3.73032H35.6053C35.9507 3.73032 36.2306 4.01024 36.2306 4.35562V35.6053C36.2306 35.9507 35.9507 36.2306 35.6053 36.2306ZM21.8555 34.9805H34.9805V4.98047H21.8555V34.9805ZM18.7305 36.2306H4.35562C4.01024 36.2306 3.73032 35.9507 3.73032 35.6053V4.35562C3.73032 4.01024 4.01024 3.73032 4.35562 3.73032H18.7305C19.0755 3.73032 19.3554 4.01024 19.3554 4.35562V35.6053C19.3554 35.9507 19.0755 36.2306 18.7305 36.2306ZM4.98047 34.9805H18.1055V4.98047H4.98047V34.9805Z" fill="#333333"/>
<path d="M35.6052 36.2308H21.2303C20.8854 36.2308 20.6055 35.9509 20.6055 35.6055V4.35577C20.6055 4.01039 20.8854 3.73047 21.2303 3.73047H35.6052C35.9506 3.73047 36.2305 4.01039 36.2305 4.35577V35.6055C36.2305 35.9509 35.9506 36.2308 35.6052 36.2308ZM21.8554 34.9806H34.9804V4.98062H21.8554V34.9806Z" fill="#333333"/>
<path d="M35.1836 5.44078C34.9354 5.44078 34.7107 5.29384 34.6113 5.06678C34.5116 4.83973 34.5557 4.57515 34.7237 4.39273L35.1469 3.93267C35.3804 3.67839 35.7759 3.66168 36.03 3.89537C36.2845 4.12928 36.301 4.52456 36.0673 4.77885L35.6441 5.23868C35.5255 5.36776 35.3584 5.44101 35.1836 5.44078Z" fill="#333333"/>
<path d="M23.2461 18.4182C22.998 18.4182 22.7735 18.2712 22.6739 18.0442C22.5741 17.8171 22.6181 17.5523 22.7861 17.3699L23.5817 16.5049C23.8153 16.2509 24.2109 16.2342 24.4649 16.4681C24.719 16.7018 24.7354 17.097 24.5018 17.3511L23.7062 18.216C23.5881 18.3451 23.421 18.4186 23.2461 18.4182ZM25.6331 15.8229C25.385 15.8229 25.1607 15.6761 25.0611 15.4489C24.9616 15.2218 25.0055 14.9575 25.1735 14.7748L25.9691 13.9101C26.1186 13.7387 26.3491 13.662 26.5715 13.7096C26.7936 13.7574 26.9723 13.922 27.0385 14.1394C27.1041 14.3569 27.0469 14.5931 26.8885 14.756L26.0936 15.6212C25.9746 15.7489 25.8075 15.8215 25.6331 15.8206V15.8229ZM28.0206 13.228C27.7725 13.228 27.5479 13.0815 27.4482 12.8543C27.3486 12.627 27.3925 12.3624 27.5605 12.18L28.3561 11.3125C28.5898 11.0585 28.9853 11.0417 29.2392 11.2757C29.4932 11.5094 29.5097 11.9046 29.276 12.1587L28.4813 13.0229C28.363 13.1525 28.1957 13.2257 28.0206 13.2248V13.228ZM30.408 10.6334C30.1599 10.6334 29.9354 10.4869 29.8356 10.2599C29.7361 10.0328 29.78 9.76802 29.948 9.5856L30.7429 8.72043C30.9766 8.46637 31.3723 8.44966 31.6264 8.68312C31.8807 8.91681 31.8972 9.31254 31.6635 9.5666L30.8688 10.4288C30.7502 10.5572 30.5834 10.6304 30.4087 10.6304L30.408 10.6334ZM32.7937 8.03538C32.5456 8.03515 32.3213 7.88844 32.2217 7.66162C32.1221 7.43434 32.1665 7.16998 32.3341 6.98733L33.1299 6.12216C33.2812 5.95805 33.5083 5.88687 33.7264 5.93539C33.9443 5.98437 34.1194 6.14574 34.1864 6.3586C34.253 6.57168 34.2011 6.80423 34.05 6.96857L33.2542 7.83374C33.1359 7.96237 32.9688 8.03561 32.7937 8.03538Z" fill="#333333"/>
<path d="M21.6537 21.0653C21.4788 21.0653 21.3122 20.992 21.1936 20.8636L20.7704 20.4036C20.5505 20.1644 20.5505 19.7963 20.7704 19.5572L21.1936 19.0971C21.3449 18.9325 21.5722 18.8614 21.7901 18.9101C22.0082 18.9591 22.1838 19.12 22.2506 19.3331C22.3175 19.5464 22.2653 19.7789 22.1142 19.9435L22.0799 19.9808L22.1142 20.0184C22.2822 20.201 22.3264 20.4656 22.2268 20.6926C22.127 20.9199 21.9023 21.0666 21.6542 21.0666L21.6537 21.0653Z" fill="#333333"/>
<path d="M33.589 34.0429C33.4145 34.0431 33.2477 33.9699 33.1298 33.841L32.3342 32.9761C32.1005 32.722 32.117 32.3265 32.3711 32.0928C32.6251 31.8591 33.0206 31.8756 33.2541 32.1297L34.0497 32.9949C34.2177 33.1775 34.2616 33.4419 34.1621 33.6689C34.0625 33.8962 33.838 34.0429 33.5899 34.0429H33.589ZM31.2024 31.4478C31.0275 31.4478 30.8607 31.3746 30.7424 31.246L29.9472 30.381C29.7891 30.2181 29.7316 29.9821 29.7978 29.7642C29.8634 29.5468 30.0422 29.3824 30.2647 29.3346C30.4867 29.2867 30.7172 29.3634 30.8669 29.5349L31.6622 30.3996C31.8302 30.5822 31.8742 30.8466 31.7748 31.0739C31.6753 31.3009 31.4507 31.4476 31.2031 31.4478H31.2024ZM28.8149 28.853C28.6401 28.8532 28.4732 28.78 28.3553 28.6509L27.5593 27.7862C27.3249 27.5321 27.3409 27.1362 27.595 26.9018C27.8491 26.6672 28.2446 26.6832 28.4794 26.9373L29.2754 27.8022C29.4434 27.9849 29.4874 28.2495 29.3876 28.4765C29.288 28.7036 29.0635 28.8505 28.8154 28.8505L28.8149 28.853ZM26.4272 26.2586C26.2526 26.2586 26.0858 26.1854 25.9672 26.0568L25.1723 25.1918C24.9386 24.9375 24.9553 24.542 25.2094 24.3083C25.4637 24.0747 25.8592 24.0911 26.0929 24.3454L26.888 25.2104C27.056 25.393 27.0999 25.6576 27.0001 25.8847C26.9006 26.1119 26.676 26.2586 26.4279 26.2586H26.4272ZM24.0416 23.6606C23.8667 23.6606 23.6999 23.5874 23.5818 23.4585L22.7862 22.5938C22.6347 22.4292 22.583 22.1965 22.6498 21.9836C22.7164 21.7705 22.8917 21.6091 23.1098 21.5606C23.3275 21.5116 23.5548 21.5828 23.7058 21.7474L24.5017 22.6123C24.6694 22.7947 24.7136 23.0591 24.614 23.2864C24.5145 23.5134 24.2902 23.6604 24.0423 23.6606H24.0416Z" fill="#333333"/>
<path d="M35.6064 36.2308C35.4315 36.2308 35.2649 36.1576 35.1468 36.0287L34.7236 35.5687C34.4899 35.3146 34.5064 34.9189 34.7607 34.6854C35.0147 34.4517 35.4105 34.4684 35.6439 34.7227L36.0671 35.1825C36.2354 35.3652 36.2791 35.6298 36.1793 35.857C36.0793 36.0843 35.8547 36.231 35.6064 36.2308Z" fill="#333333"/>
<defs>
<linearGradient id="paint0_linear" x1="18.3686" y1="-16.3146" x2="18.3686" y2="62.8853" gradientUnits="userSpaceOnUse">
<stop stop-color="#FFDF00"/>
<stop offset="1" stop-color="#FF8E00"/>
</linearGradient>
</defs>
</svg>
