<svg width="40" height="40" viewBox="0 0 40 40" fill="none" xmlns="http://www.w3.org/2000/svg">
<path d="M37.3346 0.666504H2.66797V39.3332H37.3346V0.666504Z" fill="url(#paint0_linear)"/>
<path d="M37.0661 3.19969C36.6243 3.19969 36.2661 3.55773 36.2661 3.99969V38.4H20.7994V1.6H37.0661C37.5079 1.6 37.8661 1.24195 37.8661 0.8C37.8661 0.358047 37.508 0 37.0661 0H2.93281C2.49102 0 2.13281 0.358047 2.13281 0.8V30.6666C2.13281 31.1086 2.49102 31.4666 2.93281 31.4666C3.37461 31.4666 3.73281 31.1086 3.73281 30.6666V1.6H19.1994V38.4H3.73281V33.8669C3.73281 33.4249 3.37461 33.0669 2.93281 33.0669C2.49102 33.0669 2.13281 33.4249 2.13281 33.8669V39.2C2.13281 39.642 2.49102 40 2.93281 40H37.0662C37.508 40 37.8662 39.642 37.8662 39.2V3.99969C37.8661 3.55773 37.508 3.19969 37.0661 3.19969Z" fill="#333333"/>
<path d="M13.033 15.1677L5.56635 22.6344C5.25393 22.9469 5.25393 23.4533 5.56635 23.7658C5.72252 23.922 5.92729 24.0001 6.13197 24.0001C6.33666 24.0001 6.5415 23.9221 6.6976 23.7659L14.1642 16.2993C14.4767 15.9868 14.4767 15.4803 14.1642 15.1679C13.852 14.8555 13.3453 14.8555 13.033 15.1677Z" fill="#333333"/>
<path d="M8.76558 26.9656C8.92175 27.1218 9.12651 27.1998 9.3312 27.1998C9.53589 27.1998 9.74073 27.1218 9.89683 26.9656L17.3635 19.499C17.6759 19.1865 17.6759 18.68 17.3635 18.3676C17.051 18.0552 16.5445 18.0552 16.2321 18.3676L8.7655 25.8342C8.45315 26.1466 8.45315 26.653 8.76558 26.9656Z" fill="#333333"/>
<path d="M31.2307 15.1674C30.9183 14.855 30.4117 14.855 30.0994 15.1674L22.6328 22.634C22.3203 22.9465 22.3203 23.453 22.6328 23.7654C22.7889 23.9216 22.9937 23.9996 23.1984 23.9996C23.4031 23.9996 23.6079 23.9216 23.764 23.7654L31.2307 16.2988C31.5432 15.9863 31.5431 15.4799 31.2307 15.1674Z" fill="#333333"/>
<path d="M26.3976 27.1998C26.6023 27.1998 26.8071 27.1218 26.9632 26.9656L34.4299 19.499C34.7423 19.1865 34.7423 18.68 34.4299 18.3676C34.1174 18.0552 33.6109 18.0552 33.2985 18.3676L25.832 25.8342C25.5196 26.1467 25.5196 26.6532 25.832 26.9656C25.9881 27.1218 26.1929 27.1998 26.3976 27.1998Z" fill="#333333"/>
<defs>
<linearGradient id="paint0_linear" x1="18.6025" y1="-19.0048" x2="18.6025" y2="66.0619" gradientUnits="userSpaceOnUse">
<stop stop-color="#FFDF00"/>
<stop offset="1" stop-color="#FF8E00"/>
</linearGradient>
</defs>
</svg>
