<svg width="40" height="40" viewBox="0 0 40 40" fill="none" xmlns="http://www.w3.org/2000/svg">
<path d="M38.0508 37.0641L2.05078 37.3975V34.7308L3.38411 34.3975V5.73079H2.05078V3.39746H38.0508V5.73079H36.7175V34.3975L38.0508 34.7308V37.0641Z" fill="url(#paint0_linear)"/>
<path d="M36.9061 35.1665H3.15633C2.81117 35.1665 2.53125 34.8868 2.53125 34.5414V5.79158C2.53125 5.4462 2.81117 5.1665 3.15633 5.1665H36.9061C37.2515 5.1665 37.5314 5.4462 37.5314 5.79158V34.5414C37.5314 34.8868 37.2515 35.1665 36.9061 35.1665ZM3.78117 33.9166H36.2813V6.41643H3.78117V33.9166Z" fill="#333333"/>
<path d="M37.5304 6.4165H2.58195C1.89165 6.4165 1.33203 5.85689 1.33203 5.16658V3.91666C1.33203 3.22612 1.89165 2.6665 2.58195 2.6665H37.5304C38.2207 2.6665 38.7803 3.22612 38.7803 3.91666V5.16658C38.7803 5.85689 38.2207 6.4165 37.5304 6.4165ZM2.58195 3.91666V5.16658H37.5304V3.91666H2.58195Z" fill="#333333"/>
<path d="M37.5304 37.8135H2.58195C1.89165 37.8135 1.33203 37.2539 1.33203 36.5636V35.3136C1.33203 34.6231 1.89165 34.0635 2.58195 34.0635H37.5304C38.2207 34.0635 38.7803 34.6231 38.7803 35.3136V36.5636C38.7803 37.2539 38.2207 37.8135 37.5304 37.8135ZM2.58195 35.3136V36.5636H37.5304V35.3136H2.58195Z" fill="#333333"/>
<path d="M5.6564 35.1665H3.15633C2.81117 35.1665 2.53125 34.8868 2.53125 34.5414V5.79158C2.53125 5.4462 2.81117 5.1665 3.15633 5.1665H5.6564C6.00133 5.1665 6.28125 5.4462 6.28125 5.79158V34.5414C6.28125 34.8868 6.00133 35.1665 5.6564 35.1665ZM3.78117 33.9166H5.03133V6.41643H3.78117V33.9166Z" fill="#333333"/>
<path d="M36.9059 35.1665H34.4061C34.0609 35.1665 33.7812 34.8868 33.7812 34.5414V5.79158C33.7812 5.4462 34.0609 5.1665 34.4061 5.1665H36.9059C37.2513 5.1665 37.5312 5.4462 37.5312 5.79158V34.5414C37.5312 34.8868 37.2513 35.1665 36.9059 35.1665ZM35.0312 33.9166H36.2811V6.41643H35.0312V33.9166Z" fill="#333333"/>
<path d="M34.4062 10.1664H5.65633C5.31094 10.1664 5.03125 9.8865 5.03125 9.54158C5.03125 9.1962 5.31094 8.9165 5.65633 8.9165H34.4062C34.7516 8.9165 35.0313 9.1962 35.0313 9.54158C35.0313 9.8865 34.7516 10.1664 34.4062 10.1664Z" fill="#333333"/>
<path d="M34.4062 31.4165H5.65633C5.31094 31.4165 5.03125 31.1368 5.03125 30.7914C5.03125 30.4464 5.31094 30.1665 5.65633 30.1665H34.4062C34.7516 30.1665 35.0313 30.4464 35.0313 30.7914C35.0313 31.1368 34.7516 31.4165 34.4062 31.4165Z" fill="#333333"/>
<path d="M9.40656 35.1665C9.06117 35.1665 8.78125 34.8868 8.78125 34.5414V5.79158C8.78125 5.4462 9.06117 5.1665 9.40656 5.1665C9.75148 5.1665 10.0314 5.4462 10.0314 5.79158V34.5414C10.0314 34.8868 9.75148 35.1665 9.40656 35.1665Z" fill="#333333"/>
<path d="M30.6561 35.1665C30.3112 35.1665 30.0312 34.8868 30.0312 34.5414V5.79158C30.0312 5.4462 30.3112 5.1665 30.6561 5.1665C31.0015 5.1665 31.2812 5.4462 31.2812 5.79158V34.5414C31.2812 34.8868 31.0015 35.1665 30.6561 35.1665Z" fill="#333333"/>
<path d="M11.9061 13.9169C11.6534 13.9166 11.4255 13.7644 11.3289 13.531C11.2321 13.2975 11.2856 13.0286 11.4644 12.8501L12.0892 12.2247C12.3344 11.9879 12.7244 11.9913 12.9654 12.2325C13.2064 12.4735 13.2098 12.8633 12.9729 13.1087L12.3481 13.7338C12.2309 13.8507 12.0718 13.9169 11.9061 13.9169Z" fill="#333333"/>
<path d="M11.9061 17.6668C11.6534 17.6668 11.4255 17.5141 11.3289 17.2806C11.2321 17.0472 11.2856 16.7787 11.4644 16.5997L16.4643 11.5998C16.7094 11.3629 17.0994 11.3663 17.3405 11.6073C17.5815 11.8486 17.5849 12.2381 17.348 12.4837L12.3481 17.4837C12.2309 17.6008 12.0718 17.6668 11.9061 17.6668Z" fill="#333333"/>
<defs>
<linearGradient id="paint0_linear" x1="18.5982" y1="-13.8997" x2="18.5982" y2="60.9003" gradientUnits="userSpaceOnUse">
<stop stop-color="#FFDF00"/>
<stop offset="1" stop-color="#FF8E00"/>
</linearGradient>
</defs>
</svg>
