<svg width="40" height="40" viewBox="0 0 40 40" fill="none" xmlns="http://www.w3.org/2000/svg">
<path d="M7.0013 8.33317V5.99984L3.66797 5.6665L1.66797 5.99984L0.667969 7.6665V29.9998L1.0013 32.6665L3.0013 34.3332L39.3346 33.9998V8.33317H14.668L12.0013 5.99984V8.33317H7.0013Z" fill="white"/>
<path d="M40 8.33074C40 8.00694 39.7375 7.7448 39.4141 7.7448H28.819C28.4952 7.7448 28.233 8.00694 28.233 8.33074C28.233 8.65453 28.4952 8.91667 28.819 8.91667H38.8281V33.6304H3.17474C2.07031 33.6304 1.17218 32.732 1.17218 31.6279C1.17218 31.6269 1.17188 31.6257 1.17188 31.6248C1.1734 30.5219 2.07123 29.625 3.17444 29.625H4.46442C4.46594 29.625 4.46747 29.6253 4.46899 29.6253C4.47052 29.6253 4.47205 29.625 4.47357 29.625H7.0575C7.21283 29.625 7.36176 29.5633 7.47162 29.4535C7.58148 29.3436 7.64343 29.1947 7.64343 29.039V8.91667H11.6486V29.039C11.6486 29.3628 11.9107 29.625 12.2345 29.625H35.5313C35.7681 29.625 35.9821 29.4822 36.0727 29.2634C36.1633 29.0442 36.1133 28.7925 35.9457 28.6246L16.2375 8.91667H26.4713C26.795 8.91667 27.0572 8.65453 27.0572 8.33074C27.0572 8.00694 26.795 7.7448 26.4713 7.7448H15.0656L12.6486 5.32781C12.4811 5.16026 12.229 5.11022 12.0102 5.20085C11.7911 5.29149 11.6486 5.50542 11.6486 5.74223V7.7448H7.64343V5.74223C7.64343 5.41875 7.38098 5.1563 7.0575 5.1563H3.17444C1.42426 5.1563 0 6.58055 0 8.33074V31.6275C0 31.6306 0.000305176 31.6333 0.000610352 31.6364C0.00518798 33.3829 1.427 34.8023 3.17474 34.8023H39.4141C39.5694 34.8023 39.7186 34.7406 39.8285 34.6308C39.9384 34.5209 40 34.3717 40 34.2164V8.33074ZM34.1165 28.4531H29.6457V27.7451C29.6457 27.4213 29.3832 27.1592 29.0598 27.1592C28.736 27.1592 28.4738 27.4213 28.4738 27.7451V28.4531H27.0572V27.7451C27.0572 27.4213 26.795 27.1592 26.4713 27.1592C26.1478 27.1592 25.8853 27.4213 25.8853 27.7451V28.4531H24.4687V27.7451C24.4687 27.4213 24.2065 27.1592 23.8828 27.1592C23.5593 27.1592 23.2968 27.4213 23.2968 27.7451V28.4531H21.8805V27.7451C21.8805 27.4213 21.618 27.1592 21.2946 27.1592C20.9708 27.1592 20.7086 27.4213 20.7086 27.7451V28.4531H19.292V27.7451C19.292 27.4213 19.0295 27.1592 18.7061 27.1592C18.3823 27.1592 18.1201 27.4213 18.1201 27.7451V28.4531H16.7035V27.7451C16.7035 27.4213 16.4413 27.1592 16.1176 27.1592C15.7938 27.1592 15.5316 27.4213 15.5316 27.7451V28.4531H12.8204V25.7419H13.5287C13.8522 25.7419 14.1147 25.4795 14.1147 25.156C14.1147 24.8322 13.8522 24.5701 13.5287 24.5701H12.8204V23.1534H13.5287C13.8522 23.1534 14.1147 22.891 14.1147 22.5675C14.1147 22.244 13.8522 21.9816 13.5287 21.9816H12.8204V20.5649H13.5287C13.8522 20.5649 14.1147 20.3028 14.1147 19.979C14.1147 19.6552 13.8522 19.3931 13.5287 19.3931H12.8204V17.9764H13.5287C13.8522 17.9764 14.1147 17.7143 14.1147 17.3905C14.1147 17.067 13.8522 16.8046 13.5287 16.8046H12.8204V15.3882H13.5287C13.8522 15.3882 14.1147 15.1258 14.1147 14.8023C14.1147 14.4785 13.8522 14.2164 13.5287 14.2164H12.8204V12.7997H13.5287C13.8522 12.7997 14.1147 12.5376 14.1147 12.2138C14.1147 11.89 13.8522 11.6279 13.5287 11.6279H12.8204V8.33226C12.8204 8.33165 12.8204 8.33135 12.8204 8.33074C12.8204 8.33012 12.8204 8.32982 12.8204 8.32921V7.15703L34.1165 28.4531ZM1.17188 8.33074C1.17188 7.22661 2.07031 6.32817 3.17444 6.32817H3.88306V8.33104C3.88306 8.65453 4.1452 8.91698 4.46899 8.91698C4.79248 8.91698 5.05493 8.65453 5.05493 8.33104V6.32817H6.47156V8.32921C6.47156 8.32982 6.47125 8.33043 6.47125 8.33074C6.47125 8.33135 6.47156 8.33196 6.47156 8.33226V28.4534L5.05493 28.4531V26.4509C5.05493 26.1271 4.79248 25.8649 4.46899 25.8649C4.1452 25.8649 3.88306 26.1271 3.88306 26.4509V28.4531H3.17444C2.41577 28.4531 1.71844 28.7204 1.17188 29.166V8.33074Z" fill="#333333"/>
<path d="M16.1172 25.7423H26.1572C26.3943 25.7423 26.6079 25.5998 26.6985 25.3807C26.7892 25.1616 26.7391 24.9098 26.5716 24.7419L16.5316 14.702C16.3638 14.5344 16.112 14.4841 15.8929 14.575C15.6741 14.6656 15.5312 14.8793 15.5312 15.1164V25.1564C15.5312 25.4802 15.7934 25.7423 16.1172 25.7423ZM16.7031 16.5309L24.7427 24.5704H16.7031V16.5309Z" fill="#333333"/>
<path d="M32.9431 10.3335C32.6193 10.3335 32.3571 10.5956 32.3571 10.9194V11.6277H29.0469C28.7231 11.6277 28.4609 11.8899 28.4609 12.2137C28.4609 12.5375 28.7231 12.7996 29.0469 12.7996H32.3571V16.0964C32.3571 16.4202 32.6193 16.6824 32.9431 16.6824C33.2665 16.6824 33.529 16.4202 33.529 16.0964V12.7996H34.2373C34.5608 12.7996 34.8232 12.5375 34.8232 12.2137C34.8232 11.8899 34.5608 11.6277 34.2373 11.6277H33.529V10.9194C33.529 10.5959 33.2665 10.3335 32.9431 10.3335Z" fill="#333333"/>
</svg>
