<svg width="40" height="40" viewBox="0 0 40 40" fill="none" xmlns="http://www.w3.org/2000/svg">
<path d="M1.33203 0.666504V39.3332H38.6654V0.666504H1.33203Z" fill="url(#paint0_linear)"/>
<path d="M6 5.3335V26.6668H18V5.3335H6ZM11.3333 6.66683V12.0002H7.33333V6.66683H11.3333ZM16.6667 18.6668H12.6667V13.3335H16.6667V18.6668ZM11.3333 18.6668H7.33333V13.3335H11.3333V18.6668ZM7.33333 20.0002H11.3333V25.3335H7.33333V20.0002ZM12.6667 25.3335V20.0002H16.6667V25.3335H12.6667ZM16.6667 12.0002H12.6667V6.66683H16.6667V12.0002Z" fill="#333333"/>
<path d="M6 37.3333H18V28H6V37.3333ZM7.33333 29.3333H16.6667V36H7.33333V29.3333Z" fill="#333333"/>
<path d="M22 5.3335V26.6668H34V5.3335H22ZM27.3333 6.66683V12.0002H23.3333V6.66683H27.3333ZM32.6667 18.6668H28.6667V13.3335H32.6667V18.6668ZM27.3333 18.6668H23.3333V13.3335H27.3333V18.6668ZM23.3333 20.0002H27.3333V25.3335H23.3333V20.0002ZM28.6667 25.3335V20.0002H32.6667V25.3335H28.6667ZM32.6667 12.0002H28.6667V6.66683H32.6667V12.0002Z" fill="#333333"/>
<path d="M22 37.3333H34V28H22V37.3333ZM23.3333 29.3333H32.6667V36H23.3333V29.3333Z" fill="#333333"/>
<path d="M0.667969 0V40H3.33464H19.3346H20.668H36.668H39.3346V0H0.667969ZM4.66797 38.6667V4H19.3346V38.6667H4.66797ZM20.668 38.6667V4H35.3346V38.6667H20.668ZM38.0013 38.6667H36.668V2.66667H20.668H19.3346H3.33464V38.6667H2.0013V1.33333H38.0013V38.6667Z" fill="#333333"/>
<path d="M25.5288 31.5285L24.1955 32.8618C23.9348 33.1225 23.9348 33.5438 24.1955 33.8045C24.3255 33.9345 24.4962 33.9998 24.6668 33.9998C24.8375 33.9998 25.0082 33.9345 25.1382 33.8045L26.4715 32.4712C26.7322 32.2105 26.7322 31.7892 26.4715 31.5285C26.2108 31.2678 25.7895 31.2678 25.5288 31.5285Z" fill="#333333"/>
<path d="M27.3346 31.3333C27.7028 31.3333 28.0013 31.0349 28.0013 30.6667C28.0013 30.2985 27.7028 30 27.3346 30C26.9664 30 26.668 30.2985 26.668 30.6667C26.668 31.0349 26.9664 31.3333 27.3346 31.3333Z" fill="#333333"/>
<path d="M24.6667 31.3333C25.0349 31.3333 25.3333 31.0349 25.3333 30.6667C25.3333 30.2985 25.0349 30 24.6667 30C24.2985 30 24 30.2985 24 30.6667C24 31.0349 24.2985 31.3333 24.6667 31.3333Z" fill="#333333"/>
<path d="M9.52883 31.5285L8.1955 32.8618C7.93483 33.1225 7.93483 33.5438 8.1955 33.8045C8.3255 33.9345 8.49617 33.9998 8.66683 33.9998C8.8375 33.9998 9.00817 33.9345 9.13817 33.8045L10.4715 32.4712C10.7322 32.2105 10.7322 31.7892 10.4715 31.5285C10.2108 31.2678 9.7895 31.2678 9.52883 31.5285Z" fill="#333333"/>
<path d="M11.3346 31.3333C11.7028 31.3333 12.0013 31.0349 12.0013 30.6667C12.0013 30.2985 11.7028 30 11.3346 30C10.9664 30 10.668 30.2985 10.668 30.6667C10.668 31.0349 10.9664 31.3333 11.3346 31.3333Z" fill="#333333"/>
<path d="M8.66667 31.3333C9.03486 31.3333 9.33333 31.0349 9.33333 30.6667C9.33333 30.2985 9.03486 30 8.66667 30C8.29848 30 8 30.2985 8 30.6667C8 31.0349 8.29848 31.3333 8.66667 31.3333Z" fill="#333333"/>
<defs>
<linearGradient id="paint0_linear" x1="18.4923" y1="-19.0048" x2="18.4923" y2="66.0619" gradientUnits="userSpaceOnUse">
<stop stop-color="#FFDF00"/>
<stop offset="1" stop-color="#FF8E00"/>
</linearGradient>
</defs>
</svg>
