<svg width="40" height="40" viewBox="0 0 40 40" fill="none" xmlns="http://www.w3.org/2000/svg">
<path d="M19.6654 9L16.332 10L13.332 11.6667L11.332 14.3333L10.332 17.6667L10.6654 21.3333L12.332 25L14.332 26.6667L14.9987 29.3333L15.6654 31.6667H24.6654L25.332 27.6667L26.9987 25.6667L28.6654 23.3333L29.6654 20.3333L28.9987 15L26.6654 11.6667L22.9987 9.66667L19.6654 9Z" fill="white"/>
<path d="M24.3307 33.6667H15.6641L14.6641 35.0001L15.6641 35.6667H23.9974L24.9974 34.6667L24.3307 33.6667Z" fill="white"/>
<path d="M19.3307 37.3334L16.6641 37.6668L15.9974 38.0001L16.3307 39.3334H17.6641H21.6641L23.3307 39.0001L23.6641 38.0001L22.3307 37.6668L19.3307 37.3334Z" fill="white"/>
<path d="M20.0329 8.62158C14.3714 8.62158 9.74609 13.2469 9.74609 18.9084C9.74609 21.8686 11.0412 24.7178 13.2244 26.6419C14.8525 28.2701 14.7045 31.7483 14.6675 31.7853C14.6675 31.9703 14.7045 32.1184 14.8525 32.2664C14.9635 32.3774 15.1485 32.4514 15.2965 32.4514H24.7322C24.9172 32.4514 25.0652 32.3774 25.1762 32.2664C25.2873 32.1554 25.3613 31.9703 25.3613 31.7853C25.3613 31.7483 25.1763 28.2701 26.8044 26.6419C26.8414 26.6049 26.8784 26.5679 26.9154 26.5309C29.0615 24.5698 30.3196 21.7946 30.3196 18.9084C30.3196 13.2469 25.6943 8.62158 20.0329 8.62158ZM25.9533 25.6799C25.9163 25.7169 25.8423 25.7909 25.8423 25.8279C24.3992 27.382 24.1402 29.9352 24.1032 31.1563H15.9256C15.8886 29.9352 15.6295 27.271 14.0754 25.6799C12.1143 23.9777 10.9672 21.4986 10.9672 18.8714C10.9672 13.876 15.0005 9.84267 19.9959 9.84267C24.9912 9.84267 29.0245 13.876 29.0245 18.8714C29.0245 21.4986 27.9145 23.9777 25.9533 25.6799Z" fill="#333333"/>
<path d="M19.9962 11.2488C19.6632 11.2488 19.3672 11.5448 19.3672 11.8778C19.3672 12.2109 19.6632 12.5069 19.9962 12.5069C23.7335 12.5069 26.7307 15.5411 26.7307 19.2414C26.7307 19.5744 27.0268 19.8704 27.3598 19.8704C27.6928 19.8704 27.9888 19.5744 27.9888 19.2414C28.0258 14.8381 24.4366 11.2488 19.9962 11.2488Z" fill="#333333"/>
<path d="M24.1008 33.1545H15.8861C15.0351 33.1545 14.332 33.8576 14.332 34.7087C14.332 35.5597 15.0351 36.2628 15.8861 36.2628H24.0638C24.9518 36.2258 25.6549 35.5597 25.6549 34.7087C25.6549 33.8576 24.9518 33.1545 24.1008 33.1545ZM24.1008 34.9677H15.8861C15.7381 34.9677 15.5901 34.8567 15.5901 34.6717C15.5901 34.4866 15.7011 34.3756 15.8861 34.3756H24.0638C24.2118 34.3756 24.3598 34.4866 24.3598 34.6717C24.3598 34.8567 24.2488 34.9677 24.1008 34.9677Z" fill="#333333"/>
<path d="M22.8812 36.8918H17.1088C16.2577 36.8918 15.5547 37.5949 15.5547 38.446C15.5547 39.297 16.2577 40.0001 17.1088 40.0001H22.8812C23.7323 40.0001 24.4354 39.297 24.4354 38.446C24.4354 37.5579 23.7323 36.8918 22.8812 36.8918ZM22.8812 38.705H17.1088C16.9608 38.705 16.8128 38.594 16.8128 38.409C16.8128 38.2239 16.9238 38.1129 17.1088 38.1129H22.8812C23.0293 38.1129 23.1773 38.2239 23.1773 38.409C23.1773 38.594 23.0293 38.705 22.8812 38.705Z" fill="#333333"/>
<path d="M19.9962 5.55042C20.3663 5.55042 20.6253 5.2544 20.6253 4.92137V0.629048C20.6253 0.296022 20.3293 0 19.9962 0C19.6632 0 19.3672 0.296022 19.3672 0.629048V4.92137C19.3672 5.2544 19.6632 5.55042 19.9962 5.55042Z" fill="#333333"/>
<path d="M30.4655 3.18227C30.1695 2.96025 29.7995 3.07126 29.6145 3.33028L27.2463 6.88255C27.0243 7.17857 27.0983 7.5856 27.3943 7.77062C27.5053 7.84462 27.6163 7.88162 27.7273 7.88162C27.9493 7.88162 28.1343 7.77062 28.2454 7.5856L30.6135 4.03334C30.8356 3.77432 30.7616 3.36729 30.4655 3.18227Z" fill="#333333"/>
<path d="M12.4813 7.7336C12.5923 7.7336 12.7033 7.6966 12.8144 7.62259C13.1104 7.43758 13.1844 7.03055 12.9994 6.73453L10.7052 3.14526C10.5202 2.84923 10.1132 2.77523 9.81713 2.96024C9.52111 3.14526 9.4471 3.55229 9.63212 3.84831L11.9263 7.43758C12.0743 7.6596 12.2593 7.7336 12.4813 7.7336Z" fill="#333333"/>
<path d="M8.00559 11.6558L4.26832 9.62069C3.97229 9.47268 3.56526 9.58369 3.41725 9.87971C3.23224 10.1757 3.34325 10.5828 3.67627 10.7308L7.41355 12.7659C7.52456 12.8029 7.59856 12.8399 7.70957 12.8399C7.93159 12.8399 8.15361 12.7289 8.26461 12.5069C8.41262 12.2109 8.30162 11.8039 8.00559 11.6558Z" fill="#333333"/>
<path d="M36.6098 9.87971C36.4618 9.58369 36.0548 9.47268 35.7587 9.62069L31.9845 11.6558C31.6884 11.8039 31.5774 12.2109 31.7254 12.5069C31.8364 12.7289 32.0585 12.8399 32.2805 12.8399C32.3915 12.8399 32.5025 12.8029 32.5765 12.7659L36.3508 10.7308C36.6468 10.5828 36.7578 10.1757 36.6098 9.87971Z" fill="#333333"/>
</svg>
