<svg width="40" height="40" viewBox="0 0 40 40" fill="none" xmlns="http://www.w3.org/2000/svg">
<path d="M27.3346 32.0001C26.668 33.0001 25.668 34.0001 25.0013 34.6667C24.3346 35.3334 22.668 36.3334 22.668 36.3334L19.668 37.3334L14.668 37.0001L10.668 34.3334L8.0013 30.0001L7.66797 25.6667L5.66797 22.0001V17.6667L6.33464 13.6667L8.66797 8.00008L12.0013 1.66675L14.668 4.66675L17.668 8.66675L20.668 14.0001L27.0013 12.0001L34.668 10.6667L33.668 15.3334C33.668 15.3334 32.3346 21.0001 32.0013 22.0001C31.668 23.0001 31.3346 23.6667 31.0013 24.6667L31.0013 24.6668C30.668 25.6668 30.3346 26.6668 30.0013 27.3334L28.668 30.0001C28.3346 30.6667 28.0013 31.0001 27.3346 32.0001Z" fill="white"/>
<path d="M30.1725 27.6485C30.0822 27.6484 29.9935 27.6256 29.9143 27.5824C29.8351 27.5391 29.768 27.4768 29.7191 27.4009C29.6702 27.3251 29.641 27.2383 29.6343 27.1483C29.6276 27.0583 29.6435 26.9681 29.6806 26.8858C29.8903 26.4204 30.0995 25.9231 30.3027 25.4074C30.328 25.3404 30.3663 25.279 30.4155 25.2269C30.4647 25.1748 30.5237 25.133 30.5892 25.1039C30.6547 25.0748 30.7253 25.059 30.7969 25.0575C30.8686 25.056 30.9398 25.0687 31.0065 25.0949C31.0732 25.1211 31.134 25.1603 31.1853 25.2103C31.2367 25.2602 31.2777 25.3199 31.3058 25.3858C31.3339 25.4517 31.3486 25.5225 31.3491 25.5941C31.3496 25.6658 31.3359 25.7368 31.3087 25.8031C31.099 26.3355 30.8827 26.8491 30.6654 27.3301C30.6227 27.425 30.5534 27.5056 30.4659 27.5621C30.3785 27.6185 30.2766 27.6486 30.1725 27.6485Z" fill="#333333"/>
<path d="M18.0137 38.0836C17.7974 38.0836 17.5787 38.077 17.3574 38.0636C14.6984 37.88 12.1954 36.7411 10.3101 34.8568C8.42492 32.9726 7.28463 30.4702 7.09961 27.8112C7.05496 27.1188 7.07995 26.4236 7.1742 25.7361C7.82285 20.8026 11.7391 17.9523 13.3904 16.9534C13.6196 16.8193 13.7796 16.7339 13.8488 16.6983C15.9391 15.3048 18.2043 14.1936 20.5856 13.3934C25.0874 11.8641 29.7253 10.769 34.4358 10.1231C34.5174 10.1125 34.6004 10.1209 34.6782 10.1476C34.756 10.1743 34.8266 10.2187 34.8845 10.2772C34.9426 10.3353 34.9866 10.406 35.0133 10.4837C35.04 10.5614 35.0487 10.6442 35.0385 10.7258C34.5095 14.561 33.6937 18.351 32.598 22.0642C32.5785 22.1333 32.5454 22.1979 32.5006 22.254C32.4559 22.3102 32.4004 22.3569 32.3374 22.3914C32.2744 22.4259 32.2051 22.4475 32.1337 22.4549C32.0622 22.4623 31.99 22.4554 31.9213 22.4346C31.8525 22.4138 31.7886 22.3796 31.7333 22.3338C31.6779 22.288 31.6323 22.2317 31.5989 22.168C31.5656 22.1044 31.5453 22.0348 31.5392 21.9632C31.5331 21.8916 31.5413 21.8196 31.5634 21.7512C32.5741 18.3233 33.3443 14.8291 33.8683 11.2939C29.4756 11.9356 25.1512 12.9791 20.9493 14.4112C18.6476 15.182 16.4587 16.2556 14.4401 17.6037C14.4184 17.6194 14.3955 17.6333 14.3715 17.6453C14.3628 17.6491 14.2034 17.7301 13.9423 17.8826C12.7628 18.5939 8.84771 21.2837 8.24285 25.8826C8.15864 26.5001 8.13636 27.1244 8.17636 27.7464C8.28227 29.6155 8.92077 31.4153 10.0165 32.9333C11.1122 34.4513 12.6193 35.6241 14.36 36.3132C16.1007 37.0024 18.0022 37.1791 19.84 36.8226C21.6779 36.466 23.3754 35.591 24.732 34.3009C24.7844 34.2509 24.8462 34.2118 24.9139 34.1862C24.9816 34.1605 25.0538 34.1486 25.1261 34.1514C25.1985 34.1541 25.2696 34.1713 25.3351 34.2021C25.4007 34.2328 25.4594 34.2764 25.5078 34.3302C25.5562 34.3841 25.5933 34.4472 25.6169 34.5156C25.6404 34.5841 25.65 34.6566 25.645 34.7288C25.64 34.8011 25.6205 34.8716 25.5877 34.9361C25.555 35.0007 25.5096 35.058 25.4542 35.1047C23.436 36.9967 20.7799 38.0601 18.0137 38.0836Z" fill="#333333"/>
<path d="M27.5518 32.3352C27.4545 32.3351 27.359 32.3087 27.2754 32.2589C27.1918 32.2091 27.1232 32.1376 27.0769 32.052C27.0306 31.9664 27.0082 31.8699 27.0122 31.7726C27.0161 31.6754 27.0463 31.581 27.0994 31.4995C27.2506 31.2728 27.3895 31.0383 27.5156 30.7968C27.5285 30.7714 27.543 30.7469 27.5589 30.7233C27.6843 30.5465 27.8091 30.359 27.9291 30.1714C28.0063 30.0505 28.1282 29.9653 28.2682 29.9344C28.4082 29.9034 28.5548 29.9294 28.6756 30.0065C28.7965 30.0837 28.8817 30.2056 28.9127 30.3456C28.9436 30.4856 28.9176 30.6322 28.8405 30.753C28.7189 30.9433 28.5924 31.1314 28.4654 31.3146C28.4113 31.4168 28.2605 31.7 28.0054 32.0925C27.9559 32.1674 27.8885 32.2289 27.8093 32.2712C27.7301 32.3136 27.6416 32.3356 27.5518 32.3352Z" fill="#333333"/>
<path d="M6.78261 38.919C6.67572 38.9189 6.57124 38.8872 6.48237 38.8278C6.39349 38.7684 6.32423 38.684 6.28333 38.5853C6.24242 38.4865 6.23172 38.3778 6.25257 38.273C6.27342 38.1682 6.32488 38.0719 6.40045 37.9963L24.7983 19.5979C24.8482 19.5463 24.9078 19.5051 24.9737 19.4767C25.0397 19.4484 25.1106 19.4335 25.1824 19.4329C25.2542 19.4323 25.3253 19.4459 25.3918 19.4731C25.4582 19.5003 25.5186 19.5404 25.5693 19.5912C25.6201 19.6419 25.6602 19.7023 25.6874 19.7687C25.7146 19.8351 25.7282 19.9063 25.7276 19.9781C25.727 20.0499 25.7121 20.1208 25.6838 20.1868C25.6554 20.2527 25.6142 20.3123 25.5626 20.3622L7.16478 38.7606C7.06343 38.862 6.92596 38.9189 6.78261 38.919Z" fill="#333333"/>
<path d="M27.817 22.7388H22.9624C22.8191 22.7388 22.6816 22.6818 22.5802 22.5805C22.4788 22.4791 22.4219 22.3416 22.4219 22.1983C22.4219 22.0549 22.4788 21.9174 22.5802 21.816C22.6816 21.7147 22.8191 21.6577 22.9624 21.6577H27.817C27.9604 21.6577 28.0979 21.7147 28.1992 21.816C28.3006 21.9174 28.3575 22.0549 28.3575 22.1983C28.3575 22.3416 28.3006 22.4791 28.1992 22.5805C28.0979 22.6818 27.9604 22.7388 27.817 22.7388Z" fill="#333333"/>
<path d="M21.2905 24.4112C21.1472 24.4112 21.0097 24.3543 20.9083 24.2529C20.8069 24.1515 20.75 24.014 20.75 23.8707V19.0166C20.75 18.8733 20.8069 18.7358 20.9083 18.6344C21.0097 18.533 21.1472 18.4761 21.2905 18.4761C21.4339 18.4761 21.5714 18.533 21.6728 18.6344C21.7741 18.7358 21.8311 18.8733 21.8311 19.0166V23.8707C21.8311 24.014 21.7741 24.1515 21.6728 24.2529C21.5714 24.3543 21.4339 24.4112 21.2905 24.4112Z" fill="#333333"/>
<path d="M23.7172 26.8384H18.8648C18.7214 26.8384 18.5839 26.7815 18.4825 26.6801C18.3812 26.5787 18.3242 26.4412 18.3242 26.2979C18.3242 26.1545 18.3812 26.017 18.4825 25.9156C18.5839 25.8143 18.7214 25.7573 18.8648 25.7573H23.7193C23.8627 25.7573 24.0002 25.8143 24.1016 25.9156C24.2029 26.017 24.2599 26.1545 24.2599 26.2979C24.2599 26.4412 24.2029 26.5787 24.1016 26.6801C24.0002 26.7815 23.8627 26.8384 23.7193 26.8384H23.7172Z" fill="#333333"/>
<path d="M17.189 28.5114C17.0456 28.5114 16.9081 28.4544 16.8068 28.353C16.7054 28.2517 16.6484 28.1142 16.6484 27.9708V23.1162C16.6484 23.0452 16.6624 22.9749 16.6896 22.9094C16.7167 22.8438 16.7566 22.7842 16.8068 22.734C16.857 22.6838 16.9165 22.644 16.9821 22.6168C17.0477 22.5897 17.118 22.5757 17.189 22.5757C17.26 22.5757 17.3303 22.5897 17.3958 22.6168C17.4614 22.644 17.521 22.6838 17.5712 22.734C17.6214 22.7842 17.6612 22.8438 17.6884 22.9094C17.7155 22.9749 17.7295 23.0452 17.7295 23.1162V27.9708C17.7295 28.1142 17.6726 28.2517 17.5712 28.353C17.4698 28.4544 17.3323 28.5114 17.189 28.5114Z" fill="#333333"/>
<path d="M19.6178 30.9378H14.7632C14.6198 30.9378 14.4823 30.8808 14.381 30.7795C14.2796 30.6781 14.2227 30.5406 14.2227 30.3972C14.2227 30.2539 14.2796 30.1164 14.381 30.015C14.4823 29.9136 14.6198 29.8567 14.7632 29.8567H19.6178C19.7611 29.8567 19.8986 29.9136 20 30.015C20.1014 30.1164 20.1583 30.2539 20.1583 30.3972C20.1583 30.5406 20.1014 30.6781 20 30.7795C19.8986 30.8808 19.7611 30.9378 19.6178 30.9378Z" fill="#333333"/>
<path d="M13.0913 32.6107C12.948 32.6107 12.8105 32.5537 12.7091 32.4524C12.6077 32.351 12.5508 32.2135 12.5508 32.0701V27.2161C12.5508 27.0727 12.6077 26.9352 12.7091 26.8339C12.8105 26.7325 12.948 26.6755 13.0913 26.6755C13.2347 26.6755 13.3722 26.7325 13.4735 26.8339C13.5749 26.9352 13.6319 27.0727 13.6319 27.2161V32.0701C13.6319 32.2135 13.5749 32.351 13.4735 32.4524C13.3722 32.5537 13.2347 32.6107 13.0913 32.6107Z" fill="#333333"/>
<path d="M7.7071 26.3497C7.63206 26.3497 7.55783 26.3341 7.48915 26.3038C7.42047 26.2736 7.35884 26.2294 7.30818 26.174C4.14332 22.7145 5.03791 17.9994 5.15143 17.4664C5.6617 10.7308 11.3974 1.7113 11.6417 1.32967C11.6858 1.26085 11.7448 1.20292 11.8145 1.16022C11.8842 1.11753 11.9626 1.09118 12.0439 1.08317C12.1253 1.07516 12.2073 1.08569 12.284 1.11396C12.3607 1.14224 12.4299 1.18753 12.4866 1.24643C12.7379 1.50805 18.6822 7.71562 21.2649 13.6875C21.3219 13.8191 21.3242 13.9679 21.2713 14.1012C21.2185 14.2345 21.1149 14.3414 20.9833 14.3983C20.8517 14.4552 20.7029 14.4575 20.5696 14.4047C20.4363 14.3519 20.3294 14.2483 20.2725 14.1167C18.1822 9.28373 13.6617 4.12427 12.1844 2.50913C10.8941 4.64481 6.62818 12.0767 6.2271 17.5843C6.22538 17.6118 6.22122 17.6391 6.21467 17.6659C6.2044 17.7113 5.20818 22.2745 8.10656 25.4443C8.17735 25.5216 8.2241 25.6179 8.24112 25.7214C8.25813 25.8249 8.24468 25.9311 8.2024 26.0271C8.16011 26.123 8.09082 26.2046 8.00298 26.2619C7.91513 26.3192 7.81251 26.3497 7.70764 26.3497H7.7071Z" fill="#333333"/>
<path d="M13.6681 17.9555C13.5341 17.9554 13.4051 17.9056 13.3058 17.8157C13.2065 17.7258 13.1441 17.6023 13.1308 17.469L12.6043 12.1847C12.5899 12.042 12.6329 11.8994 12.7237 11.7884C12.8144 11.6773 12.9456 11.6069 13.0883 11.5926C13.231 11.5782 13.3736 11.6212 13.4847 11.7119C13.5957 11.8027 13.6662 11.9339 13.6805 12.0766L14.2064 17.3593C14.2139 17.4301 14.2073 17.5017 14.1871 17.5699C14.1668 17.6382 14.1333 17.7018 14.0884 17.757C14.0435 17.8123 13.9881 17.8581 13.9254 17.8919C13.8627 17.9257 13.794 17.9468 13.7232 17.9539C13.7043 17.9544 13.6859 17.9555 13.6681 17.9555Z" fill="#333333"/>
<path d="M13.3915 15.1719C13.2888 15.1718 13.1884 15.1425 13.1018 15.0874C13.0153 15.0323 12.9462 14.9536 12.9026 14.8607C12.8591 14.7678 12.8429 14.6644 12.856 14.5626C12.869 14.4609 12.9107 14.3649 12.9763 14.286L15.4742 11.2795C15.5658 11.1692 15.6974 11.0998 15.8402 11.0865C15.983 11.0733 16.1252 11.1173 16.2355 11.2089C16.3458 11.3006 16.4152 11.4322 16.4285 11.575C16.4417 11.7178 16.3977 11.86 16.306 11.9703L13.8082 14.9768C13.7574 15.038 13.6937 15.0872 13.6216 15.1209C13.5496 15.1546 13.471 15.1721 13.3915 15.1719Z" fill="#333333"/>
<path d="M13.5806 17.0578C13.4568 17.0577 13.3368 17.0152 13.2406 16.9373L10.1963 14.4702C10.1411 14.4255 10.0953 14.3704 10.0615 14.3079C10.0276 14.2455 10.0064 14.177 9.99902 14.1064C9.99164 14.0358 9.99825 13.9644 10.0185 13.8963C10.0387 13.8283 10.0721 13.7648 10.1168 13.7097C10.1615 13.6545 10.2167 13.6087 10.2791 13.5749C10.3415 13.541 10.41 13.5198 10.4806 13.5124C10.5512 13.5051 10.6226 13.5117 10.6907 13.5319C10.7588 13.5521 10.8222 13.5855 10.8773 13.6302L13.9217 16.0973C14.0085 16.1676 14.0714 16.2632 14.1017 16.3708C14.132 16.4784 14.1282 16.5928 14.0908 16.6981C14.0534 16.8035 13.9842 16.8946 13.8928 16.9591C13.8015 17.0235 13.6924 17.058 13.5806 17.0578Z" fill="#333333"/>
</svg>
