<svg width="54" height="62" viewBox="0 0 54 62" fill="none" xmlns="http://www.w3.org/2000/svg">
<path d="M0.134245 43.8849C2.06063 49.7443 3.58571 55.7642 6.79648 61.142C7.11741 61.7039 8.1608 61.8644 8.40159 61.142C10.7293 55.6037 13.1373 50.1456 14.6623 44.3664C14.9031 43.4033 13.6991 42.6809 12.9768 43.4033C11.6122 44.7678 10.1673 46.052 8.64226 47.1758C8.80292 35.2964 11.6852 19.2937 24.7429 10.8964C33.2834 5.40405 39.7082 3.61639 49.7473 1.83796C55.7131 0.781124 52.1705 -0.15992 49.6373 0.0229112C45.141 0.347436 41.6283 0.853009 36.764 2.43397C27.0544 5.58973 20.1406 9.70233 14.8126 16.6327C7.81756 25.7314 6.47542 39.7109 6.63595 46.373C5.1109 45.0084 3.42541 43.8045 1.65956 42.8413C0.856767 42.3597 -0.18669 43.0018 0.134245 43.8849ZM7.35818 49.1823C7.83978 49.3428 8.16079 49.102 8.32146 48.7007C8.32146 48.7007 8.32146 48.7007 8.40159 48.6204C9.68585 48.2191 10.8096 47.577 11.853 46.8546C10.649 50.7876 9.04374 54.6404 7.51869 58.4129C5.43177 54.4798 4.22782 50.2257 2.8633 46.0519C4.30822 47.2559 5.67273 48.4599 7.35818 49.1823Z" fill="white"/>
</svg>
