<svg width="40" height="40" viewBox="0 0 40 40" fill="none" xmlns="http://www.w3.org/2000/svg">
<g clip-path="url(#clip0)">
<path d="M26.0013 30.0002V36.6668L27.668 38.3335L32.668 39.0002L37.0013 38.3335L39.3346 37.0002V20.0002L34.0013 18.6668V14.0002H32.3346L32.668 12.0002L30.0013 11.3335L30.668 9.66683L10.668 1.3335L8.0013 6.3335L3.33464 5.3335L1.33464 13.6668L0.667969 14.3335V30.0002H26.0013Z" fill="url(#paint0_linear)"/>
<path d="M33.987 13.3669C33.9866 13.3669 33.9861 13.3669 33.9857 13.3669H0.572699C0.256779 13.3666 0.000334457 13.6224 3.26992e-07 13.9383C3.26992e-07 13.9387 3.26992e-07 13.9392 3.26992e-07 13.9396V29.9779C-0.000333803 30.2938 0.255442 30.5502 0.571362 30.5506C0.57178 30.5506 0.572281 30.5506 0.572699 30.5506H23.2935C23.6098 30.5506 23.8662 30.2941 23.8662 29.9779C23.8662 29.6616 23.6098 29.4052 23.2935 29.4052H1.1454V14.5123H33.413V15.9444C33.4126 16.2603 33.6684 16.5168 33.9843 16.5171C33.9847 16.5171 33.9852 16.5171 33.9857 16.5171C34.3016 16.5175 34.558 16.2617 34.5584 15.9458C34.5584 15.9453 34.5584 15.9448 34.5584 15.9444V13.9396C34.5587 13.6237 34.3029 13.3674 33.987 13.3669Z" fill="black"/>
<path d="M30.1016 10.7079L3.37119 4.69355C3.22284 4.66038 3.06739 4.68728 2.93883 4.76839C2.81044 4.85017 2.71964 4.97939 2.68623 5.12791L1.34971 11.1422C1.28105 11.4511 1.47584 11.7572 1.78475 11.8259C2.09365 11.8945 2.39971 11.6997 2.46838 11.3908L3.67993 5.93718L29.8503 11.8252C29.8917 11.8348 29.9341 11.8396 29.9766 11.8392C30.2929 11.8387 30.5488 11.5818 30.5483 11.2655C30.5478 10.9982 30.3624 10.7668 30.1016 10.7079Z" fill="black"/>
<path d="M26.8549 7.39394L10.8167 0.711343C10.5379 0.595149 10.2167 0.714517 10.0816 0.984661L8.74505 3.6577C8.59411 3.93686 8.69802 4.28561 8.97727 4.43655C9.25644 4.5875 9.60519 4.48358 9.75613 4.20433C9.76206 4.19339 9.76766 4.1822 9.77284 4.17084V4.17217L10.8694 1.97761L26.4125 8.45371C26.7052 8.57584 27.0415 8.43767 27.1636 8.14498C27.2857 7.85245 27.1476 7.51614 26.8549 7.39394Z" fill="black"/>
<path d="M27.2595 16.0398H21.9555C21.6393 16.0398 21.3828 16.2962 21.3828 16.6125C21.3828 16.9287 21.6393 17.1852 21.9555 17.1852H27.2595C27.5757 17.1852 27.8322 16.9287 27.8322 16.6125C27.8322 16.2962 27.5757 16.0398 27.2595 16.0398Z" fill="black"/>
<path d="M16.6112 16.0779C13.3633 16.0779 10.7305 18.7107 10.7305 21.9586C10.7338 25.205 13.3647 27.8359 16.6112 27.8392C19.859 27.8392 22.4918 25.2064 22.4918 21.9586C22.4918 18.7107 19.859 16.0779 16.6112 16.0779ZM16.6112 26.77C13.9538 26.77 11.7997 24.6159 11.7997 21.9586C11.8026 19.3025 13.9551 17.15 16.6112 17.1471C19.2685 17.1471 21.4226 19.3012 21.4226 21.9586C21.4226 24.6159 19.2685 26.77 16.6112 26.77Z" fill="black"/>
<path d="M32.6477 17.949C29.106 17.949 25.2969 18.7856 25.2969 20.622V36.6602C25.2969 38.4966 29.106 39.3333 32.6477 39.3333C36.1895 39.3333 39.9986 38.4966 39.9986 36.6602V20.622C39.9986 18.7856 36.1895 17.949 32.6477 17.949ZM38.6621 36.6502C38.5612 37.0211 36.557 37.9968 32.6477 37.9968C28.7384 37.9968 26.7343 37.0211 26.6334 36.6602V35.6097C28.0554 36.3261 30.4044 36.6602 32.6477 36.6602C34.8911 36.6602 37.2407 36.3228 38.6621 35.6091V36.6502ZM38.6621 33.9772C38.5612 34.3481 36.557 35.3237 32.6477 35.3237C28.7384 35.3237 26.7343 34.3481 26.6334 33.9872V32.9367C28.0554 33.6531 30.4044 33.9872 32.6477 33.9872C34.8911 33.9872 37.2407 33.6497 38.6621 32.936V33.9772ZM38.6621 31.3041C38.5612 31.675 36.557 32.6507 32.6477 32.6507C28.7384 32.6507 26.7343 31.675 26.6334 31.3142V30.2637C28.0554 30.98 30.4044 31.3142 32.6477 31.3142C34.8911 31.3142 37.2407 30.9767 38.6621 30.263V31.3041ZM38.6621 28.6311C38.5612 29.002 36.557 29.9776 32.6477 29.9776C28.7384 29.9776 26.7343 29.002 26.6334 28.6411V27.5906C28.0554 28.307 30.4044 28.6411 32.6477 28.6411C34.8911 28.6411 37.2407 28.3037 38.6621 27.59V28.6311ZM38.6621 25.9581C38.5612 26.3289 36.557 27.3046 32.6477 27.3046C28.7384 27.3046 26.7343 26.3289 26.6334 25.9681V24.9176C28.0554 25.6306 30.4044 25.9681 32.6477 25.9681C34.8911 25.9681 37.2407 25.6306 38.6621 24.9169V25.9581ZM38.6621 23.285C38.5612 23.6559 36.557 24.6316 32.6477 24.6316C28.7384 24.6316 26.7343 23.6559 26.6334 23.295V22.2445C28.0554 22.9576 30.4044 23.295 32.6477 23.295C34.8911 23.295 37.2407 22.9576 38.6621 22.2439V23.285ZM32.6477 21.9585C28.7444 21.9585 26.741 20.9855 26.6334 20.634V20.63C26.741 20.2578 28.7444 19.2855 32.6477 19.2855C36.5236 19.2855 38.5284 20.2438 38.6621 20.622C38.5284 21.0002 36.5236 21.9585 32.6477 21.9585Z" fill="black"/>
<path d="M11.2644 26.7313H6.21298L3.81794 24.1117V19.768L6.46291 17.1852H11.2644C11.5806 17.1852 11.8371 16.9287 11.8371 16.6125C11.8371 16.2962 11.5806 16.0398 11.2644 16.0398H6.23036C6.08067 16.0395 5.93674 16.0978 5.8294 16.2022L2.84429 19.1138C2.73277 19.2441 2.67163 19.4101 2.67188 19.5816V24.3342C2.67188 24.4772 2.72525 24.6149 2.82157 24.7205L5.5367 27.6902C5.64521 27.809 5.79874 27.8768 5.95971 27.8767H11.2644C11.5806 27.8767 11.8371 27.6202 11.8371 27.304C11.8371 26.9877 11.5807 26.7313 11.2644 26.7313Z" fill="black"/>
<path d="M16.9444 21.2903H16.2761C16.0683 21.2903 15.942 21.174 15.942 21.1233C15.942 21.0725 16.0683 20.9562 16.2761 20.9562H17.9468C18.3158 20.9562 18.615 20.657 18.615 20.2879C18.615 19.9189 18.3158 19.6197 17.9468 19.6197H17.2785C17.2785 19.2506 16.9793 18.9514 16.6102 18.9514C16.2412 18.9514 15.942 19.2506 15.942 19.6197V19.6497C15.2008 19.7544 14.6393 20.3721 14.6055 21.1199C14.6533 21.9961 15.3996 22.6693 16.2761 22.6268H16.9444C17.1522 22.6268 17.2785 22.7431 17.2785 22.7939C17.2785 22.8447 17.1522 22.961 16.9444 22.961H15.2737C14.9047 22.961 14.6055 23.2602 14.6055 23.6292C14.6055 23.9983 14.9047 24.2975 15.2737 24.2975H15.942C15.942 24.6665 16.2412 24.9657 16.6102 24.9657C16.9793 24.9657 17.2785 24.6665 17.2785 24.2975V24.2674C18.0197 24.1628 18.5812 23.545 18.615 22.7972C18.5672 21.9211 17.8209 21.2479 16.9444 21.2903Z" fill="black"/>
</g>
<defs>
<linearGradient id="paint0_linear" x1="18.4411" y1="-17.8291" x2="18.4411" y2="65.0376" gradientUnits="userSpaceOnUse">
<stop stop-color="#FFDF00"/>
<stop offset="1" stop-color="#FF8E00"/>
</linearGradient>
<clipPath id="clip0">
<rect width="40" height="40" fill="white"/>
</clipPath>
</defs>
</svg>
