<svg width="40" height="40" viewBox="0 0 40 40" fill="none" xmlns="http://www.w3.org/2000/svg">
<path d="M13.3333 32.3332L10 35.3332L8 33.3332L4.33333 29.3332L2 22.9998V16.9998L4.66667 9.99984L8.66667 5.6665L13.3333 2.99984L18.6667 1.6665L23.3333 1.99984L27.6667 3.33317L31.6667 5.99984L35.3333 9.6665L32.3333 13.3332L33.3333 16.3332H38V23.6665L33.3333 23.9998L32.3333 26.9998L35.3333 30.3332L30 35.3332L26.6667 31.9998L23.6667 33.3332V37.9998H16.3333L16 33.3332L13.3333 32.3332Z" fill="url(#paint0_linear)"/>
<path d="M19.375 35H20.625V36.25H19.375V35Z" fill="black"/>
<path d="M30.1602 31.0483L31.044 30.1645L31.9279 31.0483L31.044 31.9322L30.1602 31.0483Z" fill="black"/>
<path d="M35 19.375H36.25V20.625H35V19.375Z" fill="black"/>
<path d="M38.1257 15.6248H33.6944C33.4526 14.8622 33.1463 14.1216 32.7788 13.411L35.9107 10.2785C36.0279 10.1613 36.0937 10.0024 36.0937 9.83664C36.0937 9.67091 36.0279 9.51197 35.9107 9.39477L33.2588 6.74352C31.5239 4.97525 29.4558 3.56831 27.1739 2.60398C24.8921 1.63965 22.4418 1.13704 19.9645 1.12521C17.4873 1.11338 15.0323 1.59256 12.7414 2.53505C10.4504 3.47754 8.36895 4.86467 6.61722 6.61628C4.86548 8.36789 3.47821 10.4493 2.53555 12.7402C1.5929 15.031 1.11355 17.486 1.12521 19.9632C1.13686 22.4404 1.63929 24.8908 2.60346 27.1727C3.56763 29.4546 4.97443 31.5228 6.74257 33.2579L9.39382 35.9098C9.51102 36.0269 9.66997 36.0928 9.83569 36.0928C10.0014 36.0928 10.1604 36.0269 10.2776 35.9098L13.4101 32.7779C14.1213 33.1452 14.8625 33.4513 15.6257 33.6929V38.1248C15.6257 38.2905 15.6915 38.4495 15.8088 38.5667C15.926 38.6839 16.0849 38.7498 16.2507 38.7498H23.7507C23.9165 38.7498 24.0754 38.6839 24.1926 38.5667C24.3098 38.4495 24.3757 38.2905 24.3757 38.1248V33.6935C25.1382 33.4519 25.8788 33.1458 26.5894 32.7785L29.7219 35.9104C29.8391 36.0276 29.9981 36.0934 30.1638 36.0934C30.3295 36.0934 30.4885 36.0276 30.6057 35.9104L35.9088 30.6073C36.026 30.4901 36.0918 30.3311 36.0918 30.1654C36.0918 29.9997 36.026 29.8407 35.9088 29.7235L32.7769 26.591C33.145 25.8796 33.4517 25.1382 33.6938 24.3748H38.1257C38.2915 24.3748 38.4504 24.3089 38.5676 24.1917C38.6848 24.0745 38.7507 23.9155 38.7507 23.7498V16.2498C38.7507 16.084 38.6848 15.925 38.5676 15.8078C38.4504 15.6906 38.2915 15.6248 38.1257 15.6248ZM7.62569 7.62477C10.8305 4.41899 15.1545 2.58238 19.6867 2.50194C24.2189 2.42149 28.6054 4.10349 31.9219 7.19352L31.0394 8.07602C27.9551 5.22964 23.8892 3.68699 19.693 3.77113C15.4969 3.85526 11.496 5.55966 8.52831 8.52738C5.56059 11.4951 3.85619 15.496 3.77206 19.6921C3.68792 23.8883 5.23057 27.9542 8.07694 31.0385L7.19445 31.921C4.10442 28.6045 2.42242 24.218 2.50287 19.6858C2.58331 15.1536 4.41991 10.8295 7.62569 7.62477ZM25.3038 14.6966C26.6914 16.107 27.4655 18.0086 27.4574 19.9871C27.4494 21.9656 26.6598 23.8608 25.2608 25.2599C23.8618 26.6589 21.9666 27.4485 19.988 27.4565C18.0095 27.4646 16.108 26.6905 14.6976 25.3029C14.5804 25.1857 14.4214 25.1199 14.2557 25.1199C14.09 25.1199 13.931 25.1857 13.8138 25.3029L8.96132 30.1554C6.34004 27.3074 4.92117 23.5563 5.00135 19.6865C5.08153 15.8166 6.65454 12.1276 9.39153 9.3906C12.1285 6.65361 15.8176 5.0806 19.6874 5.00042C23.5573 4.92024 27.3083 6.33912 30.1563 8.96039L25.3038 13.8123C25.2457 13.8703 25.1996 13.9392 25.1682 14.0151C25.1367 14.091 25.1205 14.1723 25.1205 14.2545C25.1205 14.3366 25.1367 14.4179 25.1682 14.4938C25.1996 14.5697 25.2457 14.6386 25.3038 14.6966ZM37.5007 23.1248H33.2282C33.0916 23.1247 32.9587 23.1694 32.8499 23.252C32.741 23.3346 32.6623 23.4506 32.6257 23.5823C32.3512 24.5627 31.9607 25.5068 31.4626 26.3948C31.3954 26.5139 31.3692 26.6518 31.3879 26.7873C31.4067 26.9227 31.4694 27.0483 31.5663 27.1448L34.5844 30.1635L30.1657 34.5823L27.1469 31.5641C27.0505 31.4672 26.9249 31.4045 26.7894 31.3858C26.654 31.367 26.5161 31.3932 26.3969 31.4604C25.509 31.9585 24.5648 32.349 23.5844 32.6235C23.4528 32.6601 23.3368 32.7389 23.2542 32.8477C23.1716 32.9565 23.1269 33.0894 23.1269 33.226V37.4998H16.8757V33.2273C16.8758 33.0906 16.8311 32.9577 16.7485 32.8489C16.6658 32.7401 16.5498 32.6614 16.4182 32.6248C15.4378 32.3502 14.4936 31.9598 13.6057 31.4616C13.4865 31.3945 13.3487 31.3683 13.2132 31.387C13.0777 31.4058 12.9521 31.4684 12.8557 31.5654L9.83694 34.5835L8.06944 32.816L14.2726 26.6135C15.9449 28.0613 18.1036 28.8221 20.3142 28.7426C22.5247 28.6631 24.6232 27.7493 26.1872 26.1851C27.7513 24.6209 28.6648 22.5223 28.7441 20.3118C28.8234 18.1012 28.0624 15.9426 26.6144 14.2704L32.8169 8.06727L34.5844 9.83477L31.5663 12.8535C31.4694 12.95 31.4067 13.0755 31.3879 13.211C31.3692 13.3465 31.3954 13.4844 31.4626 13.6035C31.9608 14.4914 32.3513 15.4356 32.6257 16.416C32.6623 16.5476 32.741 16.6637 32.8499 16.7463C32.9587 16.8289 33.0916 16.8736 33.2282 16.8735H37.5007V23.1248Z" fill="black"/>
<path d="M20.625 17.5887V10.625C20.625 10.4592 20.5592 10.3003 20.4419 10.1831C20.3247 10.0658 20.1658 10 20 10C19.8342 10 19.6753 10.0658 19.5581 10.1831C19.4408 10.3003 19.375 10.4592 19.375 10.625V17.5887C18.9455 17.7011 18.5536 17.9257 18.2397 18.2397C17.9257 18.5536 17.7011 18.9455 17.5887 19.375H13.125C12.9592 19.375 12.8003 19.4408 12.6831 19.5581C12.5658 19.6753 12.5 19.8342 12.5 20C12.5 20.1658 12.5658 20.3247 12.6831 20.4419C12.8003 20.5592 12.9592 20.625 13.125 20.625H17.5887C17.698 21.0515 17.9182 21.4415 18.227 21.7554C18.5358 22.0692 18.9221 22.2958 19.3467 22.4121C19.7714 22.5284 20.2192 22.5302 20.6448 22.4174C21.0704 22.3046 21.4586 22.0812 21.7699 21.7699C22.0812 21.4586 22.3046 21.0704 22.4174 20.6448C22.5302 20.2192 22.5284 19.7714 22.4121 19.3467C22.2958 18.9221 22.0692 18.5358 21.7554 18.227C21.4415 17.9182 21.0515 17.698 20.625 17.5887ZM20 21.25C19.7528 21.25 19.5111 21.1767 19.3055 21.0393C19.1 20.902 18.9398 20.7068 18.8452 20.4784C18.7505 20.2499 18.7258 19.9986 18.774 19.7561C18.8222 19.5137 18.9413 19.2909 19.1161 19.1161C19.2909 18.9413 19.5137 18.8222 19.7561 18.774C19.9986 18.7258 20.2499 18.7505 20.4784 18.8451C20.7068 18.9398 20.902 19.1 21.0393 19.3055C21.1767 19.5111 21.25 19.7528 21.25 20C21.25 20.3315 21.1183 20.6495 20.8839 20.8839C20.6495 21.1183 20.3315 21.25 20 21.25Z" fill="black"/>
<path d="M20 8.125C19.8342 8.125 19.6753 8.05915 19.5581 7.94194C19.4408 7.82473 19.375 7.66576 19.375 7.5V6.25C19.375 6.08424 19.4408 5.92527 19.5581 5.80806C19.6753 5.69085 19.8342 5.625 20 5.625C20.1658 5.625 20.3247 5.69085 20.4419 5.80806C20.5592 5.92527 20.625 6.08424 20.625 6.25V7.5C20.625 7.66576 20.5592 7.82473 20.4419 7.94194C20.3247 8.05915 20.1658 8.125 20 8.125Z" fill="black"/>
<path d="M26.2494 9.79975C26.1397 9.79964 26.032 9.77068 25.9371 9.71578C25.8422 9.66088 25.7634 9.58197 25.7086 9.48698C25.6538 9.39198 25.625 9.28425 25.625 9.17459C25.625 9.06494 25.6539 8.95722 25.7087 8.86225L26.3337 7.77913C26.4172 7.63675 26.5536 7.53316 26.7132 7.49098C26.8727 7.44879 27.0425 7.47143 27.1854 7.55395C27.3284 7.63648 27.4328 7.77219 27.4761 7.93146C27.5193 8.09074 27.4978 8.26065 27.4162 8.40413L26.7912 9.48725C26.7363 9.58236 26.6573 9.66131 26.5622 9.71617C26.4671 9.77103 26.3592 9.79986 26.2494 9.79975Z" fill="black"/>
<path d="M13.7525 9.79975C13.6426 9.79986 13.5347 9.77103 13.4396 9.71617C13.3445 9.66131 13.2655 9.58236 13.2106 9.48725L12.5856 8.40413C12.504 8.26065 12.4825 8.09074 12.5257 7.93146C12.569 7.77219 12.6735 7.63648 12.8164 7.55395C12.9593 7.47143 13.1291 7.44879 13.2887 7.49098C13.4482 7.53316 13.5846 7.63675 13.6681 7.77913L14.2931 8.86225C14.3479 8.95722 14.3768 9.06494 14.3768 9.17459C14.3768 9.28425 14.348 9.39198 14.2932 9.48698C14.2385 9.58197 14.1597 9.66088 14.0647 9.71578C13.9698 9.77068 13.8621 9.79964 13.7525 9.79975Z" fill="black"/>
<path d="M9.17329 14.3749C9.06354 14.3751 8.9557 14.3462 8.86079 14.2911L7.77766 13.6661C7.63528 13.5827 7.5317 13.4463 7.48951 13.2867C7.44733 13.1271 7.46997 12.9574 7.55249 12.8144C7.63501 12.6715 7.77072 12.567 7.93 12.5238C8.08927 12.4805 8.25919 12.5021 8.40266 12.5836L9.48579 13.2086C9.60493 13.2774 9.69804 13.3836 9.75069 13.5107C9.80334 13.6378 9.81257 13.7788 9.77696 13.9116C9.74135 14.0445 9.66289 14.162 9.55374 14.2457C9.4446 14.3295 9.31086 14.3749 9.17329 14.3749Z" fill="black"/>
<path d="M7.5 20.625H6.25C6.08424 20.625 5.92527 20.5592 5.80806 20.4419C5.69085 20.3247 5.625 20.1658 5.625 20C5.625 19.8342 5.69085 19.6753 5.80806 19.5581C5.92527 19.4408 6.08424 19.375 6.25 19.375H7.5C7.66576 19.375 7.82473 19.4408 7.94194 19.5581C8.05915 19.6753 8.125 19.8342 8.125 20C8.125 20.1658 8.05915 20.3247 7.94194 20.4419C7.82473 20.5592 7.66576 20.625 7.5 20.625Z" fill="black"/>
<path d="M8.09372 27.4996C7.95614 27.4996 7.82241 27.4542 7.71327 27.3705C7.60412 27.2867 7.52566 27.1693 7.49005 27.0364C7.45444 26.9035 7.46367 26.7626 7.51632 26.6355C7.56896 26.5084 7.66208 26.4022 7.78122 26.3334L8.86435 25.7084C8.93546 25.6667 9.01411 25.6395 9.09577 25.6283C9.17744 25.6172 9.2605 25.6223 9.34019 25.6433C9.41988 25.6644 9.49461 25.701 9.56009 25.7511C9.62556 25.8011 9.68049 25.8637 9.7217 25.9351C9.76292 26.0064 9.7896 26.0853 9.80023 26.167C9.81085 26.2487 9.8052 26.3318 9.78361 26.4113C9.76201 26.4909 9.72489 26.5654 9.67439 26.6305C9.62389 26.6956 9.561 26.7501 9.48935 26.7909L8.40622 27.4159C8.31131 27.471 8.20347 27.4999 8.09372 27.4996Z" fill="black"/>
<path d="M20.0022 26.2497C19.1811 26.252 18.3677 26.0911 17.6094 25.7763C16.851 25.4615 16.1628 24.9991 15.5847 24.416C15.5251 24.3582 15.4776 24.2892 15.4449 24.2129C15.4123 24.1366 15.3951 24.0546 15.3945 23.9716C15.3939 23.8886 15.4099 23.8063 15.4414 23.7296C15.4729 23.6528 15.5195 23.5831 15.5782 23.5245C15.637 23.4659 15.7068 23.4196 15.7837 23.3883C15.8605 23.357 15.9428 23.3413 16.0258 23.3421C16.1088 23.3429 16.1908 23.3603 16.267 23.3931C16.3432 23.426 16.4121 23.4737 16.4697 23.5335C16.9318 24.0056 17.483 24.3813 18.0914 24.639C18.6997 24.8967 19.3531 25.0312 20.0138 25.0347C20.6744 25.0382 21.3292 24.9107 21.9403 24.6594C22.5513 24.4082 23.1065 24.0384 23.5736 23.5712C24.0408 23.104 24.4107 22.5489 24.6619 21.9378C24.9131 21.3268 25.0406 20.672 25.0371 20.0113C25.0336 19.3507 24.8991 18.6973 24.6414 18.089C24.3838 17.4806 24.008 16.9294 23.5359 16.4672C23.4761 16.4097 23.4284 16.3408 23.3956 16.2646C23.3627 16.1884 23.3454 16.1064 23.3445 16.0234C23.3437 15.9404 23.3594 15.8581 23.3907 15.7812C23.422 15.7044 23.4683 15.6345 23.5269 15.5758C23.5855 15.517 23.6552 15.4705 23.732 15.439C23.8088 15.4074 23.891 15.3915 23.974 15.3921C24.057 15.3927 24.139 15.4098 24.2153 15.4425C24.2916 15.4751 24.3607 15.5226 24.4184 15.5822C25.2916 16.4562 25.8863 17.5694 26.1271 18.7812C26.368 19.9929 26.2444 21.2489 25.7718 22.3904C25.2992 23.5319 24.4989 24.5078 23.472 25.1947C22.4451 25.8816 21.2376 26.2487 20.0022 26.2497Z" fill="black"/>
<defs>
<linearGradient id="paint0_linear" x1="18.5474" y1="-16.8177" x2="18.5474" y2="63.1156" gradientUnits="userSpaceOnUse">
<stop stop-color="#FFDF00"/>
<stop offset="1" stop-color="#FF8E00"/>
</linearGradient>
</defs>
</svg>
