<svg width="40" height="40" viewBox="0 0 40 40" fill="none" xmlns="http://www.w3.org/2000/svg">
<g clip-path="url(#clip0)">
<path d="M13.6667 15.3333L1 22V23.6667L17.6667 39.3333L19 37C19.4444 37.1111 20.4 37.3333 20.6667 37.3333C20.9333 37.3333 23 38 24 38.3333L25 37.3333L27 38L31 37.3333L32 33.6667L30 31.3333L27 31L25.6667 30L23.3333 29L26.3333 24.6667L27 22.3333L24 19.3333L39.3333 3.66667L38.6667 1.33333L36.3333 1L21 15.6667L19 13.6667L16.3333 13L13.6667 15.3333Z" fill="white"/>
<path d="M32.6667 22C32.4 22 31.6667 22.8889 31.3333 23.3333L31.6667 26L32.6667 27.3333L35.3333 27L36.1955 24.6667L35 22.6667C34.3333 22.4444 32.9333 22 32.6667 22Z" fill="white"/>
<path d="M39 34.6667C38.4444 34.4444 37.3333 33.9333 37.3333 33.6667C36.7778 34 35.6 34.6667 35.3333 34.6667C35.0667 34.6667 35.2222 35.7778 35.3333 36.3333L36.1955 37.3333L38.3333 38L39 36.3333V34.6667Z" fill="white"/>
<path d="M27.7447 30.4559C27.6196 30.482 27.496 30.5136 27.3745 30.5505C26.6203 29.549 25.5441 28.8695 24.3532 28.6057L25.1609 27.0435L26.8039 25.4017C28.0608 24.1441 28.0608 22.0979 26.8039 20.8403L25.0485 19.084L33.978 10.1496C33.9857 10.1425 33.9937 10.1361 34.0012 10.1287C34.0088 10.1211 34.0153 10.1128 34.0226 10.105L37.4935 6.63211C37.4936 6.63203 37.4937 6.63195 37.4938 6.63195C37.4939 6.63188 37.4939 6.6318 37.4939 6.63172L39.1222 5.0025C40.2649 3.86234 40.2655 2.00289 39.123 0.856797C38.5707 0.304219 37.8348 0 37.0503 0C37.0496 0 37.0489 0 37.0482 0C36.2641 0.000546875 35.529 0.305078 34.9791 0.856797L33.3504 2.48633C33.3504 2.48633 33.3504 2.48633 33.3503 2.48633L33.3503 2.48641L29.8785 5.96C29.871 5.96703 29.8629 5.97344 29.8555 5.98078C29.8479 5.98836 29.8414 5.99648 29.8343 6.0043L27.8655 7.97414C27.5605 8.27938 27.5606 8.77398 27.8657 9.07906C28.1709 9.38398 28.6656 9.38391 28.9706 9.07875L30.4089 7.63969L32.3432 9.575L23.9439 17.9788L22.0096 16.0435L24.0129 14.0391C24.3179 13.7339 24.3178 13.2393 24.0126 12.9342C23.7073 12.6292 23.2127 12.6293 22.9077 12.9345L20.905 14.9383L19.1503 13.1826C18.5435 12.5755 17.7337 12.2411 16.8702 12.2411C16.0067 12.2411 15.197 12.5755 14.5898 13.183L12.9492 14.8266L9.7855 16.4661C9.78214 16.4678 9.77878 16.4695 9.7755 16.4713L6.72824 18.0504C6.7148 18.0569 6.7016 18.0637 6.68847 18.0709L1.77168 20.619C0.716051 21.1655 0.143942 21.8113 0.0224578 22.5936C-0.0950422 23.3505 0.248942 24.1381 1.04472 24.9343L3.20855 27.1C3.2166 27.1088 3.22519 27.1167 3.23355 27.1251L8.04988 31.9455L12.8534 36.7502C12.8653 36.7629 12.8777 36.7753 12.8906 36.7873L15.0571 38.9544C15.7517 39.6493 16.4396 39.9999 17.1064 39.9999C17.2037 39.9999 17.3006 39.9924 17.3969 39.9775C18.1792 39.8561 18.825 39.2836 19.3711 38.2273L19.726 37.5414C19.9232 37.7198 20.135 37.8848 20.3613 38.0338C21.2207 38.6002 22.2049 38.8932 23.21 38.8932C23.5623 38.8932 23.9175 38.8571 24.2704 38.7842C24.9372 38.647 25.5676 38.382 26.1246 38.0076C27.0754 38.6963 28.2739 38.9613 29.4475 38.7199C30.551 38.4925 31.4997 37.8489 32.1189 36.9076C32.7379 35.9666 32.9537 34.8409 32.7264 33.738C32.2582 31.4615 30.0249 29.9887 27.7447 30.4559ZM37.0492 1.5625H37.0502C37.4171 1.5625 37.7608 1.70414 38.0171 1.96063C38.551 2.49617 38.5517 3.36461 38.0178 3.89727L36.9414 4.97422L35.0071 3.03891L36.0849 1.96055C36.3406 1.70414 36.683 1.56273 37.0492 1.5625ZM31.5135 6.53445L33.9026 4.14406L35.8369 6.07938L33.4478 8.46977L31.5135 6.53445ZM19.4854 30.0712L8.37652 18.9562L9.9948 18.1177L20.9018 29.0306C20.3669 29.2974 19.89 29.6515 19.4854 30.0712ZM13.2682 16.4212L23.5664 26.7252L22.64 28.5172C22.6274 28.5186 22.6147 28.52 22.6021 28.5215L11.4501 17.3634L13.2682 16.4212ZM15.6954 14.2872C16.0071 13.9754 16.4243 13.8037 16.8703 13.8037C17.3163 13.8037 17.7335 13.9754 18.0453 14.2872L25.6988 21.9448C26.347 22.5934 26.347 23.6487 25.6992 24.2968L24.5232 25.472L14.5207 15.4641L15.6954 14.2872ZM17.9835 37.5096C17.6992 38.0595 17.3981 38.3963 17.1575 38.4335C16.9307 38.4691 16.5682 38.2559 16.1623 37.8498L14.3803 36.0673L16.0866 32.7735C16.2851 32.3904 16.1354 31.9189 15.7523 31.7205C15.3691 31.522 14.8977 31.6716 14.6993 32.0548L13.2212 34.9079L9.70871 31.3945L12.1816 28.913C12.4861 28.6074 12.4853 28.1127 12.1796 27.8082C11.874 27.5037 11.3793 27.5045 11.0748 27.8102L8.60417 30.2894L5.0898 26.772L7.94207 25.2927C8.32511 25.0941 8.47457 24.6225 8.27589 24.2395C8.0773 23.8565 7.60558 23.7069 7.22269 23.9056L3.93144 25.6126L2.15027 23.8298C1.74418 23.4236 1.53152 23.0603 1.56675 22.8333C1.60418 22.5924 1.94074 22.2911 2.49058 22.0065L6.92128 19.7104L18.571 31.3666C18.0674 32.3741 17.8835 33.5507 18.1271 34.7378C18.234 35.2557 18.4155 35.7457 18.6628 36.1966L17.9835 37.5096ZM30.8139 36.0489C30.4242 36.6414 29.827 37.0466 29.1327 37.1896C28.2482 37.3719 27.3406 37.0964 26.7051 36.4534C26.4131 36.158 25.9408 36.1427 25.6303 36.4189C25.1609 36.8363 24.5818 37.1252 23.9552 37.2541C23.0039 37.4505 22.033 37.2641 21.2212 36.7293C20.4093 36.1943 19.8539 35.3749 19.6574 34.423C19.2534 32.4548 20.5235 30.5252 22.4888 30.1213C22.4889 30.1213 22.4889 30.1213 22.4891 30.1213C22.7364 30.0703 22.9839 30.0456 23.2289 30.0456C24.5207 30.0456 25.7335 30.7338 26.3903 31.8936C26.5948 32.2545 27.0457 32.3927 27.4173 32.2084C27.6202 32.1078 27.8379 32.0327 28.0614 31.986C29.495 31.6926 30.9013 32.6197 31.1964 34.0535C31.3395 34.7478 31.2037 35.4566 30.8139 36.0489Z" fill="black"/>
<path d="M37.2843 32.9638C35.7856 32.9638 34.5664 34.1826 34.5664 35.6805C34.5664 37.1797 35.7856 38.3994 37.2843 38.3994C38.7817 38.3994 39.9999 37.1797 39.9999 35.6805C39.9999 34.1826 38.7817 32.9638 37.2843 32.9638ZM37.2843 36.8369C36.6472 36.8369 36.1289 36.3182 36.1289 35.6805C36.1289 35.0441 36.6472 34.5263 37.2843 34.5263C37.9202 34.5263 38.4374 35.044 38.4374 35.6805C38.4374 36.3182 37.9201 36.8369 37.2843 36.8369Z" fill="black"/>
<path d="M37.092 24.6546C37.092 22.7745 35.563 21.2448 33.6835 21.2448C31.8053 21.2448 30.2773 22.7745 30.2773 24.6546C30.2773 26.5348 31.8054 28.0645 33.6835 28.0645C35.563 28.0645 37.092 26.5348 37.092 24.6546ZM33.6835 26.502C32.6669 26.502 31.8398 25.6733 31.8398 24.6546C31.8398 23.636 32.6669 22.8073 33.6835 22.8073C34.7013 22.8073 35.5295 23.636 35.5295 24.6546C35.5295 25.6733 34.7014 26.502 33.6835 26.502Z" fill="black"/>
<path d="M25.9376 11.7885C26.1381 11.7885 26.3388 11.7119 26.4916 11.5591C26.7967 11.254 26.7967 10.7594 26.4916 10.4542C26.1865 10.1491 25.6919 10.1491 25.3867 10.4542L25.3845 10.4564C25.0794 10.7615 25.0805 11.2551 25.3856 11.5601C25.5379 11.7125 25.7376 11.7885 25.9376 11.7885Z" fill="black"/>
</g>
<defs>
<clipPath id="clip0">
<rect width="40" height="40" fill="white"/>
</clipPath>
</defs>
</svg>
