<svg width="40" height="40" viewBox="0 0 40 40" fill="none" xmlns="http://www.w3.org/2000/svg">
<rect x="0.667969" y="7" width="38.6667" height="32" fill="white"/>
<ellipse cx="19.7982" cy="2.53332" rx="1.33333" ry="1.33333" fill="white"/>
<path d="M19.7631 15.2533H8.18359C7.86 15.2533 7.59766 15.5157 7.59766 15.8393C7.59766 16.1629 7.86 16.4252 8.18359 16.4252H19.7631C20.0867 16.4252 20.3491 16.1629 20.3491 15.8393C20.3491 15.5156 20.0867 15.2533 19.7631 15.2533Z" fill="black"/>
<path d="M16.6229 18.2757H8.18359C7.86 18.2757 7.59766 18.5381 7.59766 18.8616C7.59766 19.1852 7.86 19.4476 8.18359 19.4476H16.6229C16.9465 19.4476 17.2088 19.1852 17.2088 18.8616C17.2088 18.538 16.9465 18.2757 16.6229 18.2757Z" fill="black"/>
<path d="M16.6229 21.2983H8.18359C7.86 21.2983 7.59766 21.5606 7.59766 21.8842C7.59766 22.2078 7.86 22.4701 8.18359 22.4701H16.6229C16.9465 22.4701 17.2088 22.2078 17.2088 21.8842C17.2088 21.5605 16.9465 21.2983 16.6229 21.2983Z" fill="black"/>
<path d="M16.623 29.1162H8.18359C7.86 29.1162 7.59766 29.3786 7.59766 29.7021C7.59766 30.0257 7.86 30.2881 8.18359 30.2881H16.6229C16.9465 30.2881 17.2088 30.0257 17.2088 29.7021C17.2088 29.3785 16.9466 29.1162 16.623 29.1162Z" fill="black"/>
<path d="M39.748 6.5657C39.6522 6.49805 39.5314 6.46063 39.4141 6.46063H24.4558L21.607 3.6118C21.7733 3.31086 21.8682 2.96531 21.8682 2.59789C21.8682 1.43789 20.9245 0.494141 19.7645 0.494141C18.6045 0.494141 17.6608 1.43789 17.6608 2.59789C17.6608 2.96531 17.7557 3.31086 17.922 3.6118L15.0731 6.46063H9.02867C8.70508 6.46063 8.44273 6.72297 8.44273 7.04656C8.44273 7.37016 8.70508 7.6325 9.02867 7.6325H38.0588L34.7763 11.1236C34.7159 11.103 5.1943 11.0925 5.1943 11.0925L1.94117 7.6325H6.68492C7.00852 7.6325 7.27086 7.37016 7.27086 7.04656C7.27086 6.72297 7.00852 6.46063 6.68492 6.46063C6.68492 6.46063 0.591953 6.46063 0.585938 6.46063C0.268828 6.46063 0 6.72945 0 7.04656C0 7.04656 0 38.9098 0 38.9198C0 39.1455 0.14 39.3582 0.344297 39.4523C0.420078 39.4873 0.502422 39.5057 0.585938 39.5057H29.2891C29.6127 39.5057 29.875 39.2434 29.875 38.9198C29.875 38.5962 29.6127 38.3338 29.2891 38.3338H1.94117L5.19438 34.8739H34.588C34.6522 34.8739 34.7159 34.8634 34.7764 34.8428L38.0589 38.3339H31.6328C31.3092 38.3339 31.0469 38.5963 31.0469 38.9198C31.0469 39.2434 31.3092 39.5058 31.6328 39.5058C31.6328 39.5058 39.4138 39.5058 39.4142 39.5058C39.7205 39.5058 39.9876 39.248 39.9996 38.942C39.9998 38.9345 40 7.04789 40 7.04664C40 6.85789 39.9018 6.67422 39.748 6.5657ZM19.7645 1.66602C20.2783 1.66602 20.6963 2.08406 20.6963 2.59789C20.6963 3.11172 20.2783 3.52969 19.7645 3.52969C19.2506 3.52969 18.8327 3.11164 18.8327 2.59789C18.8327 2.08414 19.2507 1.66602 19.7645 1.66602ZM16.7304 6.46055L18.7505 4.44039C19.0515 4.60664 19.397 4.70156 19.7645 4.70156C20.1319 4.70156 20.4774 4.60664 20.7784 4.44039L22.7985 6.46055H16.7304ZM4.35516 34.0558L1.17188 37.4412V8.52516L4.35516 11.9106V34.0558ZM34.473 33.6947L34.4574 33.702H5.52703V12.2644H34.4466L34.473 12.2779V33.6947ZM38.8281 37.4412L35.6449 34.0557V11.9197V11.9105L38.8281 8.52516V37.4412Z" fill="black"/>
<path d="M33.2412 31.0098L30.7507 23.4671C31.5506 23.1205 32.0445 22.2789 31.9168 21.3757C31.8817 21.1273 31.9616 20.8814 32.136 20.7011C32.8826 19.9294 32.8826 18.7203 32.136 17.9485C31.9617 17.7682 31.8817 17.5223 31.9169 17.2739C32.0672 16.2107 31.3566 15.2326 30.2989 15.047C30.0518 15.0037 29.8427 14.8517 29.725 14.6301C29.3807 13.9812 28.7104 13.5781 27.9755 13.5781C27.6727 13.5781 27.3805 13.6459 27.1071 13.7795C26.8875 13.8869 26.6174 13.8869 26.3978 13.7795C26.1245 13.6459 25.8323 13.5781 25.5295 13.5781C24.7946 13.5781 24.1242 13.9812 23.7799 14.6301C23.6624 14.8517 23.4531 15.0037 23.206 15.047C22.1485 15.2326 21.4378 16.2108 21.5881 17.2739C21.6233 17.5223 21.5434 17.7682 21.3689 17.9485C20.6224 18.7203 20.6224 19.9294 21.3689 20.7011C21.5435 20.8814 21.6233 21.1273 21.5881 21.3757C21.4604 22.2789 21.9543 23.1205 22.7542 23.4671C22.7542 23.4671 20.2692 30.9933 20.2638 31.0098C20.1105 31.4741 20.5847 31.9194 21.0381 31.7374L23.0743 30.9212C23.0743 30.9212 24.2223 32.7864 24.2241 32.7894C24.4808 33.2065 25.1264 33.1295 25.2795 32.6659L26.7524 28.2048C26.7524 28.2048 28.222 32.6555 28.2254 32.6659C28.3783 33.129 29.0253 33.2045 29.2808 32.7894L30.4306 30.9212C30.4306 30.9212 32.4624 31.7356 32.4667 31.7374C32.9195 31.9189 33.3936 31.4716 33.2412 31.0098ZM24.5617 31.1023C24.5617 31.1023 23.8138 29.887 23.8135 29.8866C23.6662 29.6472 23.3573 29.5453 23.0965 29.6499L21.7715 30.1811L23.796 24.0495C23.8049 24.0655 23.8148 24.0806 23.824 24.0963C23.9557 24.3201 24.1279 24.5192 24.3379 24.673C24.6841 24.9267 25.0996 25.0717 25.5295 25.0716C25.8324 25.0716 26.1245 25.0039 26.3978 24.8702C26.4749 24.8326 26.5585 24.8088 26.6434 24.7977L24.5617 31.1023ZM25.8967 23.8111C25.8922 23.8132 25.8876 23.8151 25.8831 23.8172C25.4964 24.0063 25.0168 23.8502 24.8152 23.4702C24.5306 22.9341 24.0063 22.553 23.4086 22.4482C22.9771 22.3725 22.6872 21.9734 22.7485 21.5397C22.8346 20.9309 22.6388 20.3281 22.2113 19.8862C21.9067 19.5716 21.9067 19.0783 22.2113 18.7634C22.6388 18.3214 22.8346 17.7187 22.7485 17.1098C22.6872 16.6761 22.9771 16.277 23.4086 16.2013C24.0142 16.0952 24.5269 15.7227 24.8151 15.1794C25.0162 14.8003 25.4987 14.6445 25.8832 14.8323C26.4214 15.0954 27.0834 15.0955 27.6218 14.8323C28.0008 14.6471 28.4858 14.7948 28.6898 15.1793C28.978 15.7225 29.4906 16.095 30.0963 16.2013C30.5278 16.277 30.8177 16.676 30.7564 17.1098C30.6703 17.7187 30.8661 18.3213 31.2937 18.7633C31.5983 19.0781 31.5983 19.5714 31.2937 19.8863C30.8661 20.3282 30.6703 20.9309 30.7564 21.5398C30.8177 21.9735 30.5278 22.3727 30.0963 22.4483C29.6208 22.5317 29.2032 22.7798 28.906 23.1452C28.9024 23.1496 28.8986 23.154 28.8951 23.1584C28.7898 23.2895 28.7219 23.4423 28.6217 23.5759C28.326 23.9708 27.898 23.9238 27.4935 23.7608C26.9806 23.5541 26.3956 23.5719 25.8967 23.8111ZM30.4085 29.6498C30.1438 29.5437 29.841 29.6436 29.6914 29.8866L28.9432 31.1022L27.3695 26.3359L27.7899 25.0628C27.796 25.0634 27.8022 25.0631 27.8083 25.0637C28.2602 25.1019 28.7186 24.9809 29.0937 24.7257C29.3481 24.5526 29.5602 24.3186 29.7089 24.0493L31.7334 30.1809L30.4085 29.6498Z" fill="black"/>
</svg>
