<svg width="40" height="40" viewBox="0 0 40 40" fill="none" xmlns="http://www.w3.org/2000/svg">
<path d="M5 36.3333L2 36.6667V39.6667H38V36.6667H35V0.666672H5V36.3333Z" fill="white"/>
<path d="M38.1585 35.9639H35.6886V0.60241C35.6886 0.240964 35.4476 0 35.0862 0H4.96571C4.60427 0 4.3633 0.240964 4.3633 0.60241V35.9639H1.89343C1.53198 35.9639 1.29102 36.2048 1.29102 36.5663V39.3976C1.29102 39.759 1.53198 40 1.89343 40H38.0982C38.4597 40 38.7006 39.759 38.7006 39.3976V36.5663C38.7609 36.2651 38.4597 35.9639 38.1585 35.9639ZM5.56812 1.20482H34.4838V35.9639H32.9175V3.31325C32.9175 2.95181 32.6766 2.71084 32.3151 2.71084H7.7368C7.37535 2.71084 7.13439 2.95181 7.13439 3.31325V35.9639H5.56812V1.20482ZM20.6284 24.8795V15H31.7127V24.8795H20.6284ZM31.7127 26.0843V35.9639H20.6284V26.0843H31.7127ZM20.6284 13.7952V3.91566H31.7127V13.7952H20.6284ZM8.33921 24.8795V15H19.4235V24.8795H8.33921ZM19.4235 26.0843V35.9639H8.33921V26.0843H19.4235ZM8.33921 13.7952V3.91566H19.4235V13.7952H8.33921ZM2.49583 38.7952V37.1687H7.7368H32.3151H37.5561V38.7952H2.49583Z" fill="black"/>
</svg>
