<svg width="40" height="40" viewBox="0 0 40 40" fill="none" xmlns="http://www.w3.org/2000/svg">
<g clip-path="url(#clip0)">
<path d="M10.3333 18.3333L9.33333 20.3333L19.3333 31L21.6667 29.3333L23 37L25 34.6667L28 29.6667L28.6667 23L34 17.3333L37.6667 9.66667L39 1L29.6667 2.33333L23 6L16.6667 11.3333L12.3333 12L6.33333 14L3.33333 17L10.3333 18.3333Z" fill="white"/>
<path d="M1 38.6667L4.33333 29.6667L7.33333 27.6667L10.3333 28.6667L12.3333 31L12 34.3333L9 36L3.66667 38.6667H1Z" fill="white"/>
<path d="M19.7688 31.7767C19.5555 31.7767 19.3422 31.695 19.1788 31.5333L8.46716 20.8217C8.15383 20.5083 8.14049 20.0067 8.43383 19.6767L16.4622 10.6833C22.0738 4.11834 31.2122 -0.129997 39.1805 0.00500277C39.6255 0.0150028 39.9838 0.373336 39.9938 0.818336C40.1788 8.79167 35.8822 17.925 29.3005 23.5483L20.3222 31.565C20.1655 31.7067 19.9655 31.7767 19.7688 31.7767ZM10.2022 20.2L19.8005 29.7983L28.2055 22.295C34.2155 17.1583 38.2072 8.97167 38.3305 1.67C31.0288 1.79167 22.8438 5.78334 17.7172 11.78L10.2022 20.2Z" fill="black"/>
<path d="M22.9606 37.8767C22.8806 37.8767 22.7989 37.865 22.7223 37.84C22.4223 37.74 22.1756 37.51 22.1323 37.1967L20.9889 29.2184C20.9239 28.7634 21.2406 28.3417 21.6956 28.275C22.1506 28.2034 22.5723 28.525 22.6389 28.9817L23.5323 35.215C26.4523 31.7234 28.0756 27.2967 28.0756 22.7834C28.0756 22.3234 28.4489 21.95 28.9089 21.95C29.3689 21.95 29.7423 22.3234 29.7423 22.7834C29.7423 28.305 27.5056 33.71 23.6056 37.6084C23.4389 37.775 23.1956 37.8767 22.9606 37.8767Z" fill="black"/>
<path d="M10.9012 19.0201C10.8629 19.0201 10.8229 19.0184 10.7829 19.0117L2.80457 17.8684C2.49124 17.8234 2.22957 17.6051 2.13124 17.3034C2.0329 17.0034 2.1129 16.6717 2.3379 16.4501C6.2929 12.4951 11.6962 10.2584 17.2179 10.2584C17.6779 10.2584 18.0512 10.6317 18.0512 11.0917C18.0512 11.5517 17.6779 11.9251 17.2179 11.9251C12.6829 11.9251 8.2329 13.5634 4.7779 16.4667L11.0196 17.3617C11.4746 17.4284 11.7912 17.8484 11.7262 18.3051C11.6646 18.7201 11.3079 19.0201 10.9012 19.0201Z" fill="black"/>
<path d="M28.5548 15.61C27.4865 15.61 26.4198 15.2033 25.6081 14.3916C23.9848 12.7666 23.9848 10.1233 25.6081 8.49829C27.2331 6.87329 29.8765 6.87329 31.5015 8.49829C33.1248 10.1233 33.1248 12.7666 31.5015 14.3916C30.6881 15.205 29.6215 15.61 28.5548 15.61ZM28.5548 8.94662C27.9148 8.94662 27.2731 9.18996 26.7865 9.67662C25.8131 10.6516 25.8131 12.2383 26.7865 13.2133C27.7615 14.1866 29.3481 14.185 30.3231 13.2133C31.2965 12.2383 31.2965 10.6516 30.3231 9.67662C29.8348 9.19162 29.1948 8.94662 28.5548 8.94662ZM30.9115 13.8033H30.9281H30.9115Z" fill="black"/>
<path d="M0.833692 40C0.615359 40 0.403692 39.9151 0.243692 39.7567C0.0270258 39.5401 -0.0529742 39.2217 0.0353591 38.9284C0.308692 38.0167 2.75703 29.9601 4.54036 28.1767C6.54869 26.1684 9.81703 26.1667 11.8254 28.1767C13.8337 30.1851 13.8337 33.4534 11.8254 35.4617C10.042 37.2451 1.98536 39.6934 1.07369 39.9667C0.993692 39.9884 0.913692 40 0.833692 40ZM8.18369 28.3351C7.29036 28.3351 6.39869 28.6751 5.71869 29.3534C4.75703 30.3167 3.15703 34.6184 2.10036 37.9001C5.38036 36.8434 9.68369 35.2434 10.6454 34.2817C12.0037 32.9234 12.0037 30.7117 10.6454 29.3534C9.96703 28.6751 9.07536 28.3351 8.18369 28.3351Z" fill="black"/>
</g>
<defs>
<clipPath id="clip0">
<rect width="40" height="40" fill="white"/>
</clipPath>
</defs>
</svg>
