<svg width="6" height="14" viewBox="0 0 6 14" fill="none" xmlns="http://www.w3.org/2000/svg">
<path d="M3.37455 4.29597C4.56085 4.29597 5.52253 3.33429 5.52253 2.14799C5.52253 0.961686 4.56085 0 3.37455 0C2.18825 0 1.22656 0.961686 1.22656 2.14799C1.22656 3.33429 2.18825 4.29597 3.37455 4.29597Z" fill="#333333"/>
<path d="M5.36848 12.8278V5.5652C5.36848 5.23564 5.10127 4.96839 4.77167 4.96839C4.7523 4.96839 0.65236 4.96436 0.632949 4.96436C0.309296 4.96436 0.046875 5.22678 0.046875 5.55043C0.046875 5.87408 0.309296 6.1365 0.632949 6.1365H1.38312V12.8277C1.05947 12.8277 0.79705 13.0902 0.79705 13.4138C0.79705 13.7375 1.05947 13.9999 1.38312 13.9999H5.36843C5.69208 13.9999 5.9545 13.7375 5.9545 13.4138C5.95455 13.0902 5.69218 12.8278 5.36848 12.8278Z" fill="#333333"/>
</svg>
