<svg width="40" height="40" viewBox="0 0 40 40" fill="none" xmlns="http://www.w3.org/2000/svg">
<path d="M15.0013 2.66667L3.66797 17.3333H15.3346L15.0013 2.66667Z" fill="white"/>
<path d="M25.0013 5.66667L27.0013 2.33333L28.668 2H30.668L32.668 3.33333L34.0013 5.66667L35.0013 8.66667L35.3346 14C35.0013 15.8889 34.3346 19.7333 34.3346 20C34.3346 20.2667 33.0013 21.6667 32.3346 22.3333L30.0013 23.3333L27.0013 22.3333L25.0013 20.3333L23.668 15.6667V10L25.0013 5.66667Z" fill="white"/>
<path d="M15.3516 24C15.0974 24 14.8823 23.9218 14.7063 23.7654C14.5498 23.5894 14.4716 23.3742 14.4716 23.12V18.3094H3.47159C3.23693 18.3094 3.03159 18.2311 2.85559 18.0747C2.69915 17.9182 2.60137 17.7325 2.56226 17.5174C2.5427 17.3022 2.60137 17.0969 2.73826 16.9014L14.6183 1.41335C14.716 1.29602 14.8138 1.20802 14.9116 1.14935C15.0094 1.09068 15.156 1.06135 15.3516 1.06135C15.6058 1.06135 15.8112 1.14935 15.9676 1.32535C16.1436 1.4818 16.2316 1.69691 16.2316 1.97069V16.7254H18.9303C19.1845 16.7254 19.3898 16.784 19.5463 16.9014C19.7223 16.9991 19.8103 17.2142 19.8103 17.5467C19.8103 17.7227 19.7223 17.8987 19.5463 18.0747C19.3898 18.2311 19.1845 18.3094 18.9303 18.3094H16.2316V23.12C16.2316 23.3742 16.1436 23.5894 15.9676 23.7654C15.8112 23.9218 15.6058 24 15.3516 24ZM4.32226 17.6054L4.17559 16.7254H14.4716V3.76002L14.8236 3.99469L4.32226 17.6054Z" fill="#333333"/>
<path d="M29.4192 24C27.9721 24 26.7401 23.5405 25.7232 22.6214C24.7063 21.7022 23.9241 20.3822 23.3766 18.6614C22.8486 16.9405 22.5846 14.8871 22.5846 12.5014C22.5846 10.1351 22.8486 8.09158 23.3766 6.37069C23.9241 4.6498 24.7063 3.3298 25.7232 2.41068C26.7401 1.47202 27.9721 1.00269 29.4192 1.00269C30.8859 1.00269 32.1277 1.47202 33.1446 2.41068C34.1614 3.34935 34.9339 4.67913 35.4619 6.40002C35.9899 8.10135 36.2539 10.1351 36.2539 12.5014C36.2539 14.8676 35.9899 16.9111 35.4619 18.632C34.9339 20.3529 34.1614 21.6827 33.1446 22.6214C32.1277 23.5405 30.8859 24 29.4192 24ZM29.4192 22.24C30.573 22.24 31.5214 21.8196 32.2646 20.9787C33.0077 20.1378 33.5552 18.984 33.9072 17.5174C34.2788 16.0507 34.4646 14.3787 34.4646 12.5014C34.4646 10.624 34.2788 8.95202 33.9072 7.48535C33.5357 6.01869 32.9783 4.87469 32.2352 4.05335C31.4921 3.21246 30.5534 2.79202 29.4192 2.79202C28.285 2.79202 27.3463 3.21246 26.6032 4.05335C25.8601 4.87469 25.3028 6.01869 24.9312 7.48535C24.5597 8.93246 24.3739 10.6045 24.3739 12.5014C24.3739 14.3787 24.5499 16.0507 24.9019 17.5174C25.2734 18.984 25.8308 20.1378 26.5739 20.9787C27.3366 21.8196 28.285 22.24 29.4192 22.24Z" fill="#333333"/>
<path d="M7.06028 37.3334C6.89139 37.3334 6.77139 37.2667 6.70028 37.1334C6.63806 37 6.63806 36.8756 6.70028 36.76L10.7403 27.2C10.8114 27.0134 10.9403 26.92 11.1269 26.92C11.3047 26.92 11.4336 27.0134 11.5136 27.2L15.567 36.76C15.6381 36.8845 15.6336 37.0134 15.5536 37.1467C15.4736 37.2711 15.3581 37.3334 15.207 37.3334C15.1181 37.3334 15.0425 37.3156 14.9803 37.28C14.927 37.2356 14.8781 37.1689 14.8336 37.08L10.9136 27.7334H11.3403L7.43362 37.08C7.39806 37.1689 7.34917 37.2356 7.28695 37.28C7.22473 37.3156 7.14917 37.3334 7.06028 37.3334Z" fill="#333333"/>
<path d="M17.5153 37.3334C17.3997 37.3334 17.3019 37.2978 17.2219 37.2267C17.1508 37.1467 17.1153 37.0489 17.1153 36.9334V27.32C17.1153 27.2045 17.1508 27.1111 17.2219 27.04C17.3019 26.96 17.3997 26.92 17.5153 26.92H23.9286C24.0353 26.92 24.1286 26.96 24.2086 27.04C24.2886 27.1111 24.3286 27.2045 24.3286 27.32C24.3286 27.4267 24.2886 27.52 24.2086 27.6C24.1286 27.68 24.0353 27.72 23.9286 27.72H17.9153V31.72H22.3286C22.4442 31.72 22.5375 31.76 22.6086 31.84C22.6886 31.9111 22.7286 32.0045 22.7286 32.12C22.7286 32.2356 22.6886 32.3334 22.6086 32.4134C22.5375 32.4934 22.4442 32.5334 22.3286 32.5334H17.9153V36.5334H23.9286C24.0353 36.5334 24.1286 36.5734 24.2086 36.6534C24.2886 36.7334 24.3286 36.8267 24.3286 36.9334C24.3286 37.0489 24.2886 37.1467 24.2086 37.2267C24.1286 37.2978 24.0353 37.3334 23.9286 37.3334H17.5153Z" fill="#333333"/>
<path d="M29.2559 37.3334C29.1404 37.3334 29.0426 37.2978 28.9626 37.2267C28.8915 37.1467 28.8559 37.0489 28.8559 36.9334V26.92H29.6559V36.9334C29.6559 37.0489 29.6159 37.1467 29.5359 37.2267C29.4648 37.2978 29.3715 37.3334 29.2559 37.3334ZM25.4826 27.64C25.3759 27.64 25.287 27.6089 25.2159 27.5467C25.1537 27.4756 25.1226 27.3867 25.1226 27.28C25.1226 27.1734 25.1537 27.0889 25.2159 27.0267C25.287 26.9556 25.3759 26.92 25.4826 26.92H33.0292C33.1359 26.92 33.2204 26.9556 33.2826 27.0267C33.3537 27.0889 33.3892 27.1734 33.3892 27.28C33.3892 27.3867 33.3537 27.4756 33.2826 27.5467C33.2204 27.6089 33.1359 27.64 33.0292 27.64H25.4826Z" fill="#333333"/>
</svg>
