<svg width="40" height="40" viewBox="0 0 40 40" fill="none" xmlns="http://www.w3.org/2000/svg">
<g clip-path="url(#clip0)">
<circle cx="20" cy="20" r="10" fill="white"/>
<path d="M37.2725 10.0271C37.071 9.68058 36.6267 9.56301 36.2802 9.76448L32.7361 11.8132C32.3896 12.0147 32.272 12.459 32.4735 12.8055C32.6749 13.152 33.1192 13.2695 33.4657 13.0681L37.0099 11.0194C37.3564 10.8178 37.474 10.3736 37.2725 10.0271Z" fill="#333333"/>
<path d="M37.0099 28.9848L33.4657 26.9361C33.1192 26.7346 32.6749 26.8522 32.4735 27.1987C32.272 27.5452 32.3896 27.9895 32.7361 28.191L36.2802 30.2397C36.6267 30.4412 37.071 30.3236 37.2725 29.9771C37.474 29.6305 37.3564 29.1863 37.0099 28.9848Z" fill="#333333"/>
<path d="M20.0572 34.3412C19.6553 34.3113 19.3053 34.6129 19.2755 35.0148C19.2728 35.0508 19.2728 35.0869 19.2755 35.1229V39.2163C19.2456 39.6182 19.5472 39.9681 19.9491 39.998C20.3511 40.0278 20.701 39.7262 20.7308 39.3243C20.7335 39.2883 20.7335 39.2523 20.7308 39.2163V35.1229C20.7606 34.721 20.459 34.371 20.0572 34.3412Z" fill="#333333"/>
<path d="M7.26772 11.8132L3.72356 9.76448C3.37706 9.56301 2.93274 9.68058 2.73127 10.0271C2.52981 10.3736 2.64738 10.8179 2.99388 11.0194L6.53804 13.0681C6.88453 13.2695 7.32886 13.152 7.53032 12.8055C7.73179 12.4589 7.61421 12.0147 7.26772 11.8132Z" fill="#333333"/>
<path d="M20.0572 0.0020403C19.6552 -0.0278285 19.3053 0.273766 19.2755 0.675692C19.2728 0.711674 19.2728 0.747757 19.2755 0.78374V4.87717C19.2777 5.27699 19.6013 5.60063 20.0011 5.60284C20.4042 5.60284 20.7308 5.27619 20.7308 4.87316V0.783841C20.7606 0.381915 20.459 0.0319091 20.0572 0.0020403Z" fill="#333333"/>
<path d="M13.066 6.53706L11.0213 2.9929C10.8199 2.6464 10.3755 2.52883 10.029 2.7303C9.68254 2.93176 9.56497 3.37608 9.76643 3.72258L11.8111 7.26674C12.0126 7.61324 12.4569 7.73081 12.8034 7.52934C13.1499 7.32778 13.2675 6.88356 13.066 6.53706Z" fill="#333333"/>
<path d="M20.1103 13.5252C20.0743 13.5225 20.0382 13.5225 20.0023 13.5252C16.4262 13.5252 13.5273 16.4241 13.5273 20.0001C13.5273 20.4032 13.854 20.7298 14.257 20.7298C14.6584 20.7276 14.9827 20.4016 14.9827 20.0001C14.9805 17.2302 17.2243 14.9828 19.9942 14.9806C19.9969 14.9806 19.9996 14.9806 20.0023 14.9806C20.4042 15.0104 20.7541 14.7088 20.784 14.3069C20.8138 13.905 20.5122 13.555 20.1103 13.5252Z" fill="#333333"/>
<path d="M39.8907 19.944C39.8639 19.5837 39.5774 19.2971 39.217 19.2704H35.1236C34.7217 19.2405 34.3718 19.5421 34.3419 19.944C34.312 20.3459 34.6136 20.6958 35.0155 20.7257C35.0515 20.7284 35.0877 20.7284 35.1237 20.7257H39.2171C39.6189 20.6959 39.9205 20.3459 39.8907 19.944Z" fill="#333333"/>
<path d="M4.98654 19.2745C4.95056 19.2718 4.91447 19.2718 4.87849 19.2745H0.785066C0.383141 19.3044 0.0815465 19.6544 0.111415 20.0562C0.138177 20.4165 0.424636 20.7031 0.785066 20.7298H4.87849C5.28042 20.7597 5.63032 20.4581 5.66019 20.0562C5.69006 19.6543 5.38846 19.3043 4.98654 19.2745Z" fill="#333333"/>
<path d="M20.0031 9.2915C14.0889 9.2907 9.29387 14.0844 9.29297 19.9987C9.29257 22.8399 10.4214 25.5649 12.4307 27.5736C14.4362 29.5841 17.1604 30.7124 20.0001 30.7088C25.9143 30.7096 30.7095 25.9159 30.7103 20.0017C30.7111 14.0874 25.9173 9.29231 20.0031 9.2915ZM26.5432 26.5553C22.9296 30.1689 17.0707 30.1689 13.4571 26.5553C11.7188 24.817 10.7436 22.4584 10.7468 20.0002C10.7433 17.5453 11.7188 15.1904 13.4571 13.4571V13.4691C17.0707 9.8555 22.9296 9.8555 26.5432 13.4691C30.1569 17.0827 30.1569 22.9416 26.5432 26.5553Z" fill="#333333"/>
<path d="M30.2399 36.2807C30.2393 36.2796 30.2387 36.2785 30.238 36.2775L28.1893 32.7334C27.9878 32.3869 27.5435 32.2693 27.197 32.4708C26.8505 32.6722 26.7329 33.1166 26.9344 33.4631L28.9831 37.0072C29.1838 37.3533 29.6268 37.4717 29.9734 37.2718C30.3207 37.0717 30.4401 36.6279 30.2399 36.2807Z" fill="#333333"/>
<path d="M29.9964 2.7303C29.6499 2.52883 29.2056 2.6464 29.0041 2.9929L26.9554 6.53706C26.7525 6.88276 26.8684 7.32738 27.214 7.53015C27.2147 7.53055 27.2153 7.53095 27.216 7.53135C27.5622 7.73322 28.0065 7.61625 28.2084 7.26995C28.209 7.26885 28.2097 7.26774 28.2103 7.26674L30.259 3.72258C30.4604 3.37598 30.3429 2.93176 29.9964 2.7303Z" fill="#333333"/>
<path d="M12.8074 32.4708C12.4609 32.2693 12.0166 32.3869 11.8151 32.7334L9.76643 36.2775C9.56497 36.624 9.68254 37.0683 10.029 37.2698C10.3755 37.4713 10.8199 37.3537 11.0213 37.0072L13.07 33.4631C13.2715 33.1165 13.1539 32.6722 12.8074 32.4708Z" fill="#333333"/>
<path d="M7.53032 27.1946C7.32886 26.8481 6.88453 26.7305 6.53804 26.932L2.99388 28.9807C2.64738 29.1821 2.52981 29.6265 2.73127 29.973C2.93274 30.3195 3.37706 30.437 3.72356 30.2356L7.26772 28.1868C7.61421 27.9853 7.73179 27.5411 7.53032 27.1946Z" fill="#333333"/>
</g>
<defs>
<clipPath id="clip0">
<rect width="40" height="40" fill="white"/>
</clipPath>
</defs>
</svg>
