<svg width="40" height="40" viewBox="0 0 40 40" fill="none" xmlns="http://www.w3.org/2000/svg">
<g clip-path="url(#clip0)">
<path d="M13.3346 39.0001L12.3346 37.3334H10.3346L7.66797 36.3334L5.66797 34.3334L4.33464 32.0001L0.667969 27.6667V23.0001L1.33464 15.0001L3.0013 10.3334L5.66797 7.00008L8.66797 4.00008L12.0013 2.33341L16.668 0.666748H21.668L26.0013 1.66675L31.0013 4.00008L34.668 7.00008L36.668 10.0001L38.668 15.0001L39.3346 21.0001V26.6667L38.668 28.6667L35.668 31.3334L34.668 33.6667L33.0013 36.0001L30.0013 37.3334H27.668L27.3346 38.0001L25.668 39.3334L24.0013 38.6667L23.3346 37.0001L28.3346 23.0001L29.3346 21.3334L31.0013 20.6667L32.668 22.0001V23.6667L34.668 25.0001L36.0013 27.0001L36.668 26.0001V20.0001L36.0013 15.0001L34.0013 11.0001L31.0013 7.33342L26.0013 4.66675L22.3346 3.33341H18.668L15.3346 4.00008L12.0013 5.33342L9.33464 7.33342L6.0013 10.6667L4.0013 15.0001L3.33464 19.0001V26.0001L4.0013 27.0001L6.33464 24.3334L7.0013 23.0001L8.0013 21.3334L9.66797 20.6667L11.0013 21.6667L15.3346 32.6667L16.668 38.0001L15.3346 39.3334L13.3346 39.0001Z" fill="white"/>
<path d="M38.206 11.7272V11.7259C33.635 1.67188 21.7791 -2.773 11.725 1.79803C7.32455 3.79863 3.79773 7.32553 1.79705 11.726C0.610695 14.3234 -0.00089808 17.1462 0.00393467 20.0017V26.2636C0.000768385 27.5017 0.493042 28.6896 1.3711 29.5625L4.06544 32.2575L4.4314 33.2667C5.56068 36.2602 8.45033 38.2201 11.6492 38.1621C11.7892 38.1621 11.9312 38.1448 12.0725 38.1381L12.1058 38.2301C12.6097 39.6228 14.1473 40.3433 15.54 39.8393H15.5401L15.6494 39.8C17.0416 39.2981 17.7633 37.7625 17.2613 36.3703C17.2613 36.3702 17.2612 36.3699 17.2612 36.3698L11.9812 21.7715C11.4734 20.3816 9.9384 19.6626 8.54557 20.1624L8.43758 20.2017C7.25414 20.6248 6.52673 21.8168 6.69179 23.0627C5.54535 23.8974 4.64237 25.0229 4.07611 26.323C4.03045 26.2335 4.00562 26.1348 4.00345 26.0343V20.0017C4.00345 11.1662 11.166 4.00368 20.0015 4.00368C28.837 4.00368 35.9996 11.1662 35.9996 20.0017V26.0343C35.9956 26.0817 35.9862 26.1284 35.9716 26.1737C35.4006 24.9356 34.5224 23.8643 33.4206 23.0614C33.5851 21.8163 32.8585 20.6252 31.6761 20.2017L31.5655 20.1617C30.1737 19.6626 28.6402 20.3817 28.1339 21.7709L22.8532 36.3691C22.3507 37.761 23.0717 39.2967 24.4636 39.7993L24.573 39.8393C25.9658 40.3417 27.5024 39.6215 28.0072 38.2295L28.0405 38.1376C28.1812 38.1442 28.3238 38.1615 28.4638 38.1615C31.6625 38.2196 34.5522 36.26 35.6816 33.2668L36.1089 32.0856L38.6319 29.5619C39.5098 28.6892 40.0021 27.5015 39.9991 26.2637V20.0017C40.0038 17.1466 39.3922 14.3243 38.206 11.7272ZM8.12762 22.1494C8.27843 21.8248 8.55348 21.5745 8.89086 21.4548L8.99885 21.4155C9.6996 21.1619 10.4733 21.5241 10.7273 22.2247L16.0073 36.823C16.2595 37.5214 15.8977 38.2919 15.1993 38.5441C15.1987 38.5443 15.1981 38.5445 15.1974 38.5448L15.0881 38.5841C14.3876 38.8365 13.6149 38.4746 13.3603 37.7748L13.1603 37.2169L8.08096 23.1739C7.95931 22.8398 7.97605 22.471 8.12762 22.1494ZM7.11041 24.4185V24.4158L11.6025 36.8289C9.18774 36.8568 6.97076 35.4979 5.89989 33.3333C5.91655 33.3333 5.93389 33.3333 5.95055 33.3333C5.96721 33.3333 5.98588 33.3333 6.00321 33.3333C6.06987 33.3333 6.12986 33.3206 6.19319 33.3146C6.25651 33.3086 6.30251 33.3086 6.35717 33.2993C6.44449 33.2826 6.53065 33.2604 6.61514 33.2326C6.66313 33.218 6.71112 33.2086 6.75779 33.1906C6.84719 33.1537 6.93385 33.1105 7.01709 33.0613C7.05642 33.0393 7.09774 33.0233 7.13574 32.9987C8.09879 32.3774 8.37592 31.0932 7.75475 30.1301C7.67401 30.005 7.58002 29.8888 7.47437 29.7837L5.08599 27.3934C5.47019 26.2324 6.17144 25.202 7.11041 24.4185ZM2.67028 20.0017V26.0343C2.66878 26.565 2.87975 27.0741 3.25621 27.4481L6.53181 30.7244C6.82378 31.0163 6.82378 31.4896 6.53181 31.7816C6.23985 32.0735 5.76657 32.0735 5.47461 31.7816L2.31366 28.6193C1.68648 27.996 1.33486 27.1477 1.33711 26.2636V20.0017C1.33277 17.4808 1.84355 14.9856 2.83826 12.6692H4.29542C3.22563 14.9656 2.67095 17.4682 2.67028 20.0017ZM20.0015 2.67043C13.8096 2.67176 8.08829 5.9747 4.99066 11.336H3.47018C8.25552 2.20599 19.5362 -1.31609 28.6661 3.46925C32.0271 5.23087 34.7713 7.97504 36.5329 11.336H35.0124C31.9147 5.97461 26.1934 2.67176 20.0015 2.67043ZM27.6786 35.2184L26.9553 37.2182L26.7554 37.7761C26.5017 38.4771 25.7278 38.8398 25.0268 38.5862C25.0267 38.5862 25.0264 38.5861 25.0262 38.586L24.9169 38.546C24.2177 38.2943 23.8548 37.5235 24.1064 36.8242L29.3871 22.226C29.6399 21.5259 30.4125 21.1633 31.1126 21.4162C31.1131 21.4163 31.1137 21.4166 31.1142 21.4167L31.2248 21.4567C31.9236 21.7079 32.2865 22.4779 32.0354 23.1767C32.0351 23.1773 32.035 23.1779 32.0347 23.1785L27.6786 35.2184ZM28.5138 36.8289L31.4595 28.6839L33.0026 24.4177C33.9193 25.1828 34.6106 26.1828 35.0024 27.3107L32.532 29.7817C31.7209 30.5948 31.7209 31.911 32.532 32.724C32.639 32.8299 32.7572 32.9238 32.8846 33.004C32.9266 33.0307 32.9706 33.0487 33.0139 33.0707C33.0998 33.1187 33.1888 33.1606 33.2806 33.196C33.3326 33.2153 33.3852 33.228 33.4386 33.2426C33.5243 33.268 33.6115 33.2878 33.6999 33.302C33.7565 33.31 33.8125 33.314 33.8692 33.318C33.9152 33.318 33.9598 33.3313 34.0025 33.3313C34.0452 33.3313 34.0831 33.322 34.1238 33.3193C34.1645 33.3166 34.1905 33.3233 34.2205 33.3193C33.1533 35.4909 30.9333 36.8561 28.5138 36.8289ZM38.6659 26.2636C38.6681 27.1479 38.3165 27.9964 37.6894 28.62L35.0624 31.2476L34.5291 31.7809C34.2371 32.0729 33.7639 32.0729 33.4719 31.7809C33.1799 31.4889 33.1799 31.0157 33.4719 30.7237L36.7475 27.4474C37.1233 27.0733 37.334 26.5645 37.3328 26.0343V20.0017C37.3321 17.4682 36.7775 14.9656 35.7076 12.6692H37.1648C38.1595 14.9856 38.6703 17.4808 38.6659 20.0017V26.2636Z" fill="#333333"/>
</g>
<defs>
<clipPath id="clip0">
<rect width="40" height="40" fill="white"/>
</clipPath>
</defs>
</svg>
