<svg width="75" height="34" viewBox="0 0 75 34" fill="none" xmlns="http://www.w3.org/2000/svg">
<path d="M68.6979 19.6884C70.816 13.8955 73.3486 8.22527 74.1601 2.01468C74.2563 1.37481 73.5368 0.60237 72.9002 1.02023C67.6417 3.92545 62.37 6.71793 57.5924 10.3095C56.8067 10.9163 57.3042 12.2293 58.3188 12.1098C60.2353 11.8841 62.1651 11.7712 64.0584 11.834C56.5724 21.0592 44.3955 31.8349 28.9431 30.3365C18.8365 29.3565 12.6858 26.7792 3.70364 21.9554C-1.63399 19.0889 0.563784 22.0224 2.66548 23.4483C6.39591 25.9792 9.46647 27.7587 14.2642 29.5314C23.841 33.0699 31.816 34.1252 40.292 31.9861C51.4199 29.1778 61.1344 19.0361 65.1359 13.7072C65.4876 15.7231 66.0647 17.7125 66.8541 19.5626C67.1859 20.438 68.4028 20.5804 68.6979 19.6884ZM66.3095 11.0545C66.0309 10.6302 65.6298 10.6203 65.255 10.8358C65.255 10.8358 65.255 10.8358 65.1424 10.8491C63.8857 10.3685 62.6057 10.1763 61.3391 10.0969C64.7209 7.75559 68.368 5.72591 71.9024 3.70952C71.1038 8.08972 69.4132 12.1749 67.8984 16.2966C67.5101 14.4563 67.185 12.6658 66.3095 11.0545Z" fill="#333333"/>
</svg>
