<svg width="10" height="18" viewBox="0 0 10 18" fill="none" xmlns="http://www.w3.org/2000/svg">
<path d="M0.271513 9.1749L7.84631 16.7496C8.02151 16.9249 8.25538 17.0215 8.50475 17.0215C8.75412 17.0215 8.98799 16.9249 9.16318 16.7496L9.72102 16.1919C10.084 15.8285 10.084 15.2378 9.72102 14.875L3.36027 8.51425L9.72807 2.14645C9.90327 1.97112 10 1.73738 10 1.48815C10 1.23864 9.90327 1.00491 9.72807 0.829437L9.17024 0.271883C8.99491 0.0965481 8.76117 -4.38296e-05 8.5118 -4.38217e-05C8.26243 -4.38138e-05 8.02856 0.0965481 7.85337 0.271883L0.271513 7.85346C0.0959022 8.02935 -0.000552456 8.26419 1.63692e-06 8.51383C-0.00055244 8.76445 0.0959022 8.99915 0.271513 9.1749Z" fill="#333333"/>
</svg>
