<svg width="20" height="12" viewBox="0 0 20 12" fill="none" xmlns="http://www.w3.org/2000/svg">
<path d="M10.7804 11.6742L19.6805 2.58443C19.8865 2.37419 20 2.09355 20 1.7943C20 1.49506 19.8865 1.21441 19.6805 1.00418L19.0252 0.334782C18.5982 -0.1008 17.9042 -0.1008 17.4779 0.334782L10.0041 7.96767L2.52209 0.326312C2.31608 0.116077 2.04145 -7.74596e-07 1.7486 -7.87227e-07C1.45543 -7.99872e-07 1.1808 0.116077 0.974625 0.326312L0.319508 0.995709C0.113495 1.20611 -6.58532e-08 1.48659 -7.91091e-08 1.78583C-9.23651e-08 2.08508 0.113495 2.36572 0.319507 2.57596L9.22773 11.6742C9.43439 11.8849 9.71033 12.0007 10.0037 12C10.2981 12.0007 10.5739 11.8849 10.7804 11.6742Z" fill="#333333"/>
</svg>
