<svg width="10" height="18" viewBox="0 0 10 18" fill="none" xmlns="http://www.w3.org/2000/svg">
<path d="M9.72849 7.84658L2.15369 0.271927C1.97849 0.0965929 1.74462 0 1.49525 0C1.24588 0 1.01201 0.0965929 0.836816 0.271927L0.278985 0.82962C-0.0839998 1.19302 -0.0839998 1.78365 0.278985 2.14649L6.63973 8.50723L0.271927 14.875C0.0967313 15.0504 0 15.2841 0 15.5333C0 15.7828 0.0967313 16.0166 0.271927 16.192L0.829758 16.7496C1.00509 16.9249 1.23883 17.0215 1.4882 17.0215C1.73757 17.0215 1.97144 16.9249 2.14663 16.7496L9.72849 9.16803C9.9041 8.99214 10.0006 8.7573 10 8.50765C10.0006 8.25703 9.9041 8.02233 9.72849 7.84658Z" fill="#333333"/>
</svg>
