<svg width="18" height="10" viewBox="0 0 18 10" fill="none" xmlns="http://www.w3.org/2000/svg">
<path d="M9.17685 9.72849L16.7515 2.15369C16.9268 1.97849 17.0234 1.74462 17.0234 1.49525C17.0234 1.24588 16.9268 1.01201 16.7515 0.836816L16.1938 0.278985C15.8304 -0.0839998 15.2398 -0.0839998 14.8769 0.278985L8.5162 6.63973L2.1484 0.271926C1.97307 0.0967307 1.73934 -6.68089e-07 1.4901 -6.78984e-07C1.2406 -6.8989e-07 1.00686 0.0967306 0.83139 0.271926L0.273836 0.829758C0.0985012 1.00509 0.0019092 1.23882 0.00190919 1.48819C0.00190918 1.73757 0.0985011 1.97144 0.273836 2.14663L7.85541 9.72849C8.0313 9.9041 8.26614 10.0006 8.51579 10C8.7664 10.0006 9.0011 9.9041 9.17685 9.72849Z" fill="#333333"/>
</svg>
