<svg width="18" height="10" viewBox="0 0 18 10" fill="none" xmlns="http://www.w3.org/2000/svg">
<path d="M7.84658 0.271513L0.271927 7.84631C0.096593 8.02151 2.08044e-08 8.25538 1.78307e-08 8.50475C1.4857e-08 8.75412 0.0965929 8.98799 0.271927 9.16318L0.82962 9.72102C1.19302 10.084 1.78365 10.084 2.14649 9.72102L8.50723 3.36027L14.875 9.72807C15.0504 9.90327 15.2841 10 15.5333 10C15.7828 10 16.0166 9.90327 16.192 9.72807L16.7496 9.17024C16.9249 8.99491 17.0215 8.76117 17.0215 8.5118C17.0215 8.26243 16.9249 8.02856 16.7496 7.85337L9.16803 0.271513C8.99214 0.0959026 8.7573 -0.000552073 8.50765 2.0088e-06C8.25703 -0.000552079 8.02233 0.0959025 7.84658 0.271513Z" fill="#333333"/>
</svg>
