<svg width="30" height="24" viewBox="0 0 30 24" fill="none" xmlns="http://www.w3.org/2000/svg">
<path d="M28.646 3.40553H27.34V2.43545C27.34 1.8498 26.966 1.33283 26.4093 1.14914C25.9852 1.00928 25.2759 0.809941 24.3053 0.655078C23.2687 0.489609 22.1399 0.405762 20.9498 0.405762C17.5512 0.405762 15.5964 1.08311 15.0001 1.32826C14.4038 1.08311 12.4489 0.405762 9.05033 0.405762C6.26074 0.405762 4.43244 0.871582 3.59086 1.1492C3.03416 1.33289 2.66016 1.8498 2.66016 2.43551V3.40559H1.3541C0.607441 3.40559 0 4.01303 0 4.75969V22.2401C0 22.9868 0.607441 23.5942 1.3541 23.5942H14.9998H15H15.0002H21.9572C22.2004 23.5942 22.3975 23.3971 22.3975 23.1539C22.3975 22.9107 22.2004 22.7136 21.9572 22.7136H15.4406V21.2494C16.0627 21.0102 17.8784 20.4347 20.9497 20.4347C23.3757 20.4347 25.0241 20.7882 25.9798 21.0847C26.3015 21.1845 26.6417 21.1273 26.9129 20.9274C27.1843 20.7275 27.3399 20.4195 27.3399 20.0823V18.7782V4.28619H28.6459C28.907 4.28619 29.1193 4.49859 29.1193 4.75969V22.2401C29.1193 22.5012 28.907 22.7136 28.6459 22.7136H23.7184C23.4752 22.7136 23.2781 22.9107 23.2781 23.154C23.2781 23.3971 23.4752 23.5943 23.7184 23.5943H28.6459C29.3926 23.5943 29.9999 22.9869 29.9999 22.2402V4.75963C30 4.01297 29.3926 3.40553 28.646 3.40553ZM24.1665 1.52467C25.0793 1.67033 25.7399 1.85566 26.1333 1.98539C26.3283 2.04973 26.4594 2.23061 26.4594 2.43539V18.1342C25.5716 17.8351 23.7505 17.3748 20.9498 17.3748C18.1488 17.3748 16.3282 17.835 15.4406 18.1341V2.10217C16.0674 1.86322 17.8968 1.28631 20.9498 1.28631C22.0934 1.28637 23.1757 1.36652 24.1665 1.52467ZM3.5407 19.0714C4.1673 18.8326 5.99689 18.2555 9.05027 18.2555C12.1039 18.2555 13.9335 18.8327 14.5599 19.0715V20.3135C13.6724 20.0144 11.8518 19.554 9.05027 19.554C6.51398 19.554 4.77305 19.929 3.7592 20.2436C3.62373 20.2646 3.56086 20.218 3.5407 20.0822V19.0714ZM3.5407 2.43545C3.5407 2.23066 3.67172 2.04979 3.86672 1.98545C4.65809 1.72436 6.38385 1.28637 9.05027 1.28637C12.1049 1.28637 13.9346 1.86387 14.5599 2.10229V18.1344C13.6724 17.8352 11.8518 17.3749 9.05027 17.3749C6.24955 17.3749 4.42846 17.8351 3.5407 18.1342V2.43545ZM0.880605 22.24V4.75963C0.880605 4.49854 1.09301 4.28613 1.3541 4.28613H2.6601V18.7781V20.0822C2.6601 20.4194 2.81572 20.7275 3.08707 20.9273C3.35824 21.1271 3.69832 21.1845 4.02018 21.0846C4.97584 20.7881 6.62432 20.4346 9.05027 20.4346C11.0526 20.4346 12.5112 20.6844 13.3823 20.8938C13.9374 21.0273 14.3294 21.1614 14.5599 21.2499V22.7135H1.3541C1.09301 22.7135 0.880605 22.5011 0.880605 22.24ZM26.3906 20.2184C26.3651 20.2372 26.3115 20.2656 26.2408 20.2436C25.2269 19.929 23.486 19.5541 20.9497 19.5541C18.1488 19.5541 16.3281 20.0143 15.4406 20.3134V19.0714C16.0673 18.8324 17.8967 18.2556 20.9497 18.2556C24.004 18.2556 25.8338 18.833 26.4593 19.0714V20.0824C26.4593 20.1567 26.4162 20.1995 26.3906 20.2184Z" fill="#333333"/>
<path d="M17.6625 4.7366C17.6855 4.7366 17.7089 4.73478 17.7325 4.73103C18.1187 4.66933 18.5238 4.61888 18.9364 4.58103C19.1786 4.55882 19.3568 4.34449 19.3346 4.10232C19.3123 3.86015 19.0981 3.68156 18.8559 3.70406C18.4238 3.74373 17.9991 3.79664 17.5936 3.86139C17.3534 3.89976 17.1899 4.12547 17.2282 4.36564C17.2629 4.58226 17.4499 4.7366 17.6625 4.7366Z" fill="#333333"/>
<path d="M20.948 4.49248C22.0903 4.49248 23.1724 4.57281 24.1647 4.73131C24.3995 4.77045 24.6316 4.60733 24.669 4.36592C24.7073 4.1258 24.5437 3.90004 24.3036 3.86166C23.2656 3.6959 22.1366 3.61182 20.9481 3.61182C20.7049 3.61182 20.5078 3.80893 20.5078 4.05215C20.5077 4.29537 20.7048 4.49248 20.948 4.49248Z" fill="#333333"/>
<path d="M17.6624 6.91596C17.6854 6.91596 17.7088 6.91414 17.7324 6.91039C18.7244 6.75195 19.8066 6.67162 20.9489 6.67162C22.0921 6.67162 23.1743 6.75189 24.1656 6.91016C24.4058 6.94859 24.6314 6.78488 24.6698 6.54477C24.7082 6.30465 24.5445 6.07889 24.3044 6.04057C23.2674 5.87498 22.1384 5.79102 20.9489 5.79102C19.7603 5.79102 18.6314 5.8751 17.5936 6.0408C17.3534 6.07918 17.1899 6.30494 17.2282 6.54506C17.2627 6.76162 17.4498 6.91596 17.6624 6.91596Z" fill="#333333"/>
<path d="M17.6624 9.09516C17.6854 9.09516 17.7088 9.09334 17.7324 9.08959C18.7245 8.93115 19.8067 8.85082 20.9489 8.85082C22.0919 8.85082 23.1741 8.93104 24.1656 9.0893C24.4058 9.12768 24.6314 8.96402 24.6698 8.72391C24.7082 8.48379 24.5445 8.25803 24.3044 8.21971C23.2672 8.05418 22.1383 7.97021 20.9489 7.97021C19.7604 7.97021 18.6315 8.05424 17.5936 8.22C17.3534 8.25838 17.1899 8.48408 17.2282 8.72426C17.2627 8.94088 17.4498 9.09516 17.6624 9.09516Z" fill="#333333"/>
<path d="M17.6624 11.2744C17.6854 11.2744 17.7088 11.2725 17.7324 11.2688C18.7244 11.1104 19.8066 11.03 20.9489 11.03C22.092 11.03 23.1742 11.1102 24.1656 11.2685C24.4058 11.3068 24.6314 11.1432 24.6698 10.9031C24.7082 10.663 24.5445 10.4372 24.3044 10.3989C23.2673 10.2333 22.1384 10.1494 20.9489 10.1494C19.7603 10.1494 18.6314 10.2334 17.5936 10.3992C17.3534 10.4376 17.1899 10.6633 17.2282 10.9035C17.2627 11.12 17.4498 11.2744 17.6624 11.2744Z" fill="#333333"/>
<path d="M24.3044 12.5777C23.2674 12.4121 22.1384 12.3281 20.9489 12.3281C19.7603 12.3281 18.6314 12.4121 17.5936 12.5779C17.3534 12.6163 17.1899 12.842 17.2282 13.0822C17.2655 13.3235 17.4977 13.4867 17.7325 13.4475C18.7245 13.2891 19.8067 13.2087 20.949 13.2087C22.0922 13.2087 23.1744 13.289 24.1657 13.4473C24.406 13.4858 24.6315 13.322 24.6699 13.0819C24.7082 12.8418 24.5445 12.6161 24.3044 12.5777Z" fill="#333333"/>
<path d="M20.9489 14.5073C19.7604 14.5073 18.6315 14.5913 17.5936 14.7571C17.3535 14.7955 17.1899 15.0212 17.2282 15.2614C17.2654 15.5028 17.4977 15.6659 17.7325 15.6268C18.7246 15.4683 19.8068 15.388 20.949 15.388C21.1922 15.388 21.3893 15.1909 21.3893 14.9477C21.3893 14.7045 21.1921 14.5073 20.9489 14.5073Z" fill="#333333"/>
<path d="M5.47879 11.1685C5.57682 11.2521 5.70666 11.2887 5.83393 11.2683C6.71506 11.1276 7.67102 11.0484 8.67508 11.0327C8.91824 11.0289 9.11225 10.8287 9.1085 10.5856C9.10469 10.3424 8.90271 10.1492 8.66143 10.1522C7.80549 10.1655 6.98154 10.2235 6.20488 10.3248V4.67617C7.09387 4.55418 8.04918 4.49242 9.05066 4.49242C10.052 4.49242 11.0072 4.55418 11.8962 4.67617V10.3251C11.4321 10.2645 10.9503 10.2192 10.4579 10.19C10.2147 10.1762 10.0067 10.3606 9.99227 10.6034C9.97785 10.8462 10.1629 11.0546 10.4057 11.069C11.0521 11.1074 11.6783 11.1745 12.2671 11.2686C12.5249 11.3164 12.7834 11.0966 12.7768 10.8337V4.29643C12.7768 4.08004 12.6196 3.8957 12.4059 3.8616C11.3679 3.69584 10.2391 3.61182 9.0506 3.61182C7.86203 3.61182 6.73305 3.69584 5.69512 3.86166C5.48143 3.89582 5.32422 4.0801 5.32422 4.29648V10.8336C5.32422 10.9624 5.3807 11.0849 5.47879 11.1685Z" fill="#333333"/>
<path d="M12.406 12.5779C11.3682 12.4121 10.2393 12.3281 9.05066 12.3281C7.86115 12.3281 6.73217 12.4121 5.69518 12.5777C5.45506 12.6161 5.29147 12.8418 5.32979 13.0819C5.36816 13.322 5.59387 13.4855 5.83404 13.4473C6.82527 13.2891 7.9075 13.2088 9.05072 13.2088C10.193 13.2088 11.2752 13.2891 12.2672 13.4476C12.5019 13.4867 12.7342 13.3236 12.7714 13.0822C12.8097 12.842 12.6461 12.6162 12.406 12.5779Z" fill="#333333"/>
<path d="M12.406 14.7571C11.3681 14.5914 10.2392 14.5073 9.05066 14.5073C7.86133 14.5073 6.73234 14.5912 5.69518 14.7568C5.45506 14.7951 5.29147 15.0209 5.32979 15.261C5.36811 15.5011 5.59387 15.6648 5.83398 15.6264C6.82545 15.4681 7.90768 15.3879 9.05066 15.3879C10.1928 15.3879 11.275 15.4683 12.2671 15.6267C12.5018 15.6658 12.7341 15.5027 12.7714 15.2613C12.8097 15.0212 12.6462 14.7955 12.406 14.7571Z" fill="#333333"/>
</svg>
