<svg width="60" height="60" viewBox="0 0 60 60" fill="none" xmlns="http://www.w3.org/2000/svg">
<path d="M51 4.5V55.5L49 57.5H11.5L9.5 55.5V4.5L11.5 2.5H12.5H49L51 4.5Z" fill="url(#paint0_linear)"/>
<path d="M51.0811 35.2054C50.866 35.2054 50.6598 35.12 50.5078 34.9679C50.3557 34.8159 50.2703 34.6096 50.2703 34.3946V32.0351C50.2703 31.8201 50.3557 31.6139 50.5078 31.4618C50.6598 31.3098 50.866 31.2243 51.0811 31.2243C51.2961 31.2243 51.5024 31.3098 51.6544 31.4618C51.8065 31.6139 51.8919 31.8201 51.8919 32.0351V34.3946C51.8919 34.6096 51.8065 34.8159 51.6544 34.9679C51.5024 35.12 51.2961 35.2054 51.0811 35.2054Z" fill="#333333"/>
<path d="M48.6487 58.3784H12.1622C11.302 58.3784 10.4771 58.0367 9.86884 57.4285C9.26061 56.8202 8.91891 55.9953 8.91891 55.1351V4.86487C8.91891 4.00471 9.26061 3.17977 9.86884 2.57155C10.4771 1.96332 11.302 1.62162 12.1622 1.62162H48.6487C49.5088 1.62162 50.3337 1.96332 50.942 2.57155C51.5502 3.17977 51.8919 4.00471 51.8919 4.86487V18.2757C51.8919 18.4907 51.8065 18.697 51.6544 18.849C51.5024 19.0011 51.2961 19.0865 51.0811 19.0865C50.866 19.0865 50.6598 19.0011 50.5078 18.849C50.3557 18.697 50.2703 18.4907 50.2703 18.2757V4.86487C50.2703 4.43479 50.0994 4.02232 49.7953 3.71821C49.4912 3.41409 49.0787 3.24325 48.6487 3.24325H12.1622C11.7321 3.24325 11.3196 3.41409 11.0155 3.71821C10.7114 4.02232 10.5405 4.43479 10.5405 4.86487V55.1351C10.5405 55.5652 10.7114 55.9777 11.0155 56.2818C11.3196 56.5859 11.7321 56.7568 12.1622 56.7568H48.6487C49.0787 56.7568 49.4912 56.5859 49.7953 56.2818C50.0994 55.9777 50.2703 55.5652 50.2703 55.1351V40.0703C50.2703 39.8552 50.3557 39.649 50.5078 39.4969C50.6598 39.3449 50.866 39.2595 51.0811 39.2595C51.2961 39.2595 51.5024 39.3449 51.6544 39.4969C51.8065 39.649 51.8919 39.8552 51.8919 40.0703V55.1351C51.8919 55.9953 51.5502 56.8202 50.942 57.4285C50.3337 58.0367 49.5088 58.3784 48.6487 58.3784Z" fill="#333333"/>
<path d="M51.0811 27.1703C50.866 27.1703 50.6598 27.0848 50.5078 26.9328C50.3557 26.7807 50.2703 26.5745 50.2703 26.3595V23.9514C50.2703 23.7363 50.3557 23.5301 50.5078 23.378C50.6598 23.226 50.866 23.1405 51.0811 23.1405C51.2961 23.1405 51.5024 23.226 51.6544 23.378C51.8065 23.5301 51.8919 23.7363 51.8919 23.9514V26.3595C51.8919 26.5745 51.8065 26.7807 51.6544 26.9328C51.5024 27.0848 51.2961 27.1703 51.0811 27.1703Z" fill="#333333"/>
<path d="M45 18.0746H15.8108C15.3807 18.0746 14.9683 17.9037 14.6641 17.5996C14.36 17.2955 14.1892 16.8831 14.1892 16.453V8.68216C14.1892 8.25208 14.36 7.83962 14.6641 7.5355C14.9683 7.23139 15.3807 7.06054 15.8108 7.06054H45C45.4301 7.06054 45.8425 7.23139 46.1467 7.5355C46.4508 7.83962 46.6216 8.25208 46.6216 8.68216V16.453C46.6216 16.8831 46.4508 17.2955 46.1467 17.5996C45.8425 17.9037 45.4301 18.0746 45 18.0746ZM15.8108 8.68216V16.453H45V8.68216H15.8108Z" fill="#333333"/>
<path d="M20.6757 31.0476H15.8108C15.3807 31.0476 14.9683 30.8767 14.6641 30.5726C14.36 30.2685 14.1892 29.856 14.1892 29.4259V24.5611C14.1892 24.131 14.36 23.7185 14.6641 23.4144C14.9683 23.1103 15.3807 22.9395 15.8108 22.9395H20.6757C21.1058 22.9395 21.5182 23.1103 21.8223 23.4144C22.1265 23.7185 22.2973 24.131 22.2973 24.5611V29.4259C22.2973 29.856 22.1265 30.2685 21.8223 30.5726C21.5182 30.8767 21.1058 31.0476 20.6757 31.0476ZM15.8108 24.5611V29.4259H20.6757V24.5611H15.8108Z" fill="#333333"/>
<path d="M32.8378 31.0476H27.973C27.5429 31.0476 27.1304 30.8767 26.8263 30.5726C26.5222 30.2685 26.3513 29.856 26.3513 29.4259V24.5611C26.3513 24.131 26.5222 23.7185 26.8263 23.4144C27.1304 23.1103 27.5429 22.9395 27.973 22.9395H32.8378C33.2679 22.9395 33.6804 23.1103 33.9845 23.4144C34.2886 23.7185 34.4594 24.131 34.4594 24.5611V29.4259C34.4594 29.856 34.2886 30.2685 33.9845 30.5726C33.6804 30.8767 33.2679 31.0476 32.8378 31.0476ZM27.973 24.5611V29.4259H32.8378V24.5611H27.973Z" fill="#333333"/>
<path d="M45 31.0476H40.1351C39.7051 31.0476 39.2926 30.8767 38.9885 30.5726C38.6844 30.2685 38.5135 29.856 38.5135 29.4259V24.5611C38.5135 24.131 38.6844 23.7185 38.9885 23.4144C39.2926 23.1103 39.7051 22.9395 40.1351 22.9395H45C45.4301 22.9395 45.8426 23.1103 46.1467 23.4144C46.4508 23.7185 46.6216 24.131 46.6216 24.5611V29.4259C46.6216 29.856 46.4508 30.2685 46.1467 30.5726C45.8426 30.8767 45.4301 31.0476 45 31.0476ZM40.1351 24.5611V29.4259H45V24.5611H40.1351Z" fill="#333333"/>
<path d="M20.6757 41.5881H15.8108C15.3807 41.5881 14.9683 41.4173 14.6641 41.1132C14.36 40.809 14.1892 40.3966 14.1892 39.9665V35.1016C14.1892 34.6715 14.36 34.2591 14.6641 33.955C14.9683 33.6509 15.3807 33.48 15.8108 33.48H20.6757C21.1058 33.48 21.5182 33.6509 21.8223 33.955C22.1265 34.2591 22.2973 34.6715 22.2973 35.1016V39.9665C22.2973 40.3966 22.1265 40.809 21.8223 41.1132C21.5182 41.4173 21.1058 41.5881 20.6757 41.5881ZM15.8108 35.1016V39.9665H20.6757V35.1016H15.8108Z" fill="#333333"/>
<path d="M32.8378 41.5881H27.973C27.5429 41.5881 27.1304 41.4173 26.8263 41.1132C26.5222 40.809 26.3513 40.3966 26.3513 39.9665V35.1016C26.3513 34.6715 26.5222 34.2591 26.8263 33.955C27.1304 33.6509 27.5429 33.48 27.973 33.48H32.8378C33.2679 33.48 33.6804 33.6509 33.9845 33.955C34.2886 34.2591 34.4594 34.6715 34.4594 35.1016V39.9665C34.4594 40.3966 34.2886 40.809 33.9845 41.1132C33.6804 41.4173 33.2679 41.5881 32.8378 41.5881ZM27.973 35.1016V39.9665H32.8378V35.1016H27.973Z" fill="#333333"/>
<path d="M20.6757 52.1287H15.8108C15.3807 52.1287 14.9683 51.9578 14.6641 51.6537C14.36 51.3496 14.1892 50.9371 14.1892 50.507V45.6422C14.1892 45.2121 14.36 44.7996 14.6641 44.4955C14.9683 44.1914 15.3807 44.0205 15.8108 44.0205H20.6757C21.1058 44.0205 21.5182 44.1914 21.8223 44.4955C22.1265 44.7996 22.2973 45.2121 22.2973 45.6422V50.507C22.2973 50.9371 22.1265 51.3496 21.8223 51.6537C21.5182 51.9578 21.1058 52.1287 20.6757 52.1287ZM15.8108 45.6422V50.507H20.6757V45.6422H15.8108Z" fill="#333333"/>
<path d="M32.8378 52.1287H27.973C27.5429 52.1287 27.1304 51.9578 26.8263 51.6537C26.5222 51.3496 26.3513 50.9371 26.3513 50.507V45.6422C26.3513 45.2121 26.5222 44.7996 26.8263 44.4955C27.1304 44.1914 27.5429 44.0205 27.973 44.0205H32.8378C33.2679 44.0205 33.6804 44.1914 33.9845 44.4955C34.2886 44.7996 34.4594 45.2121 34.4594 45.6422V50.507C34.4594 50.9371 34.2886 51.3496 33.9845 51.6537C33.6804 51.9578 33.2679 52.1287 32.8378 52.1287ZM27.973 45.6422V50.507H32.8378V45.6422H27.973Z" fill="#333333"/>
<path d="M45 52.1287H40.1351C39.7051 52.1287 39.2926 51.9578 38.9885 51.6537C38.6844 51.3496 38.5135 50.9371 38.5135 50.507V35.1016C38.5135 34.6715 38.6844 34.2591 38.9885 33.955C39.2926 33.6509 39.7051 33.48 40.1351 33.48H45C45.4301 33.48 45.8426 33.6509 46.1467 33.955C46.4508 34.2591 46.6216 34.6715 46.6216 35.1016V50.507C46.6216 50.9371 46.4508 51.3496 46.1467 51.6537C45.8426 51.9578 45.4301 52.1287 45 52.1287ZM45 35.1016H40.1351V50.507H45V35.1016Z" fill="#333333"/>
<defs>
<linearGradient id="paint0_linear" x1="9.5" y1="57.5" x2="51" y2="57.5" gradientUnits="userSpaceOnUse">
<stop stop-color="#FCB222"/>
<stop offset="1" stop-color="#FFDF00"/>
</linearGradient>
</defs>
</svg>
