<svg width="40" height="40" viewBox="0 0 40 40" fill="none" xmlns="http://www.w3.org/2000/svg">
<g clip-path="url(#clip0)">
<path d="M9.33464 10.9999C6.44575 18.4444 0.667969 33.3999 0.667969 33.6666L1.0013 34.6666L13.0013 39.3333L14.3346 38.9999L20.3346 23.6666L21.0013 22.3333L25.3346 38.6666L26.668 39.6666L38.668 36.3333L39.3346 35.3333L33.668 11.3333L26.0013 7.33325L25.0013 7.66659L19.668 14.3333L10.3346 10.9999H9.33464Z" fill="url(#paint0_linear)"/>
<path d="M8.19792 28.8407C8.31167 28.9508 8.45854 29.0056 8.60534 29.0056C8.75854 29.0056 8.91151 28.9459 9.02643 28.8272L15.5039 22.135C15.7289 21.9025 15.7229 21.5316 15.4903 21.3066C15.2578 21.0814 14.8867 21.0875 14.6619 21.3201L8.18448 28.0122C7.9594 28.2447 7.96542 28.6156 8.19792 28.8407V28.8407Z" fill="black"/>
<path d="M9.67046 23.789C9.90374 23.88 10.1473 23.9252 10.3925 23.9252C10.7336 23.9252 11.0784 23.8378 11.4043 23.6646C11.9353 23.3824 12.3547 22.9014 12.5851 22.3103C13.0731 21.0586 12.5597 19.6852 11.4405 19.2488C10.3215 18.8127 9.01374 19.476 8.52585 20.7276C8.29538 21.3188 8.27851 21.9567 8.47843 22.5239C8.68937 23.1223 9.11273 23.5716 9.67046 23.789V23.789ZM9.61765 21.1534C9.82374 20.6249 10.2768 20.2853 10.7169 20.2853C10.8179 20.2853 10.9183 20.3032 11.0148 20.3407C11.5319 20.5424 11.7465 21.2349 11.4933 21.8846C11.3647 22.2146 11.1377 22.4792 10.8543 22.6299C10.6001 22.7649 10.3309 22.7889 10.096 22.6972C9.86124 22.6057 9.67921 22.4059 9.58351 22.1344C9.47702 21.8317 9.48906 21.4832 9.61765 21.1534V21.1534Z" fill="black"/>
<path d="M13.8414 26.4878C13.2835 26.2702 12.6678 26.3144 12.1075 26.6122C11.5765 26.8944 11.1572 27.3754 10.9267 27.9665C10.4387 29.2182 10.9521 30.5916 12.0713 31.0279C12.3046 31.1189 12.5461 31.1621 12.7867 31.1621C13.7 31.1621 14.5997 30.5399 14.9859 29.5492C15.2164 28.958 15.2332 28.3201 15.0333 27.7529C14.8225 27.1545 14.3992 26.7052 13.8414 26.4878V26.4878ZM13.8942 29.1234C13.6408 29.7731 13.0141 30.1376 12.497 29.9361C11.9799 29.7344 11.7653 29.0418 12.0185 28.3922C12.1471 28.0622 12.3741 27.7975 12.6575 27.6469C12.8101 27.5658 12.9682 27.5248 13.121 27.5248C13.2227 27.5248 13.3219 27.5429 13.4157 27.5795C13.6505 27.6711 13.8325 27.8709 13.9282 28.1424C14.0349 28.4452 14.0228 28.7936 13.8942 29.1234Z" fill="black"/>
<path d="M29.7822 20.7689L28.3005 29.9637C28.249 30.2832 28.4663 30.5839 28.7858 30.6354C28.8173 30.6405 28.8487 30.643 28.8797 30.643C29.1622 30.643 29.4111 30.4382 29.4575 30.1502L30.9391 20.9554C30.9906 20.6358 30.7733 20.3352 30.4539 20.2836C30.134 20.2313 29.8336 20.4494 29.7822 20.7689Z" fill="black"/>
<path d="M28.6469 22.7693C28.4976 22.1526 28.1463 21.62 27.6578 21.2693C27.1425 20.8994 26.5382 20.7732 25.9564 20.9141C24.7889 21.1968 24.0963 22.489 24.4124 23.7949C24.5617 24.4115 24.913 24.9443 25.4015 25.2949C25.7794 25.5662 26.2049 25.7064 26.6345 25.7064C26.7909 25.7064 26.9478 25.6878 27.1031 25.6501C27.6849 25.5092 28.1646 25.1206 28.4537 24.5557C28.7276 24.0205 28.7963 23.3861 28.6469 22.7693ZM27.4105 24.0219C27.2794 24.2781 27.0723 24.4518 26.8273 24.5112C26.5825 24.5706 26.3186 24.5108 26.0849 24.3429C25.8242 24.1557 25.6347 23.8632 25.5514 23.5191C25.3873 22.8413 25.6927 22.1836 26.2321 22.053C26.2939 22.0381 26.3568 22.0307 26.4201 22.0307C26.6081 22.0307 26.7996 22.0957 26.9745 22.2212C27.2352 22.4084 27.4246 22.701 27.508 23.0452C27.5913 23.3894 27.5567 23.7362 27.4105 24.0219V24.0219Z" fill="black"/>
<path d="M30.5265 28.3561C30.801 29.4899 31.747 30.2667 32.7558 30.2666C32.9088 30.2666 33.0634 30.2487 33.2172 30.2114C34.3846 29.9287 35.0772 28.6364 34.7609 27.3307C34.4448 26.025 33.2378 25.1925 32.0703 25.4753C31.4884 25.6163 31.0088 26.0049 30.7197 26.5697C30.4458 27.1049 30.3771 27.7394 30.5265 28.3561V28.3561ZM31.7629 27.1035C31.894 26.8474 32.1011 26.6736 32.346 26.6142C32.4095 26.5989 32.4733 26.5915 32.537 26.5915C33.0144 26.5915 33.4772 27.0085 33.622 27.6065C33.7862 28.2842 33.4808 28.9418 32.9414 29.0725C32.4022 29.2025 31.8295 28.7582 31.6654 28.0803C31.5821 27.7361 31.6167 27.3892 31.7629 27.1035V27.1035Z" fill="black"/>
<path d="M39.9383 34.5983L34.4528 11.9462C34.3048 11.3353 33.9005 10.8181 33.3433 10.5272L32.2016 9.93098C31.9147 9.78129 31.5609 9.8923 31.411 10.1792C31.2613 10.4661 31.3723 10.82 31.6592 10.9698L32.8009 11.566C33.0585 11.7005 33.2455 11.9396 33.3139 12.2221L38.7994 34.874C38.9302 35.4142 38.5971 35.96 38.0571 36.0908L26.8714 38.7995C26.3308 38.9302 25.7855 38.5973 25.6547 38.0572L20.171 15.4126C20.1018 15.1271 20.1604 14.8265 20.3317 14.5879L24.7912 8.37058C25.2353 9.21566 25.5516 10.1773 25.6276 11.2512L25.4424 11.2961C25.1279 11.3722 24.9346 11.6889 25.0108 12.0034C25.0758 12.2717 25.3155 12.4516 25.5798 12.4516C25.6254 12.4516 25.6719 12.4462 25.7182 12.435L27.0209 12.1195C27.3355 12.0433 27.5287 11.7267 27.4525 11.4122C27.3791 11.1093 27.0833 10.9196 26.7801 10.9739C26.6819 9.94777 26.3892 8.9455 25.9112 7.98737C25.9693 8.00511 26.0264 8.02831 26.0818 8.0573L29.5719 9.87973C29.8588 10.0296 30.2127 9.91824 30.3626 9.63152C30.5123 9.34465 30.4012 8.99066 30.1144 8.84089L26.6242 7.01862C26.1796 6.78643 25.6833 6.72401 25.2162 6.81151C24.8142 6.22698 24.3389 5.66377 23.7921 5.12744C22.7204 4.07603 21.6572 3.39892 21.1403 3.09931V0.58594C21.1403 0.262267 20.878 0 20.5543 0C20.2307 0 19.9684 0.262267 19.9684 0.58594V3.14322C17.7804 4.75135 16.2165 7.37136 15.4372 10.7445C15.3292 11.2121 15.2431 11.6636 15.1741 12.0911L10.8196 10.3934C10.3949 10.2278 9.93141 10.2375 9.51414 10.4207C9.09687 10.6039 8.77593 10.9386 8.61047 11.3631L0.116606 33.1495C-0.225114 34.026 0.209887 35.017 1.0863 35.3587L5.12569 36.9334C5.19569 36.9608 5.26756 36.9737 5.33842 36.9737C5.57288 36.9737 5.79421 36.832 5.88444 36.6005C6.00202 36.299 5.85288 35.9592 5.55139 35.8417L1.512 34.2669C1.23755 34.1599 1.10138 33.8497 1.20833 33.5752L9.70219 11.7889C9.75406 11.656 9.85453 11.5511 9.98516 11.4939C10.1159 11.4365 10.261 11.4335 10.3938 11.4853L15.0152 13.287C14.956 13.854 14.9274 14.3426 14.9146 14.7208C14.6641 14.7015 14.4201 14.8461 14.3242 15.0922C14.2067 15.3937 14.3557 15.7334 14.6573 15.8509L15.2711 16.0902C15.2723 16.0907 15.2735 16.0911 15.2746 16.0915L15.9061 16.3378C15.9761 16.3651 16.048 16.378 16.1189 16.378C16.3533 16.378 16.5746 16.2364 16.6649 16.0048C16.7824 15.7033 16.6334 15.3636 16.3318 15.2461L16.0785 15.1473C16.0823 14.834 16.0987 14.3427 16.1534 13.7308L18.9972 14.8395C18.9536 15.1188 18.9638 15.4071 19.0319 15.6887L20.4393 21.5003L13.809 38.4881C13.7021 38.7625 13.3916 38.8985 13.1174 38.7918L7.73406 36.693C7.43241 36.5752 7.0928 36.7244 6.9753 37.026C6.85773 37.3275 7.00679 37.6673 7.30835 37.7848L12.6917 39.8837C12.8947 39.9628 13.1036 40.0002 13.3094 40.0002C13.9921 40.0002 14.6383 39.5873 14.9007 38.914L20.9208 23.4893L24.5155 38.3334C24.7569 39.3299 25.6512 40.0004 26.634 40.0003C26.8033 40.0003 26.9753 39.9804 27.1469 39.9388L38.3326 37.2301C39.501 36.9469 40.2212 35.7665 39.9383 34.5983V34.5983ZM20.5932 4.13791C21.265 4.53408 22.9176 5.61893 24.1511 7.33761C24.0386 7.43917 23.9353 7.55331 23.8442 7.68034L19.4771 13.7687L16.2966 12.5287C16.682 9.93707 17.7354 6.28018 20.5932 4.13791V4.13791Z" fill="black"/>
</g>
<defs>
<linearGradient id="paint0_linear" x1="18.4411" y1="-9.11602" x2="18.4411" y2="62.0173" gradientUnits="userSpaceOnUse">
<stop stop-color="#FFDF00"/>
<stop offset="1" stop-color="#FF8E00"/>
</linearGradient>
<clipPath id="clip0">
<rect width="40" height="40" fill="white"/>
</clipPath>
</defs>
</svg>
