<svg width="60" height="60" viewBox="0 0 60 60" fill="none" xmlns="http://www.w3.org/2000/svg">
<g clip-path="url(#clip0)">
<path d="M13 23.5L18 16.5L19.5 21L21.5 23L24.5 16L30 10L32.5 0.5L37.5 6.5L39.5 10.5C40.3333 13.3333 42 19.1 42 19.5C42 19.9 42.6667 25.6667 43 28.5L46.5 23L49.5 30.5V42.5L48 47.5L46.5 50.5L39.5 56.5L29.5 59L22.5 57.5L14.5 52L11 44L10 31.5L13 23.5Z" fill="url(#paint0_linear)"/>
<path d="M20 4.5L20.5 10H22L24 5.5L23 1L20 4.5Z" fill="url(#paint1_linear)"/>
<path d="M45.5 14L47 9L49 10.5L50 14L49 17L48 16.5L45.5 14Z" fill="url(#paint2_linear)"/>
<path d="M36.8942 26.658C35.8216 24.3928 34.3887 22.2687 32.5996 20.4235C32.3052 20.1218 31.8743 20.0195 31.4752 20.1566C31.0756 20.2939 30.798 20.64 30.7506 21.0609C30.4261 23.9797 29.6612 26.1969 28.4765 27.6513C27.5119 28.7859 26.603 29.2753 25.5395 30.8983C24.9268 31.8357 24.4202 32.8996 24.0263 34.074C23.5807 33.2018 23.3282 31.7492 23.3501 31.0246C23.3452 30.6155 23.0973 30.2515 22.7186 30.0973C22.3396 29.9431 21.9078 30.0305 21.6205 30.3181C19.3427 32.5823 17.6532 35.5633 16.7343 38.9387C16.6068 39.4071 16.8833 39.8901 17.3515 40.0176C17.7094 40.1157 18.2426 39.9422 18.4304 39.4004C19.1123 36.8951 20.2537 34.634 21.7661 32.7744C21.9849 33.9986 22.6043 35.4326 23.4518 36.383C23.7173 36.6913 24.1281 36.8235 24.5236 36.7278C24.9197 36.6322 25.2254 36.3265 25.3212 35.9298C25.6978 34.3685 26.2663 32.9991 27.0106 31.8601C27.9513 30.4182 28.739 30.0603 29.8394 28.7611C31.0263 27.3039 31.8494 25.2695 32.2937 22.7009C33.3866 23.9778 34.5228 25.7437 35.3055 27.4103C35.5133 27.8492 36.0373 28.0361 36.4759 27.8284C36.9146 27.6207 37.1019 27.0968 36.8942 26.658Z" fill="#333333"/>
<path d="M27.233 53.0165C27.547 53.1425 28.1185 53.098 28.3885 52.5587L33.3893 40.994C33.5821 40.5484 33.377 40.0312 32.9315 39.8385C32.486 39.646 31.9686 39.851 31.7761 40.2964L26.7752 51.8611C26.5826 52.3066 26.7875 52.8239 27.233 53.0165Z" fill="#333333"/>
<path d="M27.7706 44.8991C28.3214 44.2727 28.63 43.4438 28.6396 42.5648C28.703 40.9722 27.4169 39.1245 25.6132 39.1498C23.9544 39.1498 22.5934 40.6456 22.5734 42.4994C22.5534 44.3644 23.8976 45.8962 25.57 45.9142C26.4053 45.9234 27.1869 45.5628 27.7706 44.8991ZM26.4506 43.7383C26.2103 44.0115 25.9052 44.1647 25.5889 44.1566C24.8856 44.149 24.3213 43.4141 24.3309 42.5184C24.3405 41.6274 24.9146 40.9075 25.613 40.9075C26.4 40.9161 26.9059 41.7784 26.8818 42.5458C26.8769 43.0042 26.7238 43.4277 26.4506 43.7383Z" fill="#333333"/>
<path d="M34.3612 53.9529C34.3713 53.9531 34.381 53.9531 34.391 53.9531C36.0498 53.9531 37.4109 52.4572 37.4309 50.6035C37.4309 50.6035 37.4309 50.6035 37.4309 50.6034C37.451 48.7384 36.1067 47.2066 34.4344 47.1886C34.4244 47.1885 34.4144 47.1885 34.4045 47.1885C32.7456 47.1885 31.3847 48.6842 31.3646 50.5381C31.3446 52.4031 32.6889 53.9349 34.3612 53.9529ZM34.4044 48.9462H34.4154C35.1187 48.9538 35.6829 49.6887 35.6732 50.5844C35.6636 51.4803 35.0793 52.2061 34.3802 52.1952C33.6769 52.1876 33.1127 51.4527 33.1224 50.557C33.132 49.6659 33.7061 48.9462 34.4044 48.9462Z" fill="#333333"/>
<path d="M20.7923 11.1901C21.0241 11.234 21.2672 11.1818 21.4612 11.0445C21.5733 10.9656 24.2114 9.07577 24.7632 6.1509C25.3151 3.22533 23.5453 0.508926 23.4697 0.394673C23.3385 0.196635 23.1328 0.0600008 22.8993 0.0161747C22.6656 -0.0278859 22.4245 0.024729 22.2303 0.161715C22.1183 0.240696 19.4801 2.13038 18.9282 5.05536C18.3763 7.98093 20.1462 10.6973 20.2218 10.8116C20.3532 11.0096 20.5589 11.1461 20.7923 11.1901ZM20.6557 5.38125C20.9107 4.02955 21.8109 2.92382 22.4784 2.2642C22.8596 3.11682 23.2924 4.46605 23.036 5.82502C22.7814 7.17507 21.883 8.27975 21.2158 8.93972C20.8348 8.08312 20.4012 6.73001 20.6557 5.38125Z" fill="#333333"/>
<path d="M48.2378 18.1588C48.6281 18.3911 49.1412 18.2856 49.4059 17.9059C49.4818 17.7972 51.259 15.2135 50.6739 12.5213C50.0892 9.82984 47.3999 8.21096 47.2856 8.14335C46.8899 7.9091 46.3807 8.01949 46.1175 8.39623C46.0416 8.50498 44.2644 11.0886 44.8495 13.7808C45.4343 16.4724 48.1237 18.0912 48.2378 18.1588ZM47.1177 10.1908C47.7814 10.7449 48.6961 11.6967 48.9563 12.8946C49.2165 14.0916 48.7795 15.3342 48.4059 16.1115C47.7422 15.5575 46.8274 14.6056 46.5673 13.4076C46.307 12.2105 46.744 10.968 47.1177 10.1908Z" fill="#333333"/>
<path d="M48.4322 24.7251C48.0229 23.6867 47.6488 22.8799 47.407 22.386C47.2024 21.9678 46.7536 21.7265 46.2928 21.787C45.8314 21.8468 45.46 22.1935 45.3686 22.65C45.2159 23.4156 45.0036 24.1552 44.7351 24.8546C44.4871 25.5048 44.1169 26.2793 43.6109 27.0322C43.6684 26.0501 43.6796 25.0536 43.6437 24.0539C43.4845 19.4412 42.3508 14.689 40.3653 10.3113C40.1649 9.86945 39.6445 9.67352 39.2019 9.8739C38.7599 10.0744 38.5641 10.5953 38.7646 11.0373C40.6559 15.2076 41.7356 19.7296 41.887 24.1156C41.9419 25.6485 41.8802 27.1702 41.7047 28.6338C41.6877 28.8023 41.7214 29.2043 41.9642 29.5329C42.1747 29.7902 42.4852 29.9493 42.8163 29.9695C43.1494 29.99 43.4625 29.8731 43.6995 29.6458C44.9431 28.4515 45.9789 26.7528 46.5959 24.8715C46.6614 25.0302 46.7285 25.1963 46.7967 25.3694C48.0214 28.4814 49.9152 34.7104 48.8395 41.4648C48.7773 41.8999 48.6611 42.5841 48.5082 43.2605C48.3998 43.7337 48.6956 44.205 49.1686 44.3134C49.535 44.3982 50.0483 44.2004 50.2215 43.653C50.3654 43.0252 50.4847 42.3795 50.5764 41.7339C51.7155 34.5702 49.7223 28.003 48.4322 24.7251Z" fill="#333333"/>
<path d="M48.3801 46.6712C47.9377 46.4717 47.4172 46.6683 47.2174 47.1107C45.7225 50.4226 43.4556 53.1013 40.6527 55.0009C41.8453 53.5277 42.7596 51.7525 43.3608 49.697C43.3621 49.6927 43.3633 49.6883 43.3645 49.684C44.8653 44.2447 43.3763 39.0783 42.3549 36.4826C42.0838 35.7939 41.8348 35.257 41.6738 34.9283C41.4827 34.5374 41.0652 34.3123 40.6328 34.368C40.2011 34.4239 39.854 34.7482 39.7688 35.1745C39.6718 35.615 39.5254 36.2173 39.2523 36.8571C39.2476 34.8376 38.9588 32.7474 38.395 30.7007C38.2661 30.2328 37.7821 29.9578 37.3143 30.0868C36.8463 30.2157 36.5714 30.6995 36.7004 31.1674C37.4383 33.8465 37.6682 36.5964 37.3651 39.1206C37.3815 39.2777 37.3006 39.433 37.6027 39.9352C37.7944 40.169 38.0771 40.3133 38.3782 40.3309C38.6754 40.3477 38.9708 40.2389 39.1816 40.0358C39.8554 39.3983 40.4615 38.4988 40.8747 37.5335C41.8001 40.0297 42.9605 44.5311 41.6718 49.2099C39.6909 55.9722 34.6036 57.8557 30.5721 58.2188C30.4504 58.2221 30.3385 58.2299 29.9377 58.2343C25.7998 58.0955 19.5073 55.2307 18.0558 47.6044C17.7975 46.247 17.7062 44.8278 17.7844 43.3859C17.8108 42.9013 17.4392 42.487 16.9544 42.4608C16.4691 42.4325 16.0555 42.8061 16.0292 43.2908C15.9433 44.8744 16.0441 46.4363 16.3291 47.9331C16.8692 50.771 18.0577 53.2426 19.8138 55.2178C14.7156 52.0013 11.7181 46.1256 11.0516 39.9996C10.0619 32.0936 12.6634 23.5668 17.7277 17.8249C17.926 19.8356 18.8782 22.471 20.351 24.1002C20.6418 24.4387 21.0919 24.5846 21.5257 24.4808C21.9611 24.3767 22.2979 24.0417 22.4052 23.6038C22.8951 21.5121 23.8299 19.0787 25.0472 17.2438C26.5023 14.9986 27.766 14.4081 29.3946 12.4735C31.3025 10.131 32.5801 6.76634 33.1983 2.4606C34.5075 3.9051 35.8319 5.69834 36.9062 7.49076C37.1561 7.90699 37.6958 8.04187 38.112 7.79216C38.5282 7.54244 38.6632 7.00258 38.4135 6.58635C37.1209 4.42891 35.4809 2.24686 33.6373 0.35905C33.3144 0.027776 32.8416 -0.0846018 32.4028 0.0653915C31.9627 0.216088 31.6571 0.596227 31.6046 1.05933C31.0993 5.60624 29.8973 9.07296 28.0316 11.3635C26.508 13.1651 25.15 13.8528 23.5762 16.2817C22.5073 17.9111 21.6006 19.9471 21.0007 22.0399C19.8595 20.4107 19.3372 17.6338 19.3819 16.2265C19.3763 15.7888 19.1109 15.3995 18.7057 15.2348C18.3005 15.0701 17.8385 15.1636 17.5307 15.4715C14.5054 18.4789 12.1364 22.397 10.6799 26.8019C9.23162 31.1817 8.75703 35.8209 9.30732 40.216C10.3396 49.4599 15.7805 56.4613 23.833 59.0548C25.8017 59.6778 27.8192 59.9932 29.8341 59.9932C29.9274 59.9752 29.872 60.0297 30.649 59.9748C34.5562 59.8241 38.2625 58.6614 41.4033 56.5914C44.6286 54.4655 47.1932 51.4373 48.8195 47.8339C49.0192 47.3914 48.8226 46.8709 48.3801 46.6712Z" fill="#333333"/>
</g>
<defs>
<linearGradient id="paint0_linear" x1="10" y1="59" x2="50" y2="59" gradientUnits="userSpaceOnUse">
<stop stop-color="#FCB222"/>
<stop offset="1" stop-color="#FFDF00"/>
</linearGradient>
<linearGradient id="paint1_linear" x1="10" y1="59" x2="50" y2="59" gradientUnits="userSpaceOnUse">
<stop stop-color="#FCB222"/>
<stop offset="1" stop-color="#FFDF00"/>
</linearGradient>
<linearGradient id="paint2_linear" x1="10" y1="59" x2="50" y2="59" gradientUnits="userSpaceOnUse">
<stop stop-color="#FCB222"/>
<stop offset="1" stop-color="#FFDF00"/>
</linearGradient>
<clipPath id="clip0">
<rect width="60" height="60" fill="white"/>
</clipPath>
</defs>
</svg>
