<svg width="20" height="20" viewBox="0 0 20 20" fill="none" xmlns="http://www.w3.org/2000/svg">
<g opacity="0.2">
<path d="M4.43509 2.94116C1.98944 2.94116 0 4.9306 0 7.37629C0 9.7356 1.8515 11.6707 4.17784 11.8044C4.21812 12.2393 4.18791 13.423 3.05356 15.0698C2.96781 15.194 2.98338 15.3615 3.08988 15.468C3.55406 15.9322 3.84094 16.2245 4.04172 16.429C4.3045 16.6963 4.42444 16.8184 4.59991 16.9777C4.65941 17.0317 4.73447 17.0589 4.80988 17.0589C4.88309 17.0589 4.95603 17.0333 5.01494 16.9823C6.99156 15.2623 9.18731 11.7085 8.86963 7.35369C8.68347 4.79694 6.81853 2.94116 4.43509 2.94116Z" fill="#333333"/>
<path d="M19.9679 7.35369C19.7811 4.79726 17.9159 2.94116 15.5331 2.94116C13.0874 2.94116 11.0977 4.9306 11.0977 7.37629C11.0977 9.7356 12.9495 11.6707 15.2761 11.8044C15.3164 12.2389 15.2859 13.4221 14.1512 15.0698C14.0655 15.194 14.0811 15.3615 14.1876 15.468C14.6499 15.9303 14.9362 16.2221 15.137 16.4263C15.4009 16.6954 15.5215 16.8181 15.6979 16.978C15.7574 17.0317 15.8327 17.0589 15.9078 17.0589C15.9811 17.0589 16.054 17.0333 16.1129 16.982C18.0895 15.262 20.2853 11.7083 19.9679 7.35369Z" fill="#333333"/>
</g>
</svg>
