<svg width="40" height="46" viewBox="0 0 40 46" fill="none" xmlns="http://www.w3.org/2000/svg">
<path d="M39.3101 11.8404C39.2551 10.6302 39.2551 9.47504 39.2551 8.31988C39.2551 7.38475 38.54 6.66966 37.6049 6.66966C30.7289 6.66966 25.5032 4.68939 21.1576 0.453812C20.4976 -0.151271 19.5074 -0.151271 18.8473 0.453812C14.5017 4.68939 9.27603 6.66966 2.40009 6.66966C1.46497 6.66966 0.749868 7.38475 0.749868 8.31988C0.749868 9.47504 0.749868 10.6302 0.694861 11.8404C0.474831 23.3919 0.144785 39.2341 19.4524 45.89L20.0025 46L20.5526 45.89C39.8052 39.2341 39.5301 23.4469 39.3101 11.8404ZM18.6823 27.8475C18.3523 28.1226 17.9672 28.2876 17.5271 28.2876H17.4721C17.0321 28.2876 16.592 28.0676 16.317 27.7375L11.2013 22.0717L13.6766 19.8715L17.6922 24.3271L26.6034 15.8559L28.8587 18.2762L18.6823 27.8475Z" fill="#333333"/>
</svg>
