<svg width="66" height="49" viewBox="0 0 66 49" fill="none" xmlns="http://www.w3.org/2000/svg">
<path d="M53.4316 15.8287H49.2764L50.5284 1.62492C50.5307 1.59919 50.5311 1.57384 50.5312 1.54849C50.5312 1.54633 50.5314 1.54429 50.5314 1.54212C50.5314 1.54174 50.5314 1.54149 50.5314 1.5411C50.5314 1.15451 50.2954 0.813775 49.9485 0.665634C49.9456 0.664361 49.9427 0.662832 49.9398 0.661558C49.9182 0.652642 49.8959 0.644999 49.8735 0.637611C49.8651 0.634936 49.8571 0.631624 49.8488 0.629076C49.8305 0.623599 49.8116 0.619268 49.7929 0.61481C49.7798 0.611753 49.7672 0.608059 49.7539 0.605512C49.7375 0.602327 49.7205 0.60029 49.7037 0.597869C49.688 0.595577 49.6725 0.592901 49.6567 0.5915C49.654 0.591245 49.6515 0.590735 49.6488 0.590481C49.6318 0.588952 49.6151 0.589207 49.5982 0.58857C49.5868 0.588188 49.5757 0.586914 49.5644 0.586914H49.5523C49.5512 0.586914 49.5502 0.586914 49.5493 0.586914H29.7787C29.2451 0.586914 28.8119 1.0149 28.8119 1.54225C28.8119 2.06832 29.2451 2.49759 29.7787 2.49759H48.5106L46.5865 24.327C46.5863 24.3287 46.5863 24.3303 46.586 24.332L46.1005 29.84H12.5063L13.0682 24.1082H19.4647C19.9987 24.1082 20.4315 23.6805 20.4315 23.1529C20.4315 22.6253 19.9987 22.1975 19.4647 22.1975H13.2556L14.4421 10.0972H24.6225C25.1565 10.0972 25.5893 9.66949 25.5893 9.14189C25.5893 8.61429 25.1565 8.18655 24.6225 8.18655H14.6295L15.1874 2.49759H25.9115C26.4439 2.49759 26.8783 2.06832 26.8783 1.54225C26.8783 1.0149 26.4439 0.586914 25.9115 0.586914H14.3099C14.3094 0.586914 14.309 0.587041 14.3085 0.587041C13.8544 0.586914 13.4604 0.902813 13.3652 1.34074C13.3645 1.34392 13.3634 1.34698 13.3627 1.35016C13.3578 1.37398 13.3546 1.39831 13.3514 1.42277C13.3505 1.43054 13.3488 1.43793 13.348 1.4457C13.3479 1.44723 13.3475 1.44863 13.3474 1.45016L12.6869 8.18655H0.966801C0.43274 8.18655 0 8.61429 0 9.14189C0 9.66949 0.43274 10.0972 0.966801 10.0972H12.4994L11.313 22.1975H7.86357C7.32951 22.1975 6.89677 22.6253 6.89677 23.1529C6.89677 23.6805 7.32951 24.1082 7.86357 24.1082H11.1257L10.4796 30.6963C10.4795 30.6973 10.4795 30.6984 10.4793 30.6993L9.48045 40.8868C9.48032 40.888 9.48019 40.8893 9.48006 40.8903L9.47967 40.894C9.47838 40.9072 9.47851 40.9202 9.47774 40.9335C9.47684 40.951 9.47503 40.9682 9.47503 40.9861C9.47503 40.9868 9.47516 40.9876 9.47516 40.9885C9.47516 41.0131 9.47697 41.0373 9.47877 41.0615C9.47954 41.0692 9.47929 41.0771 9.48019 41.0848C9.48277 41.1095 9.48702 41.1338 9.49153 41.158C9.49282 41.1652 9.49347 41.1724 9.49488 41.1794C9.49862 41.1978 9.50391 41.2155 9.50881 41.2334C9.51216 41.246 9.51487 41.2589 9.51873 41.2713C9.51989 41.2747 9.52144 41.278 9.52247 41.2816C9.56926 41.4237 9.64867 41.5514 9.75231 41.6556C9.75425 41.6575 9.75579 41.6596 9.75773 41.6614C9.76804 41.6716 9.77925 41.6808 9.79008 41.6905C9.85673 41.7508 9.93201 41.802 10.0144 41.8422C10.0315 41.8506 10.0484 41.8594 10.0659 41.8666C10.0712 41.8689 10.0769 41.8704 10.0823 41.8725C10.1065 41.882 10.1309 41.8912 10.156 41.899C10.1584 41.8996 10.1606 41.9 10.1629 41.9008C10.1915 41.9092 10.2204 41.9166 10.2499 41.9225C10.2538 41.9233 10.2578 41.9236 10.2615 41.9243C10.2896 41.9296 10.3178 41.934 10.3466 41.9368C10.3472 41.9368 10.3477 41.9369 10.3484 41.9371C10.3801 41.9401 10.4115 41.9417 10.4427 41.9417C10.4431 41.9417 10.4436 41.9415 10.4442 41.9415H14.7481C15.2234 45.5021 18.3126 48.2599 22.0438 48.2599C25.7748 48.2599 28.864 45.5021 29.3393 41.9415H44.8467C45.3221 45.5021 48.4112 48.2599 52.1423 48.2599C55.8732 48.2599 58.9627 45.5021 59.4381 41.9415H63.7431C63.7437 41.9415 63.7445 41.9417 63.7452 41.9417C63.7774 41.9417 63.8091 41.9397 63.8406 41.9367C63.8462 41.9362 63.8516 41.935 63.8573 41.9344C63.8825 41.9315 63.9075 41.928 63.9319 41.9232C63.9425 41.9211 63.9527 41.9183 63.9631 41.9159C63.9821 41.9116 64.0012 41.907 64.0197 41.9015C64.0324 41.8978 64.0446 41.8935 64.057 41.8893C64.0728 41.8839 64.0887 41.8783 64.1043 41.8721C64.1177 41.8669 64.1305 41.8611 64.1435 41.8554C64.1577 41.8489 64.1718 41.8423 64.1856 41.8353C64.1988 41.8287 64.2114 41.8218 64.2241 41.8147C64.2373 41.807 64.2505 41.7991 64.2635 41.791C64.2756 41.7833 64.2877 41.7756 64.2993 41.7674C64.3125 41.7584 64.325 41.7488 64.3377 41.7391C64.3483 41.7308 64.359 41.7227 64.3693 41.714C64.3826 41.7029 64.3951 41.6914 64.4077 41.6795C64.4165 41.6712 64.4257 41.6631 64.4342 41.6544C64.4476 41.6409 64.4603 41.6266 64.4731 41.6122C64.4799 41.6045 64.487 41.597 64.4936 41.5891C64.5078 41.5717 64.5207 41.5539 64.5336 41.5359C64.5379 41.5297 64.5428 41.5238 64.5471 41.5175C64.5628 41.4942 64.5776 41.4702 64.5913 41.4455C64.5923 41.444 64.5934 41.4426 64.594 41.4409C64.6086 41.4144 64.622 41.3873 64.634 41.3593C64.6373 41.3513 64.6399 41.343 64.6431 41.3349C64.651 41.3152 64.6587 41.2955 64.6653 41.275C64.6696 41.2617 64.6727 41.2481 64.6764 41.2347C64.6806 41.2188 64.6852 41.203 64.6888 41.1868C64.692 41.1724 64.694 41.1576 64.6965 41.143C64.6987 41.1301 64.7015 41.1175 64.7032 41.1044C64.7442 40.7798 65.5013 34.7779 65.8394 30.8969C65.8398 30.8932 65.8399 30.8894 65.8403 30.8857C65.9376 29.767 66 28.8249 66 28.2481C66 21.4001 60.3619 15.8287 53.4316 15.8287ZM49.1079 17.7397H53.0632L52.558 23.4712H48.6027L49.1079 17.7397ZM22.0441 46.3491C19.0513 46.3491 16.6165 43.9431 16.6165 40.9859C16.6165 38.0287 19.0514 35.6228 22.0441 35.6228C25.0368 35.6228 27.4716 38.0287 27.4716 40.9859C27.4716 43.9431 25.0368 46.3491 22.0441 46.3491ZM52.1423 46.3491C49.1496 46.3491 46.7149 43.9431 46.7149 40.9859C46.7149 38.0287 49.1497 35.6228 52.1423 35.6228C55.1351 35.6228 57.5699 38.0287 57.5699 40.9859C57.5699 43.9431 55.1351 46.3491 52.1423 46.3491ZM62.8888 40.0302H59.4384C58.9632 36.4694 55.8739 33.7115 52.1425 33.7115C48.4114 33.7115 45.3221 36.4695 44.8469 40.0302H29.3397C28.8645 36.4694 25.7753 33.7115 22.0441 33.7115C18.3129 33.7115 15.2234 36.4695 14.7482 40.0302H11.507L12.319 31.7501H46.9865V31.7506C46.987 31.7506 46.9874 31.7506 46.9879 31.7506C47.0203 31.7506 47.0524 31.7488 47.0841 31.7457C47.09 31.7452 47.0958 31.7439 47.1018 31.7431C47.127 31.7402 47.1522 31.7366 47.1769 31.7318C47.1876 31.7296 47.198 31.7267 47.2086 31.7241C47.228 31.7195 47.2473 31.7151 47.2661 31.7095C47.279 31.7057 47.2912 31.7011 47.3038 31.6967C47.32 31.6911 47.3362 31.6857 47.352 31.6793C47.3655 31.6738 47.3785 31.6677 47.3917 31.6616C47.406 31.6551 47.4203 31.6486 47.4341 31.6415C47.4472 31.6346 47.4601 31.6272 47.4731 31.6198C47.4864 31.6122 47.4996 31.6044 47.5125 31.5962C47.525 31.5882 47.5368 31.5798 47.5488 31.5714C47.5616 31.5625 47.5739 31.5533 47.5863 31.5438C47.5974 31.535 47.6084 31.5259 47.6192 31.5166C47.6314 31.5062 47.6434 31.4955 47.655 31.4844C47.6648 31.4751 47.6746 31.4656 47.6842 31.4557C47.6958 31.4438 47.707 31.4314 47.7181 31.4188C47.7267 31.4089 47.7352 31.3989 47.7435 31.3887C47.7542 31.3754 47.7643 31.3616 47.7744 31.3477C47.782 31.3373 47.7893 31.3268 47.7966 31.3161C47.806 31.3017 47.815 31.287 47.8236 31.2719C47.8302 31.2607 47.8369 31.2495 47.8428 31.2381C47.851 31.223 47.8579 31.2077 47.8653 31.1923C47.8709 31.18 47.8767 31.1679 47.8819 31.1551C47.8882 31.1401 47.8935 31.1247 47.899 31.1093C47.9038 31.0957 47.9088 31.082 47.9131 31.068C47.9173 31.0532 47.9208 31.0381 47.9247 31.023C47.9284 31.0079 47.9326 30.9929 47.9355 30.9774C47.9385 30.9624 47.9403 30.9471 47.9426 30.9318C47.9449 30.916 47.9476 30.9005 47.9492 30.8845C47.9494 30.8822 47.95 30.88 47.9501 30.8777L48.4347 25.3813H53.4313C56.3935 25.3813 57.7295 26.8979 59.1437 28.5036C60.3107 29.8285 61.6136 31.3067 63.8282 31.6673C63.5469 34.6059 63.0923 38.3784 62.8888 40.0302ZM63.9934 29.7528C62.5568 29.4634 61.6729 28.4654 60.602 27.2497C59.2628 25.7295 57.6279 23.8742 54.4938 23.5285L54.9939 17.8541C60.1198 18.6032 64.0664 22.9783 64.0664 28.2484C64.0664 28.6064 64.0393 29.1266 63.9934 29.7528Z" fill="white" stroke="white"/>
<path d="M22.0449 37.5596C20.0903 37.5596 18.5 39.1309 18.5 41.0625C18.5 42.994 20.0903 44.5654 22.0449 44.5654C23.9995 44.5654 25.5899 42.994 25.5899 41.0625C25.5899 39.131 23.9995 37.5596 22.0449 37.5596ZM22.0449 42.6547C21.1564 42.6547 20.4336 41.9405 20.4336 41.0625C20.4336 40.1845 21.1564 39.4702 22.0449 39.4702C22.9335 39.4702 23.6563 40.1845 23.6563 41.0625C23.6563 41.9405 22.9334 42.6547 22.0449 42.6547Z" fill="white"/>
<path d="M52.1426 37.5596C50.188 37.5596 48.5977 39.1309 48.5977 41.0625C48.5977 42.994 50.188 44.5654 52.1426 44.5654C54.0972 44.5654 55.6875 42.994 55.6875 41.0625C55.6875 39.131 54.0972 37.5596 52.1426 37.5596ZM52.1426 42.6547C51.254 42.6547 50.5313 41.9405 50.5313 41.0625C50.5313 40.1845 51.254 39.4702 52.1426 39.4702C53.0311 39.4702 53.7539 40.1845 53.7539 41.0625C53.7539 41.9405 53.0311 42.6547 52.1426 42.6547Z" fill="white"/>
<path d="M9.15423 15.9058H4.42774C3.89368 15.9058 3.46094 16.3335 3.46094 16.8611C3.46094 17.3887 3.89368 17.8164 4.42774 17.8164H9.15423C9.68829 17.8164 10.121 17.3887 10.121 16.8611C10.121 16.3335 9.68829 15.9058 9.15423 15.9058Z" fill="white"/>
</svg>
