<svg width="57" height="58" viewBox="0 0 57 58" fill="none" xmlns="http://www.w3.org/2000/svg">
<path fill-rule="evenodd" clip-rule="evenodd" d="M47.8988 9.02022C42.6363 3.75159 35.6377 0.848793 28.1817 0.845703C12.818 0.845703 0.314201 13.3492 0.308022 28.717C0.305962 33.6296 1.5893 38.4251 4.02861 42.6521L0.0742188 57.0957L14.8505 53.2196C18.922 55.4405 23.5057 56.6109 28.1704 56.6123H28.1821C43.544 56.6123 56.0492 44.1078 56.0551 28.7393C56.0582 21.2913 53.1616 14.2885 47.8988 9.02022ZM28.1817 51.905H28.1721C24.0152 51.9033 19.9382 50.7861 16.3807 48.6757L15.5351 48.1734L6.76661 50.4737L9.10704 41.9246L8.55601 41.0481C6.23687 37.3594 5.01223 33.0961 5.01429 28.7187C5.0191 15.9454 15.4122 5.55334 28.191 5.55334C34.379 5.5554 40.196 7.96828 44.5699 12.3474C48.9438 16.7264 51.3512 22.5471 51.3492 28.7376C51.3437 41.5119 40.9513 51.905 28.1817 51.905ZM40.8895 34.5538C40.1932 34.205 36.7689 32.5207 36.1303 32.2879C35.4924 32.0555 35.0276 31.9398 34.5638 32.6367C34.0992 33.3336 32.7647 34.9026 32.3582 35.3671C31.9518 35.832 31.5459 35.8904 30.8493 35.5415C30.1527 35.1931 27.9088 34.4573 25.2484 32.0846C23.1781 30.2379 21.7805 27.9572 21.374 27.2603C20.9682 26.5626 21.3705 26.2221 21.6795 25.8389C22.4335 24.9027 23.1884 23.9211 23.4205 23.4566C23.6529 22.9917 23.5366 22.5849 23.3622 22.2364C23.1884 21.888 21.7956 18.4599 21.2154 17.065C20.6496 15.7075 20.0759 15.8908 19.6481 15.8695C19.2423 15.8492 18.7778 15.8451 18.3132 15.8451C17.8491 15.8451 17.0945 16.0192 16.4559 16.7168C15.8176 17.4141 14.0186 19.0988 14.0186 22.5269C14.0186 25.955 16.5142 29.2666 16.8624 29.7315C17.2105 30.1964 21.7736 37.231 28.7599 40.2475C30.4216 40.9657 31.7186 41.3938 32.7304 41.7148C34.399 42.2449 35.9168 42.1701 37.117 41.9909C38.4553 41.7907 41.2373 40.3058 41.8182 38.6792C42.3984 37.0522 42.3984 35.6579 42.224 35.3671C42.0503 35.0767 41.5857 34.9026 40.8895 34.5538Z" fill="black"/>
</svg>
