<svg width="40" height="40" viewBox="0 0 40 40" fill="none" xmlns="http://www.w3.org/2000/svg">
<g clip-path="url(#clip0)">
<path d="M4.66602 39.3333V0.999997V0.666664H30.3327L35.3327 5.66666V39.3333H4.66602Z" fill="white"/>
<path d="M27.3982 38.8258H5.16641V9.8629C5.16641 9.53861 4.90352 9.27579 4.5793 9.27579C4.25508 9.27579 3.99219 9.53861 3.99219 9.8629V39.0215C3.99219 39.5611 4.43117 40 4.9707 40H27.3982C27.7224 40 27.9852 39.7372 27.9853 39.4129C27.9853 39.0886 27.7224 38.8258 27.3982 38.8258Z" fill="black"/>
<path d="M35.843 5.30867L30.8527 0.177813C30.7422 0.0641406 30.5904 0 30.4319 0H4.9707C4.43117 0 3.99227 0.439062 3.99219 0.978594V5.55773C3.99219 5.88203 4.25508 6.14484 4.5793 6.14484C4.90352 6.14484 5.16641 5.88203 5.16641 5.55773V1.1743H30.1839L34.8352 5.95648V38.8258H31.5078C31.1836 38.8258 30.9207 39.0886 30.9207 39.4129C30.9207 39.7372 31.1836 40 31.5078 40H35.0308C35.5704 40 36.0093 39.5611 36.0093 39.0216V5.71797C36.0093 5.56508 35.9497 5.41828 35.843 5.30867Z" fill="black"/>
<path d="M35.8439 5.30872L30.8536 0.177857C30.687 0.00660726 30.4332 -0.046674 30.2119 0.0432479C29.9905 0.13317 29.8457 0.348248 29.8457 0.587232V5.71801C29.8457 6.04231 30.1086 6.30512 30.4328 6.30512H35.4231C35.6591 6.30512 35.8722 6.16387 35.9639 5.94645C36.0557 5.72911 36.0084 5.47778 35.8439 5.30872ZM31.0199 5.1309V2.03278L34.0331 5.1309H31.0199Z" fill="black"/>
<path d="M22.7181 3.1171H8.57227C8.03266 3.1171 7.59375 3.55609 7.59375 4.09562V7.34038C7.59375 7.87999 8.03273 8.3189 8.57227 8.3189H22.7181C23.2576 8.3189 23.6966 7.87992 23.6966 7.34046V4.09554C23.6966 3.55593 23.2576 3.1171 22.7181 3.1171ZM22.5223 7.1446H8.76797V4.29124H22.5223V7.1446Z" fill="black"/>
<path d="M13.4585 11.3915C13.2004 11.1955 12.832 11.2455 12.6358 11.5037L10.0418 14.9168L9.26275 14.2351C9.01877 14.0215 8.64791 14.0463 8.43432 14.2904C8.2208 14.5344 8.24557 14.9053 8.48955 15.1188L9.74197 16.2147C9.84947 16.3086 9.98705 16.3599 10.1285 16.3599C10.1482 16.3599 10.168 16.3589 10.1878 16.357C10.3497 16.3405 10.4976 16.2577 10.596 16.1281L13.5706 12.2142C13.7668 11.9561 13.7166 11.5877 13.4585 11.3915Z" fill="black"/>
<path d="M31.126 11.2716H16.3391C16.0148 11.2716 15.752 11.5345 15.752 11.8588C15.752 12.1831 16.0148 12.4459 16.3391 12.4459H31.126C31.4502 12.4459 31.7131 12.1831 31.7131 11.8588C31.7131 11.5345 31.4502 11.2716 31.126 11.2716Z" fill="black"/>
<path d="M25.9395 13.2286H16.3391C16.0148 13.2286 15.752 13.4914 15.752 13.8157C15.752 14.14 16.0148 14.4028 16.3391 14.4028H25.9395C26.2637 14.4028 26.5266 14.14 26.5266 13.8157C26.5266 13.4914 26.2637 13.2286 25.9395 13.2286Z" fill="black"/>
<path d="M28.1312 15.1856H16.3391C16.0148 15.1856 15.752 15.4484 15.752 15.7727C15.752 16.097 16.0148 16.3598 16.3391 16.3598H28.1312C28.4555 16.3598 28.7184 16.097 28.7184 15.7727C28.7184 15.4484 28.4555 15.1856 28.1312 15.1856Z" fill="black"/>
<path d="M13.4585 19.3761C13.2004 19.18 12.832 19.2301 12.6358 19.4883L10.0418 22.9014L9.26275 22.2197C9.01877 22.0062 8.64791 22.0309 8.43432 22.2749C8.2208 22.519 8.24557 22.8899 8.48955 23.1034L9.74197 24.1992C9.84947 24.2932 9.98705 24.3445 10.1285 24.3445C10.1482 24.3445 10.168 24.3434 10.1878 24.3416C10.3497 24.3251 10.4976 24.2423 10.596 24.1127L13.5706 20.1988C13.7668 19.9406 13.7166 19.5724 13.4585 19.3761Z" fill="black"/>
<path d="M31.126 19.2563H16.3391C16.0148 19.2563 15.752 19.5192 15.752 19.8435C15.752 20.1678 16.0148 20.4306 16.3391 20.4306H31.126C31.4502 20.4306 31.7131 20.1678 31.7131 19.8435C31.7131 19.5192 31.4502 19.2563 31.126 19.2563Z" fill="black"/>
<path d="M25.9395 21.2133H16.3391C16.0148 21.2133 15.752 21.4761 15.752 21.8004C15.752 22.1247 16.0148 22.3875 16.3391 22.3875H25.9395C26.2637 22.3875 26.5266 22.1247 26.5266 21.8004C26.5266 21.4761 26.2637 21.2133 25.9395 21.2133Z" fill="black"/>
<path d="M28.1312 23.1702H16.3391C16.0148 23.1702 15.752 23.4331 15.752 23.7574C15.752 24.0816 16.0148 24.3445 16.3391 24.3445H28.1312C28.4555 24.3445 28.7184 24.0816 28.7184 23.7574C28.7184 23.4331 28.4555 23.1702 28.1312 23.1702Z" fill="black"/>
<path d="M31.126 27.241H16.3391C16.0148 27.241 15.752 27.5038 15.752 27.8281C15.752 28.1524 16.0148 28.4152 16.3391 28.4152H31.126C31.4502 28.4152 31.713 28.1524 31.7131 27.8281C31.7131 27.5038 31.4502 27.241 31.126 27.241Z" fill="black"/>
<path d="M25.9395 29.198H16.3391C16.0148 29.198 15.752 29.4608 15.752 29.7851C15.752 30.1094 16.0148 30.3722 16.3391 30.3722H25.9395C26.2637 30.3722 26.5266 30.1094 26.5266 29.7851C26.5266 29.4608 26.2637 29.198 25.9395 29.198Z" fill="black"/>
<path d="M28.1312 31.1549H16.3391C16.0148 31.1549 15.752 31.4178 15.752 31.7421C15.752 32.0664 16.0148 32.3292 16.3391 32.3292H28.1312C28.4555 32.3292 28.7184 32.0664 28.7184 31.7421C28.7184 31.4178 28.4555 31.1549 28.1312 31.1549Z" fill="black"/>
<path d="M12.3968 27.241H9.26562C8.72602 27.241 8.28711 27.68 8.28711 28.2195V31.3506C8.28711 31.8902 8.72609 32.3291 9.26562 32.3291H12.3968C12.9364 32.3291 13.3753 31.8902 13.3753 31.3507V28.2195C13.3753 27.6799 12.9363 27.241 12.3968 27.241ZM12.2012 31.155H9.46141V28.4152H12.2012V31.155Z" fill="black"/>
</g>
<defs>
<clipPath id="clip0">
<rect width="40" height="40" fill="white"/>
</clipPath>
</defs>
</svg>
