<svg width="40" height="40" viewBox="0 0 40 40" fill="none" xmlns="http://www.w3.org/2000/svg">
<path d="M7.33333 33L7 26.3333L13.6667 22.6667L19 25.6667H20.3333V23.3333L17.3333 20L16.3333 17L15.3333 16V14.6667L16.3333 13.6667V12H14.6667V10H16V8.66667L17.3333 5L19.3333 3.33333L21.6667 2.33333V1.33333H25.3333L25.6667 2.33333L27 3L29.6667 5L31 7.66667V10L32 10.3333V12H30.6667V13.3333L32 14.6667L31.6667 16.3333L30.3333 16.6667V19L28.6667 21.3333L26.6667 23V25.3333L29.6667 26.6667L31.6667 27.6667L32.6667 29.3333V36H18.6667L16.3333 37.6667L13.6667 38.6667L12.6667 38.3333L9 36L7.33333 33Z" fill="white"/>
<path d="M28.7734 32.3129C28.8978 32.3129 29.017 32.2635 29.1049 32.1756C29.1928 32.0877 29.2422 31.9685 29.2422 31.8442V31.3743C29.2422 31.2499 29.1928 31.1307 29.1049 31.0428C29.017 30.9549 28.8978 30.9055 28.7734 30.9055C28.6491 30.9055 28.5299 30.9549 28.442 31.0428C28.3541 31.1307 28.3047 31.2499 28.3047 31.3743V31.8442C28.3047 31.9685 28.3541 32.0877 28.442 32.1756C28.5299 32.2635 28.6491 32.3129 28.7734 32.3129Z" fill="black"/>
<path d="M17.197 4.77539C16.1582 6.19618 15.5629 7.89255 15.4861 9.65094H14.9074C14.7831 9.65094 14.6639 9.70032 14.576 9.78823C14.4881 9.87614 14.4387 9.99537 14.4387 10.1197V12.1109C14.4387 12.2352 14.4881 12.3544 14.576 12.4423C14.6639 12.5302 14.7831 12.5796 14.9074 12.5796H15.8577L15.9133 13.3859C15.6327 13.4835 15.3813 13.6501 15.1821 13.8704C14.9828 14.0907 14.8423 14.3576 14.7734 14.6465C14.6435 15.1773 14.7137 15.7373 14.9706 16.2196C15.2274 16.7019 15.6529 17.0727 16.1658 17.2612C16.2266 18.5146 16.607 19.7317 17.2709 20.7966C17.9347 21.8616 18.8599 22.739 19.9585 23.3455V25.0377L19.3156 25.3125C17.4418 24.4139 15.6607 23.3337 13.9978 22.0873C13.9167 22.0264 13.818 21.9935 13.7166 21.9935C13.6151 21.9935 13.5165 22.0264 13.4353 22.0873C11.4255 23.5942 9.24401 24.8573 6.93656 25.8502L6.89289 25.8689C6.80872 25.9051 6.737 25.9652 6.68661 26.0417C6.63622 26.1183 6.60937 26.2079 6.60938 26.2995V31.1087C6.60938 33.6087 7.80359 35.8041 10.0629 37.4581C11.0995 38.2149 12.2494 38.8029 13.4698 39.2003C13.5543 39.225 13.6441 39.2254 13.7288 39.2015C14.9848 38.8069 16.1722 38.2204 17.2488 37.4627C17.7114 37.1374 18.146 36.7741 18.5483 36.3767H32.9233C33.0476 36.3767 33.1668 36.3273 33.2547 36.2394C33.3426 36.1515 33.392 36.0323 33.392 35.908V30.1545C33.392 30.1415 33.3915 30.1284 33.3905 30.1154C33.3292 29.4083 33.0881 28.7287 32.6902 28.141C32.2923 27.5534 31.7508 27.0772 31.117 26.7577C31.1086 26.7534 31.1001 26.7499 31.0914 26.7459L27.0887 25.0375V23.326C28.1782 22.7167 29.0948 21.8402 29.7521 20.779C30.4094 19.7178 30.7859 18.5068 30.8461 17.2599C31.3579 17.0706 31.7822 16.6997 32.0383 16.2178C32.2943 15.7359 32.3641 15.1766 32.2345 14.6466C32.1656 14.3585 32.0257 14.0924 31.8273 13.8725C31.629 13.6526 31.3787 13.4859 31.0993 13.3878L31.155 12.5796H32.1398C32.2642 12.5796 32.3834 12.5302 32.4713 12.4423C32.5592 12.3544 32.6086 12.2352 32.6086 12.1109V10.1197C32.6086 9.99537 32.5592 9.87614 32.4713 9.78823C32.3834 9.70032 32.2642 9.65094 32.1398 9.65094H31.5617C31.4875 7.88962 30.8916 6.19008 29.8496 4.76813C28.8594 3.41668 27.4737 2.40635 25.8841 1.87688L25.9442 1.2982C25.951 1.23297 25.9439 1.16704 25.9236 1.10469C25.9033 1.04234 25.8701 0.98495 25.8262 0.936228C25.7823 0.887505 25.7287 0.848537 25.6688 0.821842C25.6089 0.795146 25.544 0.781318 25.4784 0.78125H21.569C21.5033 0.78125 21.4384 0.795034 21.3785 0.82171C21.3185 0.848386 21.2648 0.887359 21.2208 0.936106C21.1769 0.984853 21.1437 1.04229 21.1233 1.10469C21.103 1.16709 21.096 1.23307 21.1027 1.29836L21.1628 1.87711C19.5721 2.40814 18.1861 3.42107 17.197 4.77539ZM28.4573 29.6523V26.641L29.0863 26.9095V29.6523H28.4573ZM29.8697 30.5898V35.4389H19.367C20.3165 34.1954 20.8287 32.673 20.8237 31.1084V30.5898H29.8697ZM16.7291 36.6814C15.7683 37.3544 14.7157 37.8856 13.6036 38.2585C12.5372 37.888 11.5309 37.3633 10.6166 36.7012C8.57961 35.2102 7.5468 33.3285 7.5468 31.1084V26.6066C9.72694 25.6478 11.7958 24.4537 13.7165 23.0454C15.6372 24.4536 17.7061 25.6478 19.8862 26.6066V31.1084C19.8862 33.3174 18.824 35.1925 16.7291 36.6814H16.7291ZM32.4544 30.1745V35.4389H30.8072V30.121C30.8072 29.9967 30.7578 29.8775 30.6699 29.7896C30.582 29.7017 30.4628 29.6523 30.3384 29.6523H30.0241V27.3096L30.7104 27.6025C31.1945 27.8492 31.6083 28.2145 31.9133 28.6642C32.2182 29.1139 32.4044 29.6335 32.4545 30.1745H32.4544ZM27.5197 26.2409V29.6523H20.8237V26.2991C20.8235 26.1912 20.7859 26.0867 20.7174 26.0034C21.663 26.3841 22.6763 26.5685 23.6954 26.5451C24.7145 26.5218 25.7183 26.2913 26.6455 25.8677L27.5197 26.2409ZM26.1514 25.0617C25.3225 25.4231 24.428 25.6096 23.5237 25.6096C22.6195 25.6096 21.7249 25.4231 20.896 25.0617V23.7812C22.5896 24.4245 24.4611 24.4197 26.1514 23.7677V25.0617ZM31.324 14.8695C31.3657 15.0399 31.372 15.2169 31.3426 15.3898C31.3133 15.5627 31.2488 15.7277 31.1533 15.8747C31.0577 16.0217 30.933 16.1476 30.787 16.2446C30.6409 16.3416 30.4765 16.4077 30.3039 16.4388C30.1954 16.458 30.0972 16.5147 30.0264 16.5991C29.9557 16.6835 29.9169 16.7902 29.9169 16.9003V16.9113C29.9169 17.7532 29.751 18.5869 29.4289 19.3647C29.1067 20.1425 28.6345 20.8492 28.0392 21.4445C27.4438 22.0399 26.7371 22.5121 25.9593 22.8343C25.1815 23.1564 24.3478 23.3223 23.5059 23.3223C22.664 23.3223 21.8304 23.1564 21.0526 22.8343C20.2748 22.5121 19.568 22.0399 18.9727 21.4445C18.3774 20.8492 17.9052 20.1425 17.583 19.3647C17.2608 18.5869 17.095 17.7532 17.095 16.9113V16.9009C17.095 16.7906 17.0561 16.6839 16.9852 16.5994C16.9142 16.515 16.8158 16.4582 16.7071 16.4392C16.5342 16.4086 16.3694 16.3428 16.2228 16.2459C16.0763 16.149 15.9513 16.0232 15.8553 15.876C15.7594 15.7289 15.6947 15.5637 15.6652 15.3905C15.6356 15.2174 15.6419 15.0401 15.6837 14.8695C15.7129 14.74 15.7731 14.6196 15.8591 14.5186C15.945 14.4175 16.0542 14.3387 16.1772 14.2891C16.2652 14.394 16.3733 14.4804 16.4951 14.5432L17.3195 14.9665C17.4088 15.0123 17.508 15.0353 17.6083 15.0336C17.7087 15.0318 17.807 15.0054 17.8947 14.9565C17.9824 14.9076 18.0566 14.8379 18.1109 14.7535C18.1652 14.669 18.1977 14.5725 18.2058 14.4725L18.3571 12.5796H28.4427C28.5189 12.9087 28.6097 13.2352 28.7162 13.5544L29.1315 14.8002C29.1635 14.8972 29.2196 14.9846 29.2944 15.0543C29.3693 15.1239 29.4605 15.1736 29.5596 15.1986C29.6091 15.2112 29.66 15.2176 29.7111 15.2176C29.8653 15.2175 30.0136 15.1589 30.1262 15.0535L30.7055 14.5127C30.7701 14.452 30.8275 14.3841 30.8768 14.3105C30.9888 14.3637 31.0872 14.4417 31.1647 14.5386C31.2421 14.6354 31.2966 14.7486 31.324 14.8695ZM16.7976 12.5796H17.4172L17.3109 13.9077L16.924 13.7091C16.9087 13.7012 16.8957 13.6895 16.8862 13.6751C16.8767 13.6607 16.8711 13.6442 16.8698 13.627L16.7976 12.5796ZM30.1402 13.6703C30.1362 13.7301 30.1095 13.7862 30.0656 13.827L29.8593 14.0196L29.6054 13.258C29.5312 13.0351 29.4652 12.8083 29.4069 12.5796H30.2155L30.1402 13.6703ZM31.6715 11.6421H29.027C28.9602 11.6072 28.8861 11.589 28.8108 11.589C28.7355 11.589 28.6614 11.6072 28.5947 11.6421H17.9188C17.9164 11.6421 17.914 11.6421 17.9116 11.6421H15.3762V10.5884H31.6712L31.6715 11.6421ZM21.7898 2.66922C21.8977 2.64054 21.9918 2.57427 22.0552 2.48235C22.1186 2.39043 22.1471 2.27889 22.1356 2.16781L22.0887 1.71875H24.9583L24.9114 2.16781C24.8999 2.27889 24.9284 2.39043 24.9918 2.48235C25.0552 2.57427 25.1493 2.64054 25.2573 2.66922C25.6155 2.76505 25.965 2.89083 26.3022 3.04523V3.77789C26.302 4.6285 26.0443 5.45913 25.563 6.16045C25.0816 6.86177 24.3992 7.4009 23.6055 7.70688C22.7708 7.426 22.0454 6.88982 21.532 6.17414C21.0187 5.45846 20.7433 4.59951 20.7448 3.71875V3.04609C21.0819 2.89124 21.4314 2.76517 21.7898 2.66922ZM19.8073 3.5668V3.71875C19.8053 4.80606 20.1486 5.86593 20.7875 6.7457C21.4265 7.62547 22.3282 8.27975 23.3627 8.6143L23.4693 8.64891C23.5661 8.68038 23.6705 8.67951 23.7667 8.64641C24.7804 8.29748 25.6599 7.64089 26.2825 6.76822C26.9052 5.89555 27.2399 4.85031 27.2402 3.77828V3.56508C27.9573 4.03899 28.5857 4.63512 29.0967 5.32633C30.0195 6.58653 30.5504 8.09071 30.6232 9.65094H16.4251C16.5004 8.09321 17.031 6.59179 17.9511 5.33258C18.4617 4.63988 19.09 4.04222 19.8073 3.5668Z" fill="black"/>
<path d="M22.6914 5.8313H24.5377C24.6621 5.8313 24.7813 5.78191 24.8692 5.69401C24.9571 5.6061 25.0065 5.48687 25.0065 5.36255C25.0065 5.23823 24.9571 5.119 24.8692 5.03109C24.7813 4.94319 24.6621 4.8938 24.5377 4.8938H22.6914C22.5671 4.8938 22.4479 4.94319 22.3599 5.03109C22.272 5.119 22.2227 5.23823 22.2227 5.36255C22.2227 5.48687 22.272 5.6061 22.3599 5.69401C22.4479 5.78191 22.5671 5.8313 22.6914 5.8313Z" fill="black"/>
<path d="M22.6914 4.12915H24.5377C24.6621 4.12915 24.7813 4.07976 24.8692 3.99186C24.9571 3.90395 25.0065 3.78472 25.0065 3.6604C25.0065 3.53608 24.9571 3.41685 24.8692 3.32894C24.7813 3.24104 24.6621 3.19165 24.5377 3.19165H22.6914C22.5671 3.19165 22.4479 3.24104 22.3599 3.32894C22.272 3.41685 22.2227 3.53608 22.2227 3.6604C22.2227 3.78472 22.272 3.90395 22.3599 3.99186C22.4479 4.07976 22.5671 4.12915 22.6914 4.12915Z" fill="black"/>
<path d="M16.2759 28.5372L12.8584 31.6676L11.1884 29.8568C11.1466 29.8115 11.0964 29.7749 11.0405 29.7491C10.9847 29.7232 10.9242 29.7087 10.8627 29.7062C10.8012 29.7037 10.7398 29.7133 10.6821 29.7346C10.6243 29.7558 10.5712 29.7882 10.526 29.8299C10.4807 29.8717 10.4441 29.9219 10.4183 29.9778C10.3925 30.0336 10.3779 30.0941 10.3754 30.1556C10.3729 30.2171 10.3825 30.2785 10.4038 30.3363C10.425 30.394 10.4574 30.4471 10.4992 30.4923L12.4859 32.6466C12.57 32.7378 12.6868 32.7919 12.8107 32.7972C12.9346 32.8024 13.0556 32.7583 13.147 32.6745L16.9092 29.2286C16.9546 29.1871 16.9913 29.1369 17.0173 29.0812C17.0434 29.0254 17.0582 28.965 17.0609 28.9035C17.0636 28.842 17.0541 28.7806 17.0331 28.7227C17.012 28.6648 16.9798 28.6117 16.9382 28.5663C16.8966 28.5209 16.8465 28.4841 16.7907 28.4581C16.7349 28.4321 16.6746 28.4173 16.6131 28.4146C16.5516 28.4119 16.4901 28.4213 16.4323 28.4424C16.3744 28.4634 16.3213 28.4957 16.2759 28.5372Z" fill="black"/>
</svg>
