<svg width="40" height="40" viewBox="0 0 40 40" fill="none" xmlns="http://www.w3.org/2000/svg">
<g clip-path="url(#clip0)">
<path d="M7.33464 11.3333L6.66797 12.6667V18.6667L7.33464 24.6667L10.0013 29L14.3346 32.6667L19.668 34L25.3346 32.6667L31.0013 28.3333L33.3346 21.3333L33.0013 11.6667C31.3346 11.4444 27.9346 10.9333 27.668 10.6667C27.4013 10.4 25.7791 9.44444 25.0013 9L22.0013 6H19.3346L16.668 7L14.0013 9.66667L10.0013 11.3333H7.33464Z" fill="white"/>
<path d="M11.1329 21.97C14.003 22.8673 16.9925 23.3243 19.9996 23.3254C23.0066 23.3243 25.9962 22.8673 28.8662 21.97C29.0937 21.8993 29.2661 21.7126 29.3186 21.4802C29.3711 21.2479 29.2956 21.0052 29.1206 20.8436C28.9456 20.6819 28.6977 20.626 28.4702 20.6967C22.9565 22.4234 17.0467 22.4234 11.5329 20.6967C11.1813 20.5873 10.8076 20.7837 10.6982 21.1354C10.5889 21.487 10.7853 21.8607 11.1369 21.97H11.1329Z" fill="black"/>
<path d="M11.2321 17.992C14.1336 18.4407 17.0654 18.6649 20.0014 18.6627C22.9374 18.6649 25.8692 18.4407 28.7708 17.992C29.0084 17.9578 29.2093 17.7986 29.2967 17.575C29.3842 17.3515 29.3447 17.0981 29.1934 16.9118C29.042 16.7255 28.8022 16.6349 28.5654 16.6747C22.8895 17.548 17.1134 17.548 11.4374 16.6747C11.076 16.6227 10.7401 16.8711 10.6838 17.2319C10.6276 17.5926 10.872 17.9315 11.2321 17.992Z" fill="black"/>
<path d="M28.3807 25.4C23.0932 27.9834 16.9096 27.9834 11.6221 25.4C11.4054 25.2783 11.1389 25.2872 10.9309 25.4232C10.7228 25.5592 10.6077 25.7996 10.6322 26.0469C10.6567 26.2943 10.8167 26.5075 11.0474 26.6C16.6977 29.3601 23.3051 29.3601 28.9554 26.6C29.1861 26.5075 29.3461 26.2943 29.3706 26.0469C29.3951 25.7996 29.28 25.5592 29.0719 25.4232C28.8639 25.2872 28.5974 25.2783 28.3807 25.4Z" fill="black"/>
<path d="M37.3333 12H33.8773C33.5958 11.2038 32.8445 10.6702 32 10.6667H30.9933C28.5175 10.6344 26.1879 9.48832 24.6513 7.54669C23.513 6.14705 21.8048 5.33453 20.0007 5.33453C18.1965 5.33453 16.4884 6.14705 15.35 7.54669C13.8131 9.4886 11.483 10.6347 9.00667 10.6667H8C7.15548 10.6702 6.40417 11.2038 6.12267 12H2.66667C1.19391 12 0 13.1939 0 14.6667V18C0 21.504 3.13733 24.7287 6.94533 25.254C8.82538 30.3927 13.4604 34.0179 18.9007 34.6047C19.6317 34.6874 20.3697 34.6874 21.1007 34.6047C26.5404 34.0175 31.1748 30.3923 33.0547 25.254C36.8627 24.7287 40 21.504 40 18V14.6667C40 13.1939 38.8061 12 37.3333 12ZM8 12H9.00667C11.8846 11.9679 14.5949 10.6406 16.3847 8.38669C17.2696 7.29786 18.5979 6.66569 20.001 6.66569C21.4041 6.66569 22.7324 7.29786 23.6173 8.38669C25.4065 10.6404 28.116 11.9677 30.9933 12H32C32.3682 12 32.6667 12.2985 32.6667 12.6667V13.3334L30.6667 13.33H30.6533C27.4824 13.2447 24.5179 11.738 22.58 9.22669C21.9475 8.44939 20.9983 7.99867 19.9962 7.99984C18.9941 8.001 18.046 8.45392 17.4153 9.23269C15.4783 11.7405 12.5163 13.2444 9.34867 13.3287H9.33333L7.33333 13.3334V12.6667C7.33333 12.2985 7.63181 12 8 12ZM1.33333 18V14.6667C1.33333 13.9303 1.93029 13.3334 2.66667 13.3334H6V20C6.00211 21.2878 6.16902 22.57 6.49667 23.8154C3.848 23.1774 1.33333 20.9147 1.33333 18ZM20.9613 33.2787C20.3225 33.3507 19.6775 33.3507 19.0387 33.2787C13.9732 32.7258 9.69331 29.2741 8.08 24.4407V24.434C7.58801 23.0074 7.33571 21.5091 7.33333 20V14.6667L9.33333 14.6634C12.9102 14.5936 16.2628 12.9065 18.45 10.0754C18.8277 9.6079 19.3961 9.33579 19.9971 9.33476C20.598 9.33372 21.1674 9.60387 21.5467 10.07C23.7369 12.8918 27.0803 14.5785 30.6513 14.6634H30.6667L32.6667 14.6667V20C32.6648 21.5086 32.4132 23.0064 31.922 24.4327V24.4394C30.3088 29.2739 26.0279 32.7263 20.9613 33.2787ZM38.6667 18C38.6667 20.9147 36.152 23.1774 33.5033 23.8167C33.8311 22.5709 33.998 21.2882 34 20V13.3334H37.3333C38.0697 13.3334 38.6667 13.9303 38.6667 14.6667V18Z" fill="black"/>
</g>
<defs>
<clipPath id="clip0">
<rect width="40" height="40" fill="white"/>
</clipPath>
</defs>
</svg>
