<svg width="40" height="40" viewBox="0 0 40 40" fill="none" xmlns="http://www.w3.org/2000/svg">
<path d="M1.33203 30V38.6667H25.9987L26.6654 35L25.9987 29L22.332 26L20.332 25.3333L16.6654 25.6667V23.3333L18.332 21.6667L19.6654 19.3333L21.332 18.6667L21.6654 17L21.332 16L21.6654 14.3333L19.6654 9.33333L16.6654 6.99999L12.332 6.33333L9.66537 7.66666L7.33203 9.99999L6.33203 13V16.3333L5.33203 18L6.33203 19L7.9987 19.3333L8.9987 21.6667L10.6654 23.3333V25.6667H9.66537L5.9987 26L2.9987 27L1.33203 30Z" fill="white"/>
<rect x="25.332" y="12" width="2" height="3.33333" fill="white"/>
<rect x="30" y="9.99999" width="2" height="5.33333" fill="white"/>
<rect x="35.332" y="6.66666" width="2" height="8.66667" fill="white"/>
<path d="M27.6831 17.6831L20.3662 25H17.5V23.75H17.4838C18.6888 22.8481 19.5625 21.5269 19.8738 20H20C21.3787 20 22.5 18.8787 22.5 17.5C22.5 16.8713 22.2594 16.3031 21.875 15.8638V13.75C21.875 9.27 18.23 5.625 13.75 5.625C9.27 5.625 5.625 9.27 5.625 13.75V15.8638C5.24062 16.3031 5 16.8713 5 17.5C5 18.8787 6.12125 20 7.5 20H7.62625C7.9375 21.5269 8.81125 22.8481 10.0162 23.75H10V25H6.875C3.42875 25 0.625 27.8037 0.625 31.25V38.75C0.625 39.0956 0.904375 39.375 1.25 39.375H26.25C26.5956 39.375 26.875 39.0956 26.875 38.75V31.25C26.875 28.27 24.7769 25.7744 21.9812 25.1525L28.3838 18.75H39.375V17.5H28.125C27.9587 17.5 27.8 17.5656 27.6831 17.6831ZM10.3319 26.25L12.7644 29.1687L10.365 30.3681L8.99187 26.25H10.3319ZM13.6375 33.125H13.8631L14.8631 38.125H12.6375L13.6375 33.125ZM13.9888 31.875H13.5112L12.8387 30.5294L13.75 30.0737L14.6613 30.5294L13.9888 31.875ZM14.7356 29.1687L17.1681 26.25H18.5081L17.135 30.3687L14.7356 29.1687ZM20 18.75V16.25C20.6894 16.25 21.25 16.8106 21.25 17.5C21.25 18.1894 20.6894 18.75 20 18.75ZM6.25 17.5C6.25 16.8106 6.81063 16.25 7.5 16.25V18.75C6.81063 18.75 6.25 18.1894 6.25 17.5ZM7.5 15C7.28312 15 7.07625 15.0363 6.875 15.0887V13.75C6.875 9.95937 9.95938 6.875 13.75 6.875C17.5406 6.875 20.625 9.95937 20.625 13.75V15.0887C20.4237 15.0363 20.2169 15 20 15C20 14.6544 19.7206 14.375 19.375 14.375C18.3969 14.375 17.4619 13.9075 16.875 13.1244L16.125 12.1244C15.8894 11.8106 15.3606 11.8106 15.125 12.1244L14.375 13.125C13.7881 13.9075 12.8531 14.375 11.875 14.375H8.125C7.77938 14.375 7.5 14.6544 7.5 15ZM8.75 18.75V15.625H11.875C13.2444 15.625 14.5531 14.9706 15.375 13.875L15.625 13.5413L15.875 13.8744C16.5706 14.8019 17.6144 15.4137 18.75 15.5794V18.75C18.75 21.5069 16.5069 23.75 13.75 23.75C10.9931 23.75 8.75 21.5069 8.75 18.75ZM13.75 25C14.6388 25 15.4838 24.8106 16.25 24.4744V25.3988L13.75 28.3988L11.25 25.3988V24.4744C12.0162 24.8106 12.8612 25 13.75 25ZM1.875 31.25C1.875 28.4931 4.11813 26.25 6.875 26.25H7.675L9.4075 31.4475C9.46438 31.6188 9.59375 31.7575 9.76062 31.8269C9.8375 31.8594 9.91875 31.875 10 31.875C10.0956 31.875 10.1919 31.8531 10.2794 31.8094L11.72 31.0888L12.4694 32.5881L11.3625 38.125H5.625V34.375H4.375V38.125H1.875V31.25ZM25.625 31.25V38.125H23.125V34.375H21.875V38.125H16.1375L15.03 32.5881L15.7794 31.0888L17.22 31.8094C17.3081 31.8531 17.4044 31.875 17.5 31.875C17.5812 31.875 17.6625 31.8594 17.7394 31.8275C17.9069 31.7581 18.0362 31.6194 18.0925 31.4481L19.825 26.25H20.625C23.3819 26.25 25.625 28.4931 25.625 31.25Z" fill="black"/>
<path d="M38.125 15V6.25C38.125 5.90438 37.8456 5.625 37.5 5.625H35C34.6544 5.625 34.375 5.90438 34.375 6.25V15H33.125V10C33.125 9.65438 32.8456 9.375 32.5 9.375H30C29.6544 9.375 29.375 9.65438 29.375 10V15H28.125V11.875C28.125 11.5294 27.8456 11.25 27.5 11.25H25C24.6544 11.25 24.375 11.5294 24.375 11.875V15H23.125V16.25H39.375V15H38.125ZM35.625 6.875H36.875V15H35.625V6.875ZM30.625 10.625H31.875V15H30.625V10.625ZM25.625 12.5H26.875V15H25.625V12.5Z" fill="black"/>
<path d="M29.0092 4.375H32.5005C32.6667 4.375 32.8255 4.30937 32.9423 4.19187L34.3755 2.75875V4.375H35.6255V1.25C35.6255 0.904375 35.3461 0.625 35.0005 0.625H31.8755V1.875H33.4917L32.2417 3.125H28.7505C28.5842 3.125 28.4255 3.19063 28.3086 3.30813L24.5586 7.05813L25.4423 7.94187L29.0092 4.375Z" fill="black"/>
</svg>
