<svg width="26" height="26" viewBox="0 0 26 26" fill="none" xmlns="http://www.w3.org/2000/svg">
<g clip-path="url(#clip0)">
<path d="M1.94922 7.58335L2.16589 6.50002L3.03255 6.06668L5.19922 7.36668L4.98255 5.85002L5.41589 5.20002L6.28255 4.76668L6.93255 5.63335L7.36589 8.66668L10.6159 10.6167L11.9159 9.75002V5.85002L9.31589 4.11668L9.09922 3.25002L9.53255 2.60002L10.3992 2.38335L12.1326 3.46668L11.9159 1.73335L12.3492 0.650016L13.2159 0.43335L13.8659 1.08335L14.0826 3.46668L15.5992 2.38335L16.4659 2.81668L16.6826 3.46668L16.0326 4.33335L14.0826 6.06668V9.96668L15.1659 10.6167L18.6326 8.66668L19.0659 4.98335L20.1492 4.76668L21.0159 5.85002L20.7992 7.36668L22.7492 6.28335L23.8326 6.50002L24.0492 7.58335L21.8826 9.10002L23.6159 9.96668L23.3992 11.2667L22.5326 11.4834L19.4992 10.4L16.2492 12.35V13.65L19.4992 15.6L22.7492 14.3L23.6159 14.7334L23.3992 15.8167L21.6659 16.9L24.0492 18.2V19.2834L22.9659 19.9334L20.7992 18.6334C20.8714 19.1389 21.0159 20.2367 21.0159 20.5834C21.0159 20.93 20.4381 21.1611 20.1492 21.2334L19.0659 21.0167L18.4159 17.3334L14.9492 15.6L13.8659 16.25V20.15L16.6826 21.8834V22.9667L15.5992 23.6167L14.0826 22.5334V24.9167L12.9992 25.5667L11.9159 24.9167V22.5334L10.1826 23.6167L9.31589 23.1834V22.1L11.9159 20.15L12.1326 16.25L10.8326 15.3834L7.36589 17.55L6.93255 20.5834L6.06589 21.2334L5.19922 20.5834V18.6334L2.81589 19.9334L1.94922 19.2834L2.16589 18.2L4.11589 16.9L2.38255 15.8167V14.95L3.24922 14.3L6.49922 15.6L9.74922 13.65V12.35L6.28255 10.4L3.89922 11.4834H2.81589L2.16589 10.6167L2.81589 9.75002L4.11589 9.10002L1.94922 7.58335Z" fill="white"/>
<path d="M23.7588 17.636L22.5632 16.9457L23.2659 16.6463C23.9599 16.3506 24.2821 15.5499 23.9864 14.8559C23.6915 14.164 22.8887 13.8408 22.1962 14.1355L19.6069 15.2387L16.5924 13.4983C16.6378 13.1725 16.6396 12.8399 16.5924 12.5016L17.3007 12.0927C17.4828 11.9875 17.5452 11.7546 17.4401 11.5724C17.3349 11.3902 17.1019 11.3279 16.9198 11.433L15.9802 11.9755C15.8366 12.0584 15.7631 12.2248 15.7986 12.3868C15.8876 12.7932 15.8876 13.2066 15.7986 13.6131C15.7631 13.7751 15.8365 13.9415 15.9802 14.0245L19.3907 15.9935C19.4944 16.0534 19.6203 16.061 19.7304 16.0141L22.4946 14.8363C22.8005 14.7062 23.1553 14.8489 23.2856 15.1545C23.4161 15.4611 23.2739 15.8148 22.9672 15.9455L21.563 16.5438C21.2748 16.6665 21.2503 17.0672 21.5219 17.2241L23.3779 18.2957C23.6657 18.4618 23.7647 18.8313 23.5985 19.1191C23.4357 19.4011 23.069 19.5095 22.7751 19.3398L20.9191 18.2681C20.6475 18.1111 20.3128 18.3331 20.3506 18.6438L20.5346 20.1592C20.554 20.319 20.51 20.4768 20.4107 20.6036C20.3114 20.7303 20.1687 20.8108 20.0091 20.8302C19.6751 20.8713 19.3775 20.631 19.3378 20.3044L18.9756 17.3215C18.9612 17.2026 18.8917 17.0974 18.788 17.0376L15.3763 15.0679C15.2327 14.985 15.0518 15.0046 14.9292 15.1164C14.6251 15.3938 14.2581 15.6062 13.8681 15.7305C13.7102 15.7808 13.6029 15.9276 13.6029 16.0934V20.0312C13.6029 20.1509 13.6592 20.2637 13.7549 20.3357L16.1572 22.1408C16.4234 22.3409 16.4772 22.7184 16.2769 22.9848C16.0751 23.2535 15.6973 23.3034 15.433 23.1046L14.2126 22.1876C13.9613 21.9988 13.6029 22.1795 13.6029 22.492V24.6353C13.6029 24.9676 13.3325 25.2381 13.0001 25.2381C12.6677 25.2381 12.3973 24.9677 12.3973 24.6353V22.492C12.3973 22.1784 12.0379 21.9994 11.7876 22.1876L10.5673 23.1046C10.1361 23.4281 9.53352 23.0653 9.60832 22.5379C9.63092 22.3785 9.7143 22.2375 9.84303 22.1408L12.2453 20.3357C12.341 20.2638 12.3973 20.151 12.3973 20.0312V16.0934C12.3973 15.9276 12.2901 15.7809 12.1321 15.7305C11.7421 15.6062 11.3751 15.3939 11.071 15.1164C10.9484 15.0045 10.7676 14.9849 10.6238 15.0679L7.21222 17.0376C7.10852 17.0974 7.039 17.2026 7.02458 17.3215L6.66241 20.3044C6.6228 20.6309 6.32614 20.8705 5.99129 20.8302C5.6607 20.7901 5.42533 20.4899 5.46555 20.1592L5.64953 18.6438C5.68731 18.3328 5.35266 18.1112 5.08099 18.2681L3.22494 19.3397C2.93142 19.5093 2.56453 19.4013 2.40152 19.1191C2.23537 18.8312 2.33434 18.4618 2.62217 18.2956L4.47816 17.224C4.74933 17.0675 4.72562 16.6666 4.43703 16.5438L3.03273 15.9454C2.72622 15.8148 2.58388 15.4611 2.71444 15.1545C2.8451 14.848 3.19868 14.7057 3.5053 14.8362L6.26972 16.014C6.37976 16.0609 6.50565 16.0533 6.60939 15.9935L10.0199 14.0245C10.1636 13.9415 10.237 13.7752 10.2015 13.6131C10.1125 13.2068 10.1124 12.7933 10.2015 12.3868C10.237 12.2248 10.1636 12.0584 10.0199 11.9754L6.60939 10.0064C6.50575 9.94653 6.37986 9.93897 6.26972 9.98589L3.5053 11.1637C3.1967 11.2949 2.84433 11.1502 2.71449 10.8454C2.58418 10.5396 2.72698 10.1847 3.03273 10.0544L4.43698 9.45614C4.72562 9.33315 4.74928 8.93244 4.47816 8.77588L2.62217 7.70425C2.33363 7.53774 2.23496 7.16942 2.40152 6.88083C2.56798 6.5924 2.9364 6.49347 3.22499 6.66019L5.08109 7.73182C5.35332 7.88894 5.68731 7.66626 5.64963 7.35609L5.46565 5.84068C5.42543 5.51005 5.66055 5.20978 5.99149 5.16966C6.32131 5.12944 6.62229 5.3639 6.66251 5.69545L7.02468 8.67838C7.0391 8.79726 7.10862 8.90243 7.21232 8.9623L10.6239 10.9319C10.7677 11.0149 10.9485 10.9953 11.0711 10.8835C11.3751 10.6061 11.7421 10.3937 12.1322 10.2693C12.2902 10.219 12.3974 10.0723 12.3974 9.90647V5.96865C12.3974 5.84891 12.3411 5.73613 12.2454 5.66417L9.84313 3.85911C9.57744 3.65943 9.52367 3.28076 9.72334 3.01502C9.92342 2.74868 10.301 2.695 10.5673 2.89523L11.7877 3.81223C12.0385 4.00058 12.3974 3.82097 12.3974 3.50775V1.36459C12.3974 1.03223 12.6678 0.761767 13.0002 0.761767C13.3326 0.761767 13.603 1.03218 13.603 1.36459V3.50785C13.603 3.82153 13.9623 4.00053 14.2127 3.81234L15.433 2.89538C15.6988 2.69581 16.0775 2.74954 16.2771 3.01512C16.4768 3.28086 16.423 3.65954 16.1573 3.85921L13.7551 5.66427C13.6594 5.73623 13.6031 5.84901 13.6031 5.96875V7.14571C13.6031 7.35604 13.7735 7.52656 13.9839 7.52656C14.1943 7.52656 14.3648 7.35604 14.3648 7.14571V6.15898L16.6149 4.46817C17.2165 4.01612 17.3381 3.15899 16.8861 2.55749C16.4343 1.95624 15.5772 1.83447 14.9755 2.28632L14.3648 2.74522V1.36459C14.3648 0.612166 13.7527 0 13.0002 0C12.2479 0 11.6357 0.612166 11.6357 1.36459V2.74522L11.0249 2.28632C10.4218 1.83315 9.56729 1.95451 9.11422 2.55754C8.66227 3.15909 8.78394 4.01622 9.38539 4.46817L11.6356 6.15893V9.63997C11.3282 9.76555 11.0365 9.93435 10.7736 10.1388L7.75791 8.39771L7.41864 5.60374C7.32774 4.85406 6.64677 4.32208 5.89958 4.41353C5.15091 4.50433 4.61847 5.18383 4.70942 5.9326L4.80149 6.69091L3.60595 6.00064C2.95306 5.62344 2.11898 5.84673 1.74188 6.50013C1.36483 7.15322 1.58806 7.98705 2.24136 8.3641L3.4369 9.05436L2.73424 9.35377C2.04199 9.6487 1.71882 10.4518 2.01371 11.144C2.30966 11.8387 3.11129 12.1598 3.80389 11.8645L6.39332 10.7613L9.40773 12.5017C9.36284 12.8241 9.3601 13.1565 9.40778 13.4984L6.39332 15.2388L3.80394 14.1356C3.11033 13.84 2.30941 14.1618 2.01371 14.8561C1.71811 15.55 2.04017 16.3507 2.73419 16.6463L3.4369 16.9457L2.24136 17.636C1.58979 18.0121 1.36574 18.8484 1.74188 19.5C2.11629 20.1487 2.95087 20.3778 3.6059 19.9995L4.80149 19.3092L4.70942 20.0675C4.6655 20.4293 4.76508 20.7866 4.98983 21.0735C5.73819 22.0288 7.27259 21.5999 7.41859 20.3964L7.75786 17.6023L10.7735 15.8612C11.0364 16.0657 11.3282 16.2344 11.6355 16.3601V19.8411L9.38539 21.5319C8.78384 21.9839 8.66217 22.841 9.11417 23.4425C9.56724 24.0456 10.4217 24.1667 11.0248 23.7138L11.6355 23.2548V24.6355C11.6355 25.3879 12.2477 26 13 26C13.7525 26 14.3646 25.3879 14.3646 24.6355V23.2549L14.9753 23.7137C15.5837 24.1711 16.4385 24.0381 16.8859 23.4426C17.339 22.8395 17.2177 21.985 16.6147 21.5319L14.3646 19.8411V16.3601C14.672 16.2344 14.9637 16.0657 15.2266 15.8612L18.2423 17.6023L18.5815 20.3964C18.7281 21.6048 20.2657 22.0239 21.0103 21.0735C21.2351 20.7866 21.3347 20.4293 21.2907 20.0675L21.1986 19.3092L22.3941 19.9995C23.0461 20.3761 23.8821 20.1515 24.2582 19.5C24.6344 18.8484 24.4104 18.0122 23.7588 17.636Z" fill="#333333"/>
<path d="M23.2647 9.35382L22.562 9.05447L23.7576 8.36415C24.4108 7.98705 24.6342 7.15338 24.2571 6.50018C23.8801 5.84698 23.0462 5.62345 22.3931 6.0007L21.1975 6.69097L21.2896 5.9327C21.3803 5.18404 20.8482 4.50433 20.0995 4.41349C19.3506 4.32228 18.6711 4.85488 18.5802 5.60364L18.241 8.39767L15.2252 10.1388C14.9624 9.9344 14.6707 9.76556 14.3633 9.63992V8.9231C14.3633 8.71276 14.1928 8.54224 13.9824 8.54224C13.772 8.54224 13.6016 8.71276 13.6016 8.9231V9.90647C13.6016 10.0723 13.7088 10.219 13.8667 10.2694C14.2569 10.3937 14.6238 10.6061 14.9279 10.8835C15.0504 10.9952 15.2312 11.0149 15.375 10.9319L18.7867 8.9623C18.8904 8.90243 18.9599 8.79726 18.9743 8.67838L19.3365 5.69545C19.3763 5.36705 19.6738 5.1294 20.0076 5.16967C20.3382 5.20978 20.5735 5.5099 20.5333 5.84074L20.3494 7.3561C20.3319 7.49935 20.397 7.64017 20.5174 7.71974C20.6378 7.79936 20.7929 7.80398 20.9179 7.73182L22.7741 6.66019C23.0625 6.49358 23.4307 6.59225 23.5974 6.88089C23.764 7.16943 23.6654 7.53774 23.3768 7.7043L21.5208 8.77588C21.3958 8.84804 21.3223 8.98464 21.3311 9.12871C21.3398 9.27278 21.4292 9.39953 21.562 9.4561L22.9662 10.0544C23.272 10.1847 23.4147 10.5396 23.2845 10.8453C23.1543 11.1506 22.8017 11.2947 22.4936 11.1636L19.7293 9.98584C19.6193 9.93897 19.4933 9.94649 19.3896 10.0064L18.458 10.5442C18.2758 10.6494 18.2134 10.8823 18.3186 11.0645C18.4237 11.2467 18.6567 11.309 18.8389 11.2039L19.6058 10.7612L22.1952 11.8644C22.8874 12.1592 23.689 11.8394 23.9853 11.1439C24.2802 10.4519 23.9569 9.64876 23.2647 9.35382Z" fill="#333333"/>
<path d="M12.9995 11.3403C12.0843 11.3403 11.3398 12.0848 11.3398 13C11.3398 13.9152 12.0843 14.6597 12.9995 14.6597C13.9147 14.6597 14.6593 13.9152 14.6593 13C14.6593 12.0848 13.9147 11.3403 12.9995 11.3403ZM12.9995 13.898C12.5044 13.898 12.1016 13.4952 12.1016 13C12.1016 12.5049 12.5044 12.1021 12.9995 12.1021C13.4946 12.1021 13.8974 12.5049 13.8974 13C13.8974 13.4951 13.4946 13.898 12.9995 13.898Z" fill="#333333"/>
</g>
<defs>
<clipPath id="clip0">
<rect width="26" height="26" fill="white"/>
</clipPath>
</defs>
</svg>
