<svg width="26" height="26" viewBox="0 0 26 26" fill="none" xmlns="http://www.w3.org/2000/svg">
<path d="M0.433594 6.28331V9.53331V16.4666H14.0836C14.0836 16.4666 16.0336 16.6833 16.0336 18.2C16.0336 19.7166 14.0836 19.7166 14.0836 19.7166L14.5169 21.6666L17.5503 23.1833L19.7169 22.3166L21.2336 20.5833C21.2336 20.5833 21.8836 19.9333 21.8836 16.9C21.8836 13.8666 19.0669 13 19.0669 13L23.1836 12.35L25.3503 9.53331C25.2058 8.37775 24.8736 6.02331 24.7003 5.84998C24.4836 5.63331 22.5336 4.11664 22.3169 4.11664H19.5003L16.9003 6.06664L16.4669 8.44998H12.1336L13.0003 6.06664L12.1336 3.89998L9.31693 2.59998L6.93359 3.89998L6.28359 6.28331H0.433594Z" fill="white"/>
<path d="M20.913 3.3913C18.1085 3.3913 15.8261 5.67314 15.8261 8.47825C15.8261 8.79094 16.0794 9.04347 16.3913 9.04347C16.7032 9.04347 16.9565 8.79094 16.9565 8.47825C16.9565 6.29714 18.7314 4.52173 20.913 4.52173C23.0947 4.52173 24.8696 6.29714 24.8696 8.47825C24.8696 10.6594 23.0947 12.4348 20.913 12.4348H0.565217C0.253354 12.4348 0 12.6873 0 13C0 13.3127 0.253354 13.5652 0.565217 13.5652H20.913C23.7176 13.5652 26 11.2834 26 8.47825C26 5.67314 23.7176 3.3913 20.913 3.3913Z" fill="#333333"/>
<path d="M0 9.60869C0 9.92138 0.253354 10.1739 0.565217 10.1739H9.6087C11.7904 10.1739 13.5652 8.3985 13.5652 6.21739C13.5652 4.03628 11.7904 2.26086 9.6087 2.26086C7.42703 2.26086 5.65217 4.03628 5.65217 6.21739C5.65217 6.53008 5.90553 6.7826 6.21739 6.7826C6.52925 6.7826 6.78261 6.53008 6.78261 6.21739C6.78261 4.65917 8.05048 3.3913 9.6087 3.3913C11.1669 3.3913 12.4348 4.65917 12.4348 6.21739C12.4348 7.7756 11.1669 9.04347 9.6087 9.04347H0.565217C0.253354 9.04347 0 9.296 0 9.60869Z" fill="#333333"/>
<path d="M17.5217 22.6087C15.9635 22.6087 14.6957 21.3408 14.6957 19.7826C14.6957 19.4699 14.4423 19.2174 14.1304 19.2174C13.8186 19.2174 13.5652 19.4699 13.5652 19.7826C13.5652 21.9637 15.3401 23.7391 17.5217 23.7391C19.7034 23.7391 21.4783 21.9637 21.4783 19.7826C21.4783 17.6015 19.7034 15.8261 17.5217 15.8261H0.565217C0.253354 15.8261 0 16.0786 0 16.3913C0 16.704 0.253354 16.9565 0.565217 16.9565H17.5217C19.08 16.9565 20.3478 18.2244 20.3478 19.7826C20.3478 21.3408 19.08 22.6087 17.5217 22.6087Z" fill="#333333"/>
</svg>
