<svg width="26" height="26" viewBox="0 0 26 26" fill="none" xmlns="http://www.w3.org/2000/svg">
<path d="M20.582 18.4167C19.8887 19.2834 18.8487 20.2222 18.4154 20.5834V23.6167H15.382V21.6667L13.6487 22.1H11.0487L9.0987 21.6667V23.6167H6.28203V20.5834L4.33203 19.0667L3.03203 17.1167L1.08203 16.4667V11.4834L3.03203 10.8334L5.1987 8.23335L4.98203 7.15002L3.46536 4.98335H4.5487L6.4987 5.41669L8.23203 6.71669L9.96536 6.06669L10.6154 3.90002L11.9154 2.81669L13.6487 2.16669L16.032 3.03335L17.332 5.41669L17.1154 6.93335L19.282 8.23335C21.6654 10.1834 22.3154 12.5667 22.3154 14.3C22.3154 16.0334 21.4487 17.3334 20.582 18.4167Z" fill="white"/>
<path d="M22.0949 16.1028C22.0634 16.1028 22.0321 16.0984 22.0018 16.0898C21.912 16.0652 21.8357 16.0059 21.7896 15.925C21.7434 15.8441 21.7313 15.7482 21.7559 15.6583C21.9052 15.1174 21.9814 14.559 21.9825 13.9979C21.9825 11.2257 20.0852 8.65733 17.0284 7.29865C16.9457 7.25928 16.8817 7.18917 16.8499 7.10325C16.8182 7.01734 16.8212 6.92242 16.8584 6.83872C16.8956 6.75502 16.964 6.68915 17.0491 6.65516C17.1341 6.62117 17.2291 6.62173 17.3137 6.65673C20.6259 8.13241 22.6838 10.9432 22.6838 13.9979C22.6826 14.6216 22.5981 15.2425 22.4326 15.8439C22.4124 15.918 22.3684 15.9835 22.3074 16.0303C22.2464 16.077 22.1718 16.1025 22.0949 16.1028V16.1028Z" fill="#333333"/>
<path d="M17.9966 24.1238H15.755C15.5762 24.1236 15.4047 24.0525 15.2782 23.926C15.1517 23.7995 15.0806 23.6281 15.0804 23.4492V22.0695C13.2472 22.4832 11.3448 22.4832 9.5115 22.0695V23.4492C9.51132 23.6281 9.44019 23.7995 9.31371 23.926C9.18724 24.0525 9.01577 24.1236 8.83691 24.1238H6.59529C6.41643 24.1236 6.24495 24.0525 6.11848 23.926C5.99201 23.7995 5.92088 23.6281 5.92069 23.4492V20.6173C4.60554 19.8168 3.5203 18.689 2.77083 17.3441L1.62296 17.107C1.36312 17.054 1.1296 16.9128 0.961963 16.7073C0.794324 16.5018 0.70288 16.2447 0.703125 15.9795V12.0162C0.703893 11.751 0.795591 11.494 0.962921 11.2882C1.13025 11.0824 1.3631 10.9401 1.62261 10.8852L2.77083 10.6512C3.3195 9.65135 4.06451 8.77262 4.96115 8.06775C4.78723 7.26632 4.30448 5.78713 3.06807 5.37148C2.99672 5.34754 2.93495 5.30133 2.89184 5.23964C2.84873 5.17796 2.82657 5.10406 2.82862 5.02883C2.83066 4.9536 2.85681 4.88102 2.90321 4.82177C2.9496 4.76251 3.0138 4.71973 3.08634 4.6997C3.20018 4.66808 5.85745 3.96643 8.30391 6.26567C8.86215 6.07818 9.43271 5.92955 10.0115 5.82086C10.103 5.80348 10.1977 5.82319 10.2748 5.87563C10.3518 5.92808 10.4048 6.00898 10.4222 6.10054C10.4396 6.19209 10.4199 6.2868 10.3674 6.36382C10.315 6.44085 10.2341 6.49389 10.1425 6.51127C9.52798 6.62612 8.92343 6.78918 8.33448 6.99894C8.27175 7.02169 8.20384 7.0261 8.13869 7.01167C8.07355 6.99723 8.01386 6.96454 7.96661 6.91743C7.00052 5.90616 5.67342 5.3184 4.27531 5.28259C5.22396 6.13005 5.57531 7.494 5.69337 8.14821C5.70498 8.2118 5.69882 8.27736 5.67558 8.33768C5.65233 8.39799 5.6129 8.45073 5.56161 8.49008C4.62564 9.18808 3.85858 10.0876 3.31718 11.1221C3.29317 11.1691 3.25887 11.2101 3.21684 11.242C3.17481 11.2739 3.12612 11.296 3.0744 11.3065L1.76421 11.5735C1.66289 11.5953 1.57207 11.6511 1.50687 11.7316C1.44167 11.8122 1.40601 11.9126 1.40583 12.0162V15.9795C1.4055 16.0825 1.44083 16.1826 1.50583 16.2625C1.57083 16.3425 1.6615 16.3976 1.76245 16.4183L3.07545 16.6892C3.12695 16.6999 3.17541 16.7219 3.21725 16.7538C3.25908 16.7857 3.29323 16.8265 3.31718 16.8733C4.03872 18.2269 5.12488 19.3514 6.45264 20.1195C6.50467 20.1506 6.54775 20.1948 6.57767 20.2475C6.6076 20.3003 6.62335 20.3599 6.6234 20.4206V23.4211H8.8088V21.6222C8.8088 21.5684 8.82114 21.5153 8.84487 21.4671C8.86861 21.4188 8.90311 21.3767 8.9457 21.3439C8.9883 21.311 9.03787 21.2884 9.09058 21.2778C9.14329 21.2671 9.19775 21.2687 9.24975 21.2824C11.2465 21.808 13.3454 21.808 15.3422 21.2824C15.3942 21.2687 15.4486 21.2671 15.5013 21.2778C15.5541 21.2884 15.6036 21.311 15.6462 21.3439C15.6888 21.3767 15.7233 21.4188 15.7471 21.4671C15.7708 21.5153 15.7831 21.5684 15.7831 21.6222V23.4211H17.965V20.4206C17.963 20.3674 17.9728 20.3145 17.9936 20.2656C18.0144 20.2167 18.0457 20.173 18.0853 20.1375C18.1249 20.1021 18.1719 20.0758 18.2228 20.0606C18.2737 20.0454 18.3274 20.0416 18.3799 20.0495C18.4325 20.0574 18.4827 20.0768 18.5269 20.1062C18.5711 20.1357 18.6083 20.1746 18.6358 20.2201C18.6633 20.2656 18.6804 20.3166 18.6859 20.3695C18.6914 20.4223 18.6852 20.4758 18.6677 20.526V23.4492C18.668 23.6276 18.5975 23.7988 18.4717 23.9253C18.3459 24.0518 18.175 24.1232 17.9966 24.1238V24.1238Z" fill="#333333"/>
<path d="M20.2772 19.219C20.2084 19.219 20.1411 19.1988 20.0836 19.1609C20.0262 19.123 19.9811 19.069 19.9541 19.0057C19.927 18.9425 19.9191 18.8726 19.9314 18.8049C19.9437 18.7372 19.9756 18.6746 20.0232 18.6248C20.2497 18.3897 20.4604 18.1398 20.6538 17.8768C20.6811 17.8395 20.7154 17.8079 20.7549 17.7838C20.7943 17.7598 20.8381 17.7437 20.8838 17.7366C20.9294 17.7294 20.9761 17.7314 21.021 17.7423C21.0659 17.7532 21.1082 17.7728 21.1455 17.8C21.1829 17.8273 21.2145 17.8616 21.2385 17.9011C21.2626 17.9405 21.2786 17.9843 21.2858 18.03C21.2929 18.0756 21.291 18.1223 21.2801 18.1672C21.2692 18.2121 21.2496 18.2544 21.2223 18.2917C21.0103 18.5794 20.7798 18.853 20.5323 19.1107C20.4993 19.1451 20.4597 19.1725 20.4158 19.1911C20.372 19.2097 20.3248 19.2192 20.2772 19.219Z" fill="#333333"/>
<path d="M6.44047 11.2629H6.27323C6.18004 11.2629 6.09067 11.2259 6.02478 11.16C5.95889 11.0941 5.92188 11.0048 5.92188 10.9116C5.92188 10.8184 5.95889 10.729 6.02478 10.6632C6.09067 10.5973 6.18004 10.5602 6.27323 10.5602H6.44047C6.53365 10.5602 6.62302 10.5973 6.68891 10.6632C6.7548 10.729 6.79182 10.8184 6.79182 10.9116C6.79182 11.0048 6.7548 11.0941 6.68891 11.16C6.62302 11.2259 6.53365 11.2629 6.44047 11.2629Z" fill="#333333"/>
<path d="M22.8729 14.4174C22.6556 14.419 22.4392 14.3909 22.2295 14.3337C22.1404 14.3066 22.0656 14.2451 22.0218 14.1628C21.9779 14.0806 21.9686 13.9843 21.9957 13.8951C22.0229 13.8059 22.0844 13.7312 22.1666 13.6873C22.2489 13.6435 22.3452 13.6341 22.4344 13.6613C22.6595 13.7198 22.8944 13.7301 23.1237 13.6914C23.353 13.6527 23.5715 13.5659 23.7649 13.4368C24.3074 13.0306 24.5945 12.1568 24.5945 10.9116C24.5945 10.8184 24.6315 10.729 24.6974 10.6632C24.7633 10.5973 24.8527 10.5602 24.9458 10.5602C25.039 10.5602 25.1284 10.5973 25.1943 10.6632C25.2602 10.729 25.2972 10.8184 25.2972 10.9116C25.2972 12.415 24.9198 13.4561 24.1757 14.0063C23.7969 14.2799 23.3401 14.4241 22.8729 14.4174Z" fill="#333333"/>
<path d="M16.1558 8.90501C16.085 8.90496 16.0158 8.88349 15.9574 8.84342C15.8989 8.80335 15.854 8.74655 15.8284 8.68047C15.8028 8.61439 15.7978 8.54213 15.8141 8.47316C15.8303 8.40419 15.867 8.34175 15.9194 8.29401C16.2564 7.98568 16.5256 7.61062 16.7099 7.19266C16.8942 6.7747 16.9896 6.32297 16.9899 5.86618C16.9905 5.62336 16.9629 5.38131 16.9077 5.14485C16.7406 4.41885 16.3332 3.77058 15.7515 3.30515C15.1699 2.83973 14.448 2.58444 13.703 2.58069C12.957 2.57685 12.2321 2.82886 11.6494 3.2947C11.0666 3.76053 10.6611 4.41205 10.5005 5.14063C10.445 5.37847 10.4171 5.62194 10.4176 5.86618C10.4179 6.32297 10.5133 6.7747 10.6976 7.19266C10.8819 7.61062 11.1511 7.98568 11.4881 8.29401C11.5231 8.32485 11.5516 8.36234 11.572 8.40429C11.5923 8.44625 11.6041 8.49184 11.6066 8.53841C11.6092 8.58497 11.6024 8.63157 11.5868 8.6755C11.5711 8.71943 11.5469 8.7598 11.5155 8.79427C11.4841 8.82873 11.4461 8.8566 11.4038 8.87625C11.3615 8.89589 11.3158 8.90692 11.2692 8.9087C11.2226 8.91047 11.1761 8.90295 11.1324 8.88657C11.0888 8.87019 11.0488 8.84529 11.0149 8.81331C10.6056 8.43914 10.2786 7.98389 10.0548 7.47651C9.83099 6.96913 9.71522 6.42072 9.71486 5.86618C9.71408 5.56892 9.74804 5.2726 9.81605 4.98323C10.0113 4.09923 10.5036 3.30884 11.2109 2.74379C11.9182 2.17873 12.7978 1.87316 13.703 1.87799C14.6068 1.88236 15.4826 2.19177 16.1885 2.75607C16.8945 3.32037 17.3892 4.10651 17.5925 4.98709C17.6598 5.27502 17.6934 5.56979 17.6926 5.86547C17.6923 6.42002 17.5765 6.96843 17.3527 7.47581C17.1289 7.98319 16.8019 8.43844 16.3926 8.81261C16.3281 8.87209 16.2436 8.90509 16.1558 8.90501Z" fill="#333333"/>
<path d="M13.7024 6.09034C13.3923 6.104 13.0894 5.99445 12.8597 5.7856C12.63 5.57674 12.4923 5.28552 12.4766 4.9755C12.4771 4.86408 12.4948 4.7534 12.5289 4.64734C12.6244 4.41554 12.7864 4.21716 12.9943 4.07715C13.2023 3.93715 13.447 3.86177 13.6977 3.86049C13.9485 3.85921 14.1939 3.9321 14.4033 4.06998C14.6127 4.20786 14.7767 4.40458 14.8745 4.63539C14.8911 4.67906 14.8987 4.72558 14.8971 4.77224C14.8954 4.8189 14.8845 4.86476 14.8649 4.90714C14.8453 4.94953 14.8175 4.98758 14.783 5.01909C14.7485 5.05059 14.7081 5.07491 14.6642 5.09062C14.6202 5.10634 14.5736 5.11313 14.5269 5.11061C14.4803 5.10808 14.4347 5.09629 14.3927 5.07592C14.3506 5.05555 14.3131 5.02702 14.2823 4.99198C14.2514 4.95694 14.2278 4.9161 14.2129 4.87185C14.1678 4.77574 14.0953 4.69515 14.0044 4.64024C13.9136 4.58534 13.8085 4.55859 13.7024 4.56336C13.5966 4.55777 13.4915 4.58422 13.401 4.63925C13.3104 4.69429 13.2385 4.77534 13.1947 4.87185C13.1846 4.90547 13.1794 4.94038 13.1793 4.9755C13.1958 5.09873 13.2596 5.21068 13.3573 5.28761C13.455 5.36455 13.5788 5.40043 13.7024 5.38763C13.7956 5.38763 13.885 5.42465 13.9509 5.49054C14.0168 5.55643 14.0538 5.6458 14.0538 5.73898C14.0538 5.83217 14.0168 5.92154 13.9509 5.98743C13.885 6.05332 13.7956 6.09034 13.7024 6.09034Z" fill="#333333"/>
<path d="M13.7041 7.61728C13.453 7.62412 13.206 7.55331 12.9967 7.41453C12.7873 7.27575 12.6259 7.07576 12.5345 6.84185C12.5046 6.75434 12.5104 6.65858 12.5507 6.57534C12.591 6.4921 12.6625 6.4281 12.7496 6.39721C12.8368 6.36633 12.9326 6.37105 13.0163 6.41035C13.1 6.44964 13.1648 6.52036 13.1967 6.60715C13.2454 6.70022 13.3186 6.77819 13.4084 6.83259C13.4982 6.887 13.6012 6.91577 13.7062 6.91577C13.8112 6.91577 13.9142 6.887 14.004 6.83259C14.0938 6.77819 14.167 6.70022 14.2157 6.60715C14.2261 6.57297 14.2314 6.53746 14.2315 6.50174C14.213 6.37867 14.148 6.26739 14.0499 6.19084C13.9517 6.11429 13.828 6.07831 13.7041 6.09031C13.6109 6.09031 13.5215 6.05329 13.4557 5.9874C13.3898 5.92151 13.3527 5.83214 13.3527 5.73896C13.3527 5.64577 13.3898 5.55641 13.4557 5.49051C13.5215 5.42462 13.6109 5.38761 13.7041 5.38761C14.0148 5.37326 14.3185 5.48247 14.5489 5.69136C14.7794 5.90025 14.9177 6.19185 14.9338 6.50245C14.9333 6.61387 14.9156 6.72454 14.8815 6.83061C14.7908 7.06747 14.6288 7.27036 14.418 7.41127C14.2071 7.55217 13.9576 7.62416 13.7041 7.61728V7.61728Z" fill="#333333"/>
<path d="M13.7029 7.93244C13.6097 7.93244 13.5204 7.89542 13.4545 7.82953C13.3886 7.76364 13.3516 7.67427 13.3516 7.58109V7.26804C13.3516 7.17485 13.3886 7.08549 13.4545 7.01959C13.5204 6.9537 13.6097 6.91669 13.7029 6.91669C13.7961 6.91669 13.8855 6.9537 13.9514 7.01959C14.0173 7.08549 14.0543 7.17485 14.0543 7.26804V7.58109C14.0543 7.67427 14.0173 7.76364 13.9514 7.82953C13.8855 7.89542 13.7961 7.93244 13.7029 7.93244V7.93244Z" fill="#333333"/>
<path d="M13.7029 4.56405C13.6097 4.56405 13.5204 4.52703 13.4545 4.46114C13.3886 4.39525 13.3516 4.30588 13.3516 4.2127V3.9C13.3516 3.80681 13.3886 3.71744 13.4545 3.65155C13.5204 3.58566 13.6097 3.54865 13.7029 3.54865C13.7961 3.54865 13.8855 3.58566 13.9514 3.65155C14.0173 3.71744 14.0543 3.80681 14.0543 3.9V4.21305C14.0542 4.30617 14.0171 4.39545 13.9512 4.46127C13.8854 4.52708 13.796 4.56405 13.7029 4.56405V4.56405Z" fill="#333333"/>
<path d="M17.118 8.90503H10.2849C10.1918 8.90503 10.1024 8.86801 10.0365 8.80212C9.97061 8.73623 9.93359 8.64686 9.93359 8.55368C9.93359 8.4605 9.97061 8.37113 10.0365 8.30524C10.1024 8.23935 10.1918 8.20233 10.2849 8.20233H17.118C17.2112 8.20233 17.3006 8.23935 17.3665 8.30524C17.4324 8.37113 17.4694 8.4605 17.4694 8.55368C17.4694 8.64686 17.4324 8.73623 17.3665 8.80212C17.3006 8.86801 17.2112 8.90503 17.118 8.90503Z" fill="#333333"/>
</svg>
