<svg width="23" height="26" viewBox="0 0 23 26" fill="none" xmlns="http://www.w3.org/2000/svg">
<path d="M19.655 1.04004H3.09047L2.20703 3.38004L5.51993 13.78L7.50768 8.84004L10.8206 19.24L13.0292 14.82L16.3421 25.22L19.655 24.44V1.04004Z" fill="white"/>
<path fill-rule="evenodd" clip-rule="evenodd" d="M2.51641 1.04026C2.51641 0.666913 2.7735 0.364258 3.09065 0.364258H19.6552C19.9723 0.364258 20.2294 0.666913 20.2294 1.04026V24.4403C20.2294 24.8136 19.9723 25.1163 19.6552 25.1163C19.338 25.1163 19.0809 24.8136 19.0809 24.4403V1.71626H3.09065C2.7735 1.71626 2.51641 1.4136 2.51641 1.04026ZM2.00558 2.7473C2.30253 2.61621 2.63352 2.79333 2.74488 3.1429L6.05778 13.5429C6.16914 13.8925 6.01869 14.2821 5.72174 14.4132C5.42479 14.5443 5.09379 14.3672 4.98243 14.0176L1.66953 3.61762C1.55817 3.26804 1.70863 2.87839 2.00558 2.7473ZM7.30622 8.2073C7.60317 8.07621 7.93417 8.25333 8.04552 8.6029L11.3584 19.0029C11.4698 19.3525 11.3193 19.7421 11.0224 19.8732C10.7254 20.0043 10.3944 19.8272 10.2831 19.4776L6.97018 9.07762C6.85882 8.72804 7.00927 8.33839 7.30622 8.2073ZM12.8277 14.1873C13.1247 14.0562 13.4557 14.2333 13.567 14.5829L16.8799 24.9829C16.9913 25.3325 16.8408 25.7221 16.5439 25.8532C16.2469 25.9843 15.9159 25.8072 15.8046 25.4576L12.4917 15.0576C12.3803 14.708 12.5308 14.3184 12.8277 14.1873Z" fill="#333333"/>
</svg>
