<svg width="28" height="16" viewBox="0 0 28 16" fill="none" xmlns="http://www.w3.org/2000/svg">
<path d="M1.51953 11.9469V9.2249L5.41953 3.32715H9.57953H14.2595H18.9395L26.9995 9.2249V11.9469H1.51953Z" fill="white"/>
<path fill-rule="evenodd" clip-rule="evenodd" d="M4.78881 3.18563C4.88922 3.03379 5.14004 2.93359 5.41975 2.93359H18.9397C19.1458 2.93359 19.3407 2.98828 19.4689 3.08212L27.5289 8.97988C27.624 9.04944 27.6757 9.13567 27.6757 9.22453V11.9466C27.6757 12.1637 27.3731 12.3398 26.9997 12.3398H1.51975C1.14641 12.3398 0.84375 12.1637 0.84375 11.9466V9.22453C0.84375 9.17627 0.859024 9.12843 0.888808 9.08339L4.78881 3.18563ZM5.88403 3.71996L2.50403 8.83135H8.66086L8.88619 3.71996H5.88403ZM10.2386 3.71996L10.0133 8.83135H17.1755L13.7955 3.71996H10.2386ZM15.244 3.71996L18.624 8.83135H25.5989L18.6135 3.71996H15.244ZM26.3237 9.61772H2.19575V11.5534H26.3237V9.61772Z" fill="#333333"/>
</svg>
