<svg width="20" height="26" viewBox="0 0 20 26" fill="none" xmlns="http://www.w3.org/2000/svg">
<path d="M10.3367 24.4401H3.51172V1.56006H10.3367L16.3817 8.84006V20.8001L10.3367 24.4401Z" fill="white"/>
<path fill-rule="evenodd" clip-rule="evenodd" d="M3.00391 1.55979C3.00391 1.18644 3.2309 0.883789 3.51091 0.883789H10.3359C10.4615 0.883789 10.5826 0.945912 10.6757 1.05813L16.7207 8.33813C16.8272 8.4663 16.8879 8.64857 16.8879 8.83979V20.7998C16.8879 21.0655 16.7712 21.3065 16.5896 21.4159L10.5446 25.0559C10.479 25.0954 10.4079 25.1158 10.3359 25.1158H3.51091C3.2309 25.1158 3.00391 24.8131 3.00391 24.4398V1.55979ZM4.01791 2.23579V23.7638H9.82891V2.23579H4.01791ZM10.8429 3.08129L15.8739 9.14013V20.3633L10.8429 23.3928V3.08129Z" fill="#333333"/>
</svg>
