<svg width="19" height="19" viewBox="0 0 19 19" fill="none" xmlns="http://www.w3.org/2000/svg">
<g opacity="0.2">
<path d="M11.035 9.49987L16.2448 4.28982C16.3881 4.1464 16.4672 3.95506 16.4674 3.75103C16.4674 3.54689 16.3884 3.35532 16.2448 3.21213L15.7883 2.7557C15.6448 2.61194 15.4534 2.5332 15.2492 2.5332C15.0452 2.5332 14.8539 2.61194 14.7104 2.7557L9.50055 7.9654L4.2905 2.7557C4.1472 2.61194 3.95574 2.5332 3.7516 2.5332C3.54768 2.5332 3.35623 2.61194 3.21292 2.7557L2.75615 3.21213C2.45889 3.50939 2.45889 3.9929 2.75615 4.28982L7.96608 9.49987L2.75615 14.7097C2.61273 14.8533 2.53377 15.0447 2.53377 15.2487C2.53377 15.4527 2.61273 15.6441 2.75615 15.7876L3.21281 16.244C3.35612 16.3877 3.54768 16.4665 3.75149 16.4665C3.95563 16.4665 4.14708 16.3877 4.29039 16.244L9.50043 11.0342L14.7103 16.244C14.8538 16.3877 15.0451 16.4665 15.249 16.4665H15.2493C15.4533 16.4665 15.6446 16.3877 15.7882 16.244L16.2447 15.7876C16.388 15.6442 16.4671 15.4527 16.4671 15.2487C16.4671 15.0447 16.388 14.8533 16.2447 14.7098L11.035 9.49987Z" fill="#333333"/>
</g>
</svg>
