<svg width="40" height="40" viewBox="0 0 40 40" fill="none" xmlns="http://www.w3.org/2000/svg">
<path d="M33.0003 39.3332H6.66699L5.66699 38.6665V4.6665L6.66699 3.6665H9.33366L15.0003 3.33317L15.3337 1.99984H18.0003L19.3337 0.666504H20.3337L21.3337 1.99984H24.667L25.0003 3.6665H33.3337L34.3337 4.6665V38.6665L33.0003 39.3332Z" fill="white"/>
<path d="M33.1765 2.99031H25.5907V2.86406C25.5907 2.11023 24.9774 1.49688 24.2236 1.49688H21.9464C21.6832 0.631562 20.8782 0 19.928 0C18.9779 0 18.1728 0.631562 17.9096 1.49688H15.7762C15.0224 1.49688 14.409 2.11023 14.409 2.86406V2.99039H6.82324C5.85402 2.99039 5.06543 3.77891 5.06543 4.7482V38.2422C5.06543 39.2115 5.85402 40 6.82324 40H8.82801C9.15168 40 9.41395 39.7377 9.41395 39.4141C9.41395 39.0905 9.15168 38.8281 8.82801 38.8281H6.82324C6.50012 38.8281 6.2373 38.5652 6.2373 38.2422V4.74813C6.2373 4.42508 6.50012 4.16219 6.82324 4.16219H14.409V5.83523H9.23363C8.47981 5.83523 7.86645 6.44859 7.86645 7.20242V25.8544C7.86645 26.178 8.12871 26.4403 8.45238 26.4403C8.77606 26.4403 9.03832 26.178 9.03832 25.8544V7.20242C9.03832 7.09477 9.1259 7.00711 9.23363 7.00711H26.6289C26.9525 7.00711 27.2148 6.74477 27.2148 6.42117C27.2148 6.09758 26.9525 5.83523 26.6289 5.83523H25.5908V4.16219H33.1766C33.4997 4.16219 33.7625 4.42508 33.7625 4.74813V38.2422C33.7625 38.5652 33.4997 38.8281 33.1766 38.8281H11.5607C11.2371 38.8281 10.9748 39.0905 10.9748 39.4141C10.9748 39.7377 11.2371 40 11.5607 40H33.1766C34.1458 40 34.9344 39.2115 34.9344 38.2422V4.74813C34.9343 3.77891 34.1457 2.99031 33.1765 2.99031ZM19.928 1.17188C20.445 1.17188 20.8655 1.59242 20.8655 2.10938C20.8655 2.62633 20.445 3.04688 19.928 3.04688C19.4111 3.04688 18.9905 2.62633 18.9905 2.10938C18.9905 1.59242 19.4111 1.17188 19.928 1.17188ZM15.5809 5.83523V2.86406C15.5809 2.75641 15.6685 2.66875 15.7762 2.66875H17.8946C18.1403 3.56117 18.9586 4.21875 19.928 4.21875C20.8975 4.21875 21.7157 3.56117 21.9615 2.66875H24.2236C24.3313 2.66875 24.4189 2.75641 24.4189 2.86406V5.83531H15.5809V5.83523Z" fill="#333333"/>
<path d="M22.4186 9.84961C22.7423 9.84961 23.0045 9.58727 23.0045 9.26367C23.0045 8.94008 22.7423 8.67773 22.4186 8.67773H11.9707C11.4322 8.67773 10.9941 9.11578 10.9941 9.6543V11.8114C10.9941 12.3499 11.4322 12.788 11.9707 12.788H27.8858C28.4243 12.788 28.8623 12.3499 28.8623 11.8114V9.6543C28.8623 9.11578 28.4243 8.67773 27.8858 8.67773H25.158C24.8344 8.67773 24.5721 8.94008 24.5721 9.26367C24.5721 9.58727 24.8344 9.84961 25.158 9.84961H27.6905V11.6161H12.166V9.84961H22.4186Z" fill="#333333"/>
<path d="M11.5801 17.5459H12.5583C12.882 17.5459 13.1442 17.2836 13.1442 16.96C13.1442 16.6364 12.882 16.374 12.5583 16.374H11.5801C11.2564 16.374 10.9941 16.6364 10.9941 16.96C10.9941 17.2836 11.2564 17.5459 11.5801 17.5459Z" fill="#333333"/>
<path d="M28.2762 16.374H16.1484C15.8248 16.374 15.5625 16.6364 15.5625 16.96C15.5625 17.2836 15.8248 17.5459 16.1484 17.5459H28.2761C28.5998 17.5459 28.862 17.2836 28.862 16.96C28.862 16.6364 28.5998 16.374 28.2762 16.374Z" fill="#333333"/>
<path d="M11.5801 20.29H12.5583C12.882 20.29 13.1442 20.0277 13.1442 19.7041C13.1442 19.3805 12.882 19.1182 12.5583 19.1182H11.5801C11.2564 19.1182 10.9941 19.3805 10.9941 19.7041C10.9941 20.0277 11.2564 20.29 11.5801 20.29Z" fill="#333333"/>
<path d="M16.1484 20.29H19.679C20.0027 20.29 20.2649 20.0277 20.2649 19.7041C20.2649 19.3805 20.0027 19.1182 19.679 19.1182H16.1484C15.8248 19.1182 15.5625 19.3805 15.5625 19.7041C15.5625 20.0277 15.8248 20.29 16.1484 20.29Z" fill="#333333"/>
<path d="M28.2759 19.1182H22.9102C22.5865 19.1182 22.3242 19.3805 22.3242 19.7041C22.3242 20.0277 22.5865 20.29 22.9102 20.29H28.2759C28.5996 20.29 28.8619 20.0277 28.8619 19.7041C28.8619 19.3805 28.5995 19.1182 28.2759 19.1182Z" fill="#333333"/>
<path d="M11.5801 23.0342H12.5583C12.882 23.0342 13.1442 22.7718 13.1442 22.4482C13.1442 22.1246 12.882 21.8623 12.5583 21.8623H11.5801C11.2564 21.8623 10.9941 22.1246 10.9941 22.4482C10.9941 22.7718 11.2564 23.0342 11.5801 23.0342Z" fill="#333333"/>
<path d="M28.8621 22.4482C28.8621 22.1246 28.5998 21.8623 28.2762 21.8623H16.1484C15.8248 21.8623 15.5625 22.1246 15.5625 22.4482C15.5625 22.7718 15.8248 23.0342 16.1484 23.0342H28.2761C28.5998 23.0342 28.8621 22.7719 28.8621 22.4482Z" fill="#333333"/>
<path d="M11.5801 25.813H12.5583C12.882 25.813 13.1442 25.5506 13.1442 25.2271C13.1442 24.9035 12.882 24.6411 12.5583 24.6411H11.5801C11.2564 24.6411 10.9941 24.9035 10.9941 25.2271C10.9941 25.5506 11.2564 25.813 11.5801 25.813Z" fill="#333333"/>
<path d="M27.5655 25.2271C27.5655 24.9035 27.3033 24.6411 26.9796 24.6411H16.1484C15.8248 24.6411 15.5625 24.9035 15.5625 25.2271C15.5625 25.5506 15.8248 25.813 16.1484 25.813H26.9796C27.3032 25.813 27.5655 25.5506 27.5655 25.2271Z" fill="#333333"/>
<path d="M8.45215 28.0064C8.12848 28.0064 7.86621 28.2687 7.86621 28.5923V35.8444C7.86621 36.5982 8.47957 37.2115 9.2334 37.2115H25.0459C25.4064 37.2115 25.7466 37.0725 26.0039 36.8199L31.7239 31.2031C31.9839 30.9476 32.1332 30.5921 32.1332 30.2276V7.20264C32.1332 6.44881 31.5198 5.83545 30.766 5.83545H29.3664C29.0427 5.83545 28.7804 6.09779 28.7804 6.42139C28.7804 6.74498 29.0427 7.00732 29.3664 7.00732H30.766C30.8737 7.00732 30.9613 7.09498 30.9613 7.20264V29.9693H26.1541C25.4003 29.9693 24.7869 30.5826 24.7869 31.3365V36.0396H9.2334C9.12566 36.0396 9.03809 35.9519 9.03809 35.8443V28.5922C9.03809 28.2687 8.77582 28.0064 8.45215 28.0064ZM26.1541 31.1412H30.1143L25.9588 35.2216V31.3365C25.9588 31.2288 26.0464 31.1412 26.1541 31.1412Z" fill="#333333"/>
<path d="M11.042 31.0639C11.042 32.7802 12.4383 34.1766 14.1546 34.1766C15.8711 34.1766 17.2674 32.7802 17.2674 31.0639C17.2674 29.3476 15.8711 27.9512 14.1546 27.9512C12.4383 27.9512 11.042 29.3476 11.042 31.0639ZM16.0954 31.0639C16.0954 32.1341 15.2247 33.0047 14.1546 33.0047C13.0844 33.0047 12.2138 32.1341 12.2138 31.0639C12.2138 29.9937 13.0844 29.123 14.1546 29.123C15.2247 29.123 16.0954 29.9937 16.0954 31.0639Z" fill="#333333"/>
</svg>
