<svg width="14" height="10" viewBox="0 0 14 10" fill="none" xmlns="http://www.w3.org/2000/svg">
<path d="M10.994 0.863237L10.9941 0.863132C11.3198 0.477289 11.8971 0.422189 12.2912 0.739152C12.6919 1.06091 12.7501 1.64479 12.4186 2.03844L12.4183 2.03878L6.43007 9.13654C6.42992 9.13672 6.42976 9.13691 6.42961 9.13709C6.2626 9.33531 6.02074 9.45321 5.76324 9.4656C5.7622 9.46565 5.76115 9.4657 5.76011 9.46575L5.73774 8.96625C5.7309 8.96666 5.72404 8.96666 5.71721 8.96666C5.60385 8.96666 5.49476 8.92324 5.41477 8.84433L10.994 0.863237ZM10.994 0.863237L5.65134 7.19533L2.94674 4.55573C2.94674 4.55572 2.94673 4.55571 2.94672 4.5557C2.58522 4.20287 2.00486 4.20288 1.64338 4.55573C1.27512 4.91518 1.27512 5.50229 1.64338 5.86174L1.98889 5.50777L1.64338 5.86174L5.06361 9.20025C5.06399 9.20063 5.06438 9.20101 5.06477 9.20139L10.994 0.863237Z" fill="url(#paint0_linear)" stroke="url(#paint1_linear)"/>
<defs>
<linearGradient id="paint0_linear" x1="1.86719" y1="8.96665" x2="12.1339" y2="8.96665" gradientUnits="userSpaceOnUse">
<stop stop-color="#FCB222"/>
<stop offset="1" stop-color="#FFDF00"/>
</linearGradient>
<linearGradient id="paint1_linear" x1="1.86719" y1="8.96665" x2="12.1339" y2="8.96665" gradientUnits="userSpaceOnUse">
<stop stop-color="#FCB222"/>
<stop offset="1" stop-color="#FFDF00"/>
</linearGradient>
</defs>
</svg>
