<svg width="41" height="40" viewBox="0 0 41 40" fill="none" xmlns="http://www.w3.org/2000/svg">
<g clip-path="url(#clip0)">
<path d="M6.48122 19L5.80814 38.6667L6.48122 39.3333H35.087L34.7505 19L38.7889 18V11.3333H29.3658L23.3081 11V10.3333L26.0005 9C27.571 7.88889 30.7793 5.66667 31.0485 5.66667C31.3851 5.66667 31.0485 3.33333 31.0485 3C31.0485 2.66667 29.0293 2 29.0293 1.66667C29.0293 1.4 27.4588 1.11111 26.6735 1L23.3081 4.33333L20.6158 9.66667C20.3915 9.33333 19.9428 8.53333 19.9428 8C19.9428 7.46667 17.2505 3.77778 15.9043 2L13.5485 1L11.5293 1.66667L9.8466 4.33333L12.8755 8L16.5774 9.66667L17.587 11H2.7793V18.3333L6.48122 19Z" fill="url(#paint0_linear)"/>
<path d="M38.7252 10.5502H24.8002C25.1898 10.3757 25.591 10.1884 25.9954 9.98939C29.624 8.20408 31.639 6.38783 31.9846 4.59111C32.1496 3.73338 32.0138 2.43885 30.43 1.14292C29.1231 0.0736984 27.7888 -0.247395 26.4639 0.188542C24.64 0.788619 22.9664 2.84635 21.4892 6.30471C21.1456 7.10939 20.8541 7.89306 20.6162 8.58798C20.3782 7.89298 20.0868 7.10939 19.7431 6.30471C18.2659 2.84635 16.5923 0.788619 14.7685 0.188542C13.4435 -0.247551 12.1093 0.0737765 10.8023 1.14299C9.2185 2.43893 9.08267 3.73338 9.24776 4.59119C9.5934 6.38783 11.6084 8.20408 15.2369 9.98947C15.6413 10.1885 16.0426 10.3757 16.4321 10.5502H2.50717C2.06862 10.5502 1.71289 10.9024 1.71289 11.337V18.5446C1.71289 18.9791 2.06854 19.3313 2.50717 19.3313H5.28629V39.2133C5.28629 39.6478 5.64194 40 6.08057 40H16.9778H24.2546H35.1518C35.5905 40 35.9462 39.6478 35.9462 39.2132V19.3312H38.7253C39.1639 19.3312 39.5196 18.9791 39.5196 18.5445V11.3369C39.5194 10.9024 39.1638 10.5502 38.7252 10.5502ZM3.30145 17.7579V12.1236H16.1835V17.7579H3.30145ZM16.1836 38.4265H6.87485V19.3312H16.1835V38.4265H16.1836ZM15.9279 8.57244C12.8665 7.06408 11.0483 5.54549 10.8082 4.29635C10.7623 4.0576 10.6226 3.33096 11.8141 2.35588C12.4501 1.83557 13.0503 1.57784 13.633 1.57784C13.8465 1.57784 14.0575 1.61245 14.2671 1.68135C16.6298 2.45815 18.5357 7.15994 19.4399 10.0827C18.5069 9.73087 17.2235 9.21087 15.9279 8.57244ZM23.4604 38.4265H17.7721V12.1236H23.4604V38.4265ZM21.7917 10.0832C22.6944 7.16111 24.5989 2.46002 26.9647 1.68166C27.1745 1.61268 27.3857 1.57807 27.5993 1.57807C28.1819 1.57807 28.7824 1.83581 29.4182 2.35604C30.6098 3.33096 30.47 4.05768 30.4242 4.2965C30.1841 5.54557 28.3659 7.06424 25.3044 8.57267C24.0085 9.21119 22.7248 9.73134 21.7917 10.0832ZM34.3576 38.4265H25.0489V19.3312H34.3576V38.4265ZM37.9309 17.7579H25.0488V12.1236H37.9309V17.7579Z" fill="#333333"/>
<path d="M31.2458 28.4011C30.2236 28.4011 30.2219 29.9745 31.2458 29.9745C32.2679 29.9745 32.2696 28.4011 31.2458 28.4011Z" fill="#333333"/>
<path d="M31.2455 30.9187C30.8069 30.9187 30.4512 31.2709 30.4512 31.7054V36.5567C30.4512 36.9911 30.8068 37.3434 31.2455 37.3434C31.6841 37.3434 32.0397 36.9912 32.0397 36.5567V31.7054C32.0397 31.2709 31.6841 30.9187 31.2455 30.9187Z" fill="#333333"/>
</g>
<defs>
<linearGradient id="paint0_linear" x1="2.7793" y1="39.3333" x2="38.7889" y2="39.3333" gradientUnits="userSpaceOnUse">
<stop stop-color="#FCB222"/>
<stop offset="1" stop-color="#FFDF00"/>
</linearGradient>
<clipPath id="clip0">
<rect width="40.3846" height="40" fill="white" transform="translate(0.423828)"/>
</clipPath>
</defs>
</svg>
