<svg width="20" height="20" viewBox="0 0 20 20" fill="none" xmlns="http://www.w3.org/2000/svg">
<g opacity="0.2">
<path d="M15.82 8.19554C15.7797 7.76008 15.8105 6.57629 16.9445 4.93017C17.0303 4.80595 17.0148 4.63842 16.9082 4.53192C16.4459 4.06958 16.1596 3.77783 15.9588 3.57367C15.6948 3.30448 15.5743 3.18183 15.3979 3.02189C15.2801 2.91601 15.1019 2.91417 14.9829 3.01795C13.0063 4.73792 10.8108 8.29198 11.1285 12.6462C11.3147 15.203 13.1796 17.0588 15.5627 17.0588C18.0084 17.0588 19.9981 15.0693 19.9981 12.6236C19.9981 10.2643 18.1463 8.32951 15.82 8.19554Z" fill="#333333"/>
<path d="M4.72282 8.19553C4.68223 7.76128 4.71213 6.5784 5.84738 4.93015C5.93285 4.80593 5.91757 4.6384 5.81107 4.5319C5.34963 4.07047 5.0637 3.77903 4.8632 3.57487C4.59832 3.30509 4.47745 3.18209 4.30107 3.02187C4.18326 2.916 4.00504 2.91447 3.88604 3.01762C1.90942 4.73759 -0.286334 8.29106 0.0307287 12.6462C0.21751 15.2027 2.08273 17.0587 4.46585 17.0587C6.91154 17.0587 8.90129 15.0693 8.90129 12.6236C8.90129 10.264 7.04948 8.3289 4.72282 8.19553Z" fill="#333333"/>
</g>
</svg>
