<svg width="14" height="13" viewBox="0 0 14 13" fill="none" xmlns="http://www.w3.org/2000/svg">
<path d="M13.499 5.05469C13.499 4.82031 13.249 4.72656 13.0615 4.69531L9.13965 4.125L7.38184 0.570312C7.31152 0.421875 7.17871 0.25 6.99902 0.25C6.81934 0.25 6.68652 0.421875 6.61621 0.570312L4.8584 4.125L0.936523 4.69531C0.741211 4.72656 0.499023 4.82031 0.499023 5.05469C0.499023 5.19531 0.600586 5.32812 0.694336 5.42969L3.53809 8.19531L2.86621 12.1016C2.8584 12.1563 2.85059 12.2031 2.85059 12.2578C2.85059 12.4609 2.95215 12.6484 3.17871 12.6484C3.28809 12.6484 3.38965 12.6094 3.49121 12.5547L6.99902 10.7109L10.5068 12.5547C10.6006 12.6094 10.71 12.6484 10.8193 12.6484C11.0459 12.6484 11.1396 12.4609 11.1396 12.2578C11.1396 12.2031 11.1396 12.1563 11.1318 12.1016L10.46 8.19531L13.2959 5.42969C13.3975 5.32812 13.499 5.19531 13.499 5.05469Z" fill="url(#paint0_linear)"/>
<defs>
<linearGradient id="paint0_linear" x1="0" y1="15" x2="14" y2="15" gradientUnits="userSpaceOnUse">
<stop stop-color="#FCB222"/>
<stop offset="1" stop-color="#FFDF00"/>
</linearGradient>
</defs>
</svg>
