<svg width="30" height="26" viewBox="0 0 30 26" fill="none" xmlns="http://www.w3.org/2000/svg">
<path d="M4 6L1.5 9.25L0.75 12C0.666667 13 0.5 15.1 0.5 15.5V23L1.25 24.5L2.75 25.25H15.75L20.5 24.75L21.5 22.25H27V24.75L28.75 25.25L29.75 23.5V19L28.75 17.5H21.75V12.5L19.5 7.75L19.75 3.75L14.5 0.75L11.75 3.25H9L4 6Z" fill="url(#paint0_linear)"/>
<path d="M9.05901 5.9883C9.23598 5.94848 9.3775 5.81594 9.42881 5.64195C9.48013 5.46797 9.4332 5.27984 9.30617 5.15035C9.17914 5.02087 8.99194 4.97033 8.81701 5.0183C4.80763 6.01592 1.99499 9.61868 2.00001 13.7503C2.00001 14.0265 2.22386 14.2503 2.50001 14.2503C2.77615 14.2503 3.00001 14.0265 3.00001 13.7503C2.99558 10.0779 5.49537 6.87549 9.05901 5.9883Z" fill="#333333"/>
<path d="M28.5 16.7501H22V13.7501C22.0041 11.5246 21.3279 9.35103 20.062 7.52062L20.3335 4.13812C20.3729 3.65042 20.1719 3.17417 19.795 2.86212C18.3496 1.68565 16.6809 0.814123 14.8895 0.300125C14.3778 0.159085 13.8297 0.301205 13.451 0.673125L11.297 2.76462C11.2 2.76212 11.1 2.75012 11 2.75012C4.92772 2.75701 0.00688858 7.67785 0 13.7501V22.7501C0.00165369 24.4063 1.34383 25.7485 3 25.7501H18.5C20.2383 25.7481 21.7117 24.4706 21.96 22.7501H26.5V24.2501C26.5 25.0785 27.1716 25.7501 28 25.7501H28.5C29.3284 25.7501 30 25.0785 30 24.2501V18.2501C30 17.4217 29.3284 16.7501 28.5 16.7501ZM14.15 1.38712C14.2714 1.26449 14.4492 1.21623 14.616 1.26062C16.2764 1.73789 17.8231 2.5461 19.163 3.63662C19.2858 3.74148 19.3505 3.89922 19.3365 4.06012L19.15 6.38112C19.026 6.24462 18.9095 6.10262 18.7785 5.97162C17.1119 4.30153 14.9488 3.21679 12.6135 2.88012L14.15 1.38712ZM6 24.7501H3C1.89543 24.7501 1 23.8547 1 22.7501V18.2501C1 17.974 1.22386 17.7501 1.5 17.7501H1.8845C2.06719 17.7502 2.23531 17.8499 2.323 18.0101C3.33114 19.8868 4.86592 21.4279 6.7385 22.4436C6.89982 22.5297 7.00042 22.6978 7 22.8806V24.2501C7 24.5263 6.77614 24.7501 6.5 24.7501H6ZM21 22.2501C20.9983 23.6301 19.88 24.7485 18.5 24.7501H7.908C7.96722 24.59 7.99834 24.4208 8 24.2501V22.8806C8.00273 22.3226 7.69207 21.8102 7.196 21.5546C5.5069 20.6222 4.12021 19.2254 3.2 17.5296C2.9368 17.049 2.43246 16.7502 1.8845 16.7501H1.5C1.32928 16.7518 1.16013 16.7829 1 16.8421V13.7501C1 8.22728 5.47715 3.75012 11 3.75012C16.5228 3.75012 21 8.22728 21 13.7501V22.2501ZM22 21.7501V17.7501H23.5V18.7501C23.5 19.0263 23.7239 19.2501 24 19.2501C24.2761 19.2501 24.5 19.0263 24.5 18.7501V17.7501H26.5V21.7501H22ZM29 24.2501C29 24.5263 28.7761 24.7501 28.5 24.7501H28C27.7239 24.7501 27.5 24.5263 27.5 24.2501V17.7501H28.5C28.7761 17.7501 29 17.974 29 18.2501V24.2501Z" fill="#333333"/>
<path d="M11 5.75C11.2761 5.75 11.5 5.52614 11.5 5.25C11.5 4.97386 11.2761 4.75 11 4.75C10.7239 4.75 10.5 4.97386 10.5 5.25C10.5 5.52614 10.7239 5.75 11 5.75Z" fill="#333333"/>
<path d="M16 21.75C16 22.8546 16.8954 23.75 18 23.75C19.1046 23.75 20 22.8546 20 21.75C20 20.6454 19.1046 19.75 18 19.75C16.8954 19.75 16 20.6454 16 21.75ZM19 21.75C19 22.3023 18.5523 22.75 18 22.75C17.4477 22.75 17 22.3023 17 21.75C17 21.1977 17.4477 20.75 18 20.75C18.5523 20.75 19 21.1977 19 21.75Z" fill="#333333"/>
<path d="M11 8.75C7.96243 8.75 5.5 11.2124 5.5 14.25C5.5 17.2876 7.96243 19.75 11 19.75C14.0376 19.75 16.5 17.2876 16.5 14.25C16.4964 11.2139 14.0361 8.75358 11 8.75ZM11 18.75C8.51472 18.75 6.5 16.7353 6.5 14.25C6.5 11.7647 8.51472 9.75 11 9.75C13.4853 9.75 15.5 11.7647 15.5 14.25C15.4972 16.7341 13.4841 18.7472 11 18.75Z" fill="#333333"/>
<defs>
<linearGradient id="paint0_linear" x1="0.5" y1="25.25" x2="29.75" y2="25.25" gradientUnits="userSpaceOnUse">
<stop stop-color="#FCB222"/>
<stop offset="1" stop-color="#FFDF00"/>
</linearGradient>
</defs>
</svg>
