<svg width="60" height="60" viewBox="0 0 60 60" fill="none" xmlns="http://www.w3.org/2000/svg">
<circle cx="30" cy="30" r="24" fill="url(#paint0_linear)"/>
<path d="M30 5C16.2152 5 5 16.2142 5 30C5 43.7858 16.2152 55 30 55C43.7848 55 55 43.7858 55 30C55 16.2142 43.7848 5 30 5ZM30 52.9167C17.3637 52.9167 7.0833 42.6363 7.0833 30C7.0833 17.3637 17.3637 7.0833 30 7.0833C42.6363 7.0833 52.9167 17.3637 52.9167 30C52.9167 42.6363 42.6363 52.9167 30 52.9167Z" fill="#333333"/>
<path d="M30.7365 21.9719C30.3296 21.5649 29.6704 21.5649 29.2636 21.9719L17.8052 33.4302C17.3982 33.8371 17.3982 34.4963 17.8052 34.9031C18.2121 35.3101 18.8713 35.3101 19.2781 34.9031L30 24.1814L40.7219 34.9032C40.9253 35.1066 41.1919 35.2084 41.4584 35.2084C41.7249 35.2084 41.9914 35.1066 42.1949 34.9032C42.6018 34.4963 42.6018 33.8371 42.1949 33.4303L30.7365 21.9719Z" fill="#333333"/>
<defs>
<linearGradient id="paint0_linear" x1="6" y1="54" x2="54" y2="54" gradientUnits="userSpaceOnUse">
<stop stop-color="#FCB222"/>
<stop offset="1" stop-color="#FFDF00"/>
</linearGradient>
</defs>
</svg>
