<svg width="56" height="62" viewBox="0 0 56 62" fill="none" xmlns="http://www.w3.org/2000/svg">
<path d="M54.8872 35.7324C56.6772 20.6649 54.0272 11.1524 49.2472 6.84994L49.2497 6.84744C41.5347 -0.500061 15.4797 -1.58756 6.24971 7.17744C2.10471 11.4649 0.64471 17.7574 0.48471 25.5474C0.32471 33.3399 0.13471 47.9374 13.7372 51.8974H13.7497L13.7372 57.9449C13.7372 57.9449 13.6447 60.3949 15.2097 60.8874C16.9997 61.4674 17.8097 60.3299 23.3772 53.6799C32.6872 54.4874 39.8372 52.6374 40.6497 52.3674C42.5297 51.7374 53.1672 50.3299 54.8872 35.7324ZM24.2947 49.4249C24.2947 49.4249 18.4022 56.7724 16.5697 58.6799C15.9697 59.2999 15.3122 59.2424 15.3222 58.0124C15.3222 57.2049 15.3672 47.9724 15.3672 47.9724C3.83471 44.6674 4.51471 32.2374 4.63971 25.7349C4.76471 19.2299 5.95471 13.9024 9.46471 10.3149C17.5622 2.72244 40.4047 4.41994 46.2247 9.88994C53.3397 16.1974 50.8072 34.0174 50.8222 34.6249C49.3597 46.8099 40.7397 47.5824 39.1547 48.1099C38.4772 48.3349 32.1897 49.9524 24.2947 49.4249Z" fill="black"/>
<path d="M27.5547 11.7425C26.5922 11.7425 26.5922 13.2425 27.5547 13.255C35.0222 13.3125 41.1722 18.5175 41.2397 28.065C41.2397 29.0725 42.7147 29.06 42.7022 28.0525H42.6997C42.6197 17.765 35.9047 11.8 27.5547 11.7425Z" fill="black"/>
<path d="M37.3772 26.4824C37.3547 27.4774 38.8272 27.5249 38.8397 26.5174C38.9622 20.8449 35.4647 16.1724 28.8922 15.6799C27.9297 15.6099 27.8297 17.1224 28.7897 17.1924C34.4897 17.6249 37.4922 21.5149 37.3772 26.4824Z" fill="black"/>
<path d="M35.8022 32.935C34.5672 32.22 33.3097 32.665 32.7897 33.3675L31.7022 34.775C31.1497 35.49 30.1172 35.395 30.1172 35.395C22.5822 33.4025 20.5672 25.5175 20.5672 25.5175C20.5672 25.5175 20.4747 24.45 21.1647 23.8775L22.5247 22.7525C23.2047 22.2125 23.6347 20.9125 22.9422 19.635C21.0922 16.2925 19.8497 15.14 19.2172 14.255C18.5522 13.4225 17.5522 13.235 16.5122 13.7975H16.4897C14.3272 15.0625 11.9597 17.43 12.7172 19.8675C14.0097 22.4375 16.3847 30.63 23.9547 36.82C27.5122 39.7475 33.1422 42.7475 35.5322 43.44L35.5547 43.475C37.9097 44.26 40.1997 41.8 41.4222 39.5725V39.555C41.9647 38.4775 41.7847 37.4575 40.9922 36.79C39.5872 35.42 37.4672 33.9075 35.8022 32.935Z" fill="black"/>
<path d="M29.9222 21.2599C32.3247 21.3999 33.4897 22.6549 33.6147 25.2324C33.6597 26.2399 35.1222 26.1699 35.0772 25.1624C34.9172 21.7974 33.1622 19.9224 30.0022 19.7474C29.0397 19.6899 28.9497 21.2024 29.9222 21.2599Z" fill="black"/>
</svg>
