<svg width="40" height="40" viewBox="0 0 40 40" fill="none" xmlns="http://www.w3.org/2000/svg">
<path d="M39.3346 0.666748H0.667969V3.33341H2.66797V36.6667C2.66797 36.9334 1.33464 36.7779 0.667969 36.6667L1.0013 39.3334H39.3346V36.6667H37.3346V3.66675L39.3346 3.33341V0.666748Z" fill="url(#paint0_linear)"/>
<path d="M39.3333 4C39.7015 4 40 3.7015 40 3.33333V0.666667C40 0.2985 39.7015 0 39.3333 0H0.666667C0.2985 0 0 0.2985 0 0.666667V3.33333C0 3.7015 0.2985 4 0.666667 4H2V36H0.666667C0.2985 36 0 36.2985 0 36.6667V39.3333C0 39.7015 0.2985 40 0.666667 40H39.3333C39.7015 40 40 39.7015 40 39.3333V36.6667C40 36.2985 39.7015 36 39.3333 36H38V4H39.3333ZM38.6667 37.3333V38.6667H1.33333V37.3333H38.6667ZM3.33333 36V4H36.6667V36H3.33333ZM1.33333 2.66667V1.33333H38.6667V2.66667H1.33333Z" fill="#333333"/>
<path d="M18.668 5.33325H5.33464C4.96647 5.33325 4.66797 5.63175 4.66797 5.99992V33.9999C4.66797 34.3681 4.96647 34.6666 5.33464 34.6666H18.668C19.0361 34.6666 19.3346 34.3681 19.3346 33.9999V5.99992C19.3346 5.63175 19.0361 5.33325 18.668 5.33325ZM11.3346 33.3333H6.0013V25.3333H11.3346V33.3333ZM11.3346 23.9999H6.0013V15.9999H11.3346V23.9999ZM11.3346 14.6666H6.0013V6.66659H11.3346V14.6666ZM18.0013 33.3333H12.668V25.3333H18.0013V33.3333ZM18.0013 23.9999H12.668V15.9999H18.0013V23.9999ZM18.0013 14.6666H12.668V6.66659H18.0013V14.6666Z" fill="#333333"/>
<path d="M34.668 5.33325H21.3346C20.9665 5.33325 20.668 5.63175 20.668 5.99992V33.9999C20.668 34.3681 20.9665 34.6666 21.3346 34.6666H34.668C35.0361 34.6666 35.3346 34.3681 35.3346 33.9999V5.99992C35.3346 5.63175 35.0361 5.33325 34.668 5.33325ZM27.3346 33.3333H22.0013V25.3333H27.3346V33.3333ZM27.3346 23.9999H22.0013V15.9999H27.3346V23.9999ZM27.3346 14.6666H22.0013V6.66659H27.3346V14.6666ZM34.0013 33.3333H28.668V25.3333H34.0013V33.3333ZM34.0013 23.9999H28.668V15.9999H34.0013V23.9999ZM34.0013 14.6666H28.668V6.66659H34.0013V14.6666Z" fill="#333333"/>
<defs>
<linearGradient id="paint0_linear" x1="0.667969" y1="39.3334" x2="39.3346" y2="39.3334" gradientUnits="userSpaceOnUse">
<stop stop-color="#FCB222"/>
<stop offset="1" stop-color="#FFDF00"/>
</linearGradient>
</defs>
</svg>
