<svg width="40" height="40" viewBox="0 0 40 40" fill="none" xmlns="http://www.w3.org/2000/svg">
<path d="M37.9997 38H35.333L19.333 32.6667V7.66667L35.333 2H37.9997V38Z" fill="white"/>
<path d="M38.1061 38.7626H35.6065C35.2611 38.7626 34.9814 38.4829 34.9814 38.1377V1.89389C34.9814 1.54874 35.2611 1.26904 35.6065 1.26904H38.1061C38.451 1.26904 38.7307 1.54874 38.7307 1.89389V38.1377C38.7307 38.4829 38.451 38.7626 38.1061 38.7626ZM36.2314 37.5129H37.481V2.51874H36.2314V37.5129Z" fill="#333333"/>
<path d="M35.6066 38.7627C35.537 38.7625 35.4679 38.751 35.402 38.7284L19.1548 33.1043C18.9031 33.0173 18.7344 32.7802 18.7344 32.5138V7.51784C18.7344 7.25165 18.9031 7.01476 19.1548 6.92756L35.402 1.30348C35.5931 1.23733 35.8044 1.26754 35.9689 1.38496C36.1335 1.50215 36.2315 1.69189 36.2315 1.89399V38.1379C36.2315 38.483 35.9515 38.7627 35.6066 38.7627ZM19.9841 32.0688L34.9815 37.2628V2.76878L19.9841 7.96302V32.0688Z" fill="#333333"/>
<path d="M33.1064 35.2065C33.038 35.2065 32.97 35.1951 32.9052 35.1729L21.6571 31.3487C21.4039 31.2622 21.2334 31.0246 21.2334 30.7568V9.27536C21.2339 9.00802 21.4039 8.77044 21.6571 8.68438L32.9052 4.85977C33.0959 4.79522 33.306 4.82612 33.4701 4.94308C33.6335 5.06027 33.7312 5.2491 33.7315 5.45051V34.5817C33.7315 34.9268 33.4518 35.2065 33.1064 35.2065ZM22.4833 30.3101L32.4818 33.7089V6.32347L22.4833 9.72213V30.3101Z" fill="#333333"/>
<path d="M28.7327 23.1405C28.6531 23.1407 28.5743 23.1256 28.5006 23.0961C28.3468 23.0348 28.2235 22.9146 28.158 22.7622C28.0928 22.6099 28.0905 22.4376 28.152 22.2838L29.4017 19.1593C29.4967 18.9218 29.7268 18.7661 29.9824 18.7661H31.2321C31.577 18.7661 31.857 19.046 31.857 19.3912C31.857 19.7361 31.577 20.016 31.2321 20.016H30.4054L29.3129 22.7475C29.2184 22.9849 28.9884 23.1405 28.7327 23.1405Z" fill="#333333"/>
<path d="M8.73543 16.2665C8.39027 16.2665 8.11035 15.9868 8.11035 15.6414V1.89389C8.11035 1.54874 8.39027 1.26904 8.73543 1.26904C9.08035 1.26904 9.36027 1.54874 9.36027 1.89389V15.6414C9.36027 15.9868 9.08035 16.2665 8.73543 16.2665Z" fill="#333333"/>
<path d="M8.73594 5.01851C8.57 5.01851 8.41139 4.95259 8.29397 4.8354L6.41943 2.96086C6.18277 2.71573 6.1862 2.32571 6.42698 2.0847C6.668 1.84391 7.05778 1.84048 7.30314 2.07715L8.73594 3.51017L10.1687 2.07715C10.4139 1.84048 10.8037 1.84391 11.0447 2.0847C11.2859 2.32571 11.2893 2.71573 11.0525 2.96086L9.17768 4.8354C9.06072 4.95259 8.90165 5.01851 8.73594 5.01851Z" fill="#333333"/>
<path d="M10.6105 15.6417C10.4448 15.6417 10.2859 15.576 10.1687 15.4586L8.73594 14.0258L7.30314 15.4586C7.05778 15.6955 6.668 15.692 6.42698 15.4513C6.1862 15.21 6.18277 14.8205 6.41943 14.5751L8.29397 12.7006C8.53796 12.4566 8.93369 12.4566 9.17768 12.7006L11.0524 14.5751C11.231 14.7539 11.2845 15.0226 11.1877 15.256C11.0911 15.4895 10.8634 15.6417 10.6105 15.6417Z" fill="#333333"/>
<path d="M15.1799 12.8299C15.0776 12.8299 14.9771 12.8047 14.8867 12.7567L1.98074 5.88311C1.78367 5.77805 1.65756 5.57572 1.64977 5.35256C1.64222 5.12963 1.75392 4.91906 1.94343 4.80095C2.13294 4.68262 2.37098 4.67438 2.56805 4.77944L15.4733 11.6532C15.7272 11.788 15.8562 12.078 15.7864 12.3566C15.7169 12.6351 15.4662 12.8304 15.179 12.8299H15.1799Z" fill="#333333"/>
<path d="M1.8619 7.89307C1.54467 7.89627 1.27505 7.66121 1.23546 7.34673C1.19563 7.03178 1.39819 6.73698 1.70626 6.66122L3.75521 6.13457L3.21231 4.18816C3.14616 3.97118 3.20292 3.73543 3.36039 3.57246C3.51786 3.40904 3.75132 3.34427 3.97036 3.40217C4.1894 3.46054 4.35992 3.63289 4.41577 3.85261L5.13056 6.41472C5.17588 6.57631 5.15368 6.74934 5.06991 6.89468C4.98591 7.04025 4.84721 7.14577 4.68424 7.18765L2.01754 7.87499C1.9665 7.88757 1.91432 7.89353 1.8619 7.89307Z" fill="#333333"/>
<path d="M13.6577 14.1423C13.3775 14.1416 13.1319 13.955 13.0566 13.6854L12.3423 11.1231C12.2972 10.9615 12.3192 10.7885 12.4029 10.6429C12.4867 10.4976 12.6259 10.392 12.7884 10.3502L15.4544 9.66283C15.6707 9.60721 15.9002 9.67084 16.0568 9.83014C16.2131 9.9899 16.2726 10.2206 16.2129 10.4358C16.1532 10.6511 15.9829 10.818 15.7666 10.8738L13.7188 11.4007L14.2612 13.3471C14.3139 13.5355 14.2752 13.7376 14.1571 13.8932C14.0385 14.0489 13.8545 14.1404 13.6588 14.1402L13.6577 14.1423Z" fill="#333333"/>
<path d="M2.27444 12.8299C1.98742 12.8303 1.73703 12.6351 1.66722 12.3565C1.59741 12.078 1.72673 11.788 1.9801 11.6532L14.8856 4.77942C15.0827 4.67436 15.3207 4.6826 15.51 4.80116C15.6993 4.91949 15.8112 5.12983 15.8034 5.35299C15.7956 5.57615 15.6693 5.77803 15.4722 5.88308L2.56695 12.7566C2.47677 12.8047 2.37629 12.8299 2.27444 12.8299Z" fill="#333333"/>
<path d="M3.81443 14.1421C3.75744 14.1421 3.70091 14.1343 3.64597 14.1188C3.31387 14.0258 3.11977 13.6818 3.21224 13.3497L3.75515 11.4031L1.7062 10.8744C1.48991 10.8183 1.32008 10.6517 1.26011 10.4365C1.20037 10.2214 1.25988 9.99042 1.41644 9.83112C1.57299 9.67182 1.80233 9.60819 2.01863 9.66381L4.68578 10.3511C4.84829 10.393 4.98722 10.4985 5.07099 10.6441C5.15522 10.7894 5.17696 10.9625 5.13164 11.1241L4.41685 13.6864C4.34109 13.956 4.09481 14.1423 3.81443 14.1421Z" fill="#333333"/>
<path d="M15.6094 7.89278C15.5584 7.89278 15.5078 7.88683 15.4586 7.8747L12.6827 7.18737C12.5177 7.1464 12.3762 7.03997 12.2913 6.8928C12.2064 6.74517 12.1854 6.56939 12.233 6.40619L12.9766 3.84432C13.0359 3.62619 13.2082 3.45751 13.4273 3.40258C13.6461 3.34764 13.8779 3.41516 14.0329 3.57904C14.1883 3.74292 14.2432 3.97776 14.1762 4.19359L13.6138 6.13062L15.7587 6.66048C16.0667 6.7351 16.2702 7.0283 16.232 7.34324C16.194 7.65795 15.9262 7.89416 15.6094 7.89278Z" fill="#333333"/>
<path d="M13.11 35.0134C12.8574 35.0134 12.6296 34.8612 12.533 34.6275C12.4362 34.394 12.4895 34.1255 12.6683 33.9465L24.7244 21.8907L16.4176 13.5839C16.1807 13.3387 16.1842 12.949 16.4254 12.7077C16.6662 12.4669 17.056 12.4635 17.3013 12.7004L26.0499 21.4487C26.2936 21.6927 26.2936 22.0882 26.0499 22.3324L13.552 34.8303C13.4346 34.9474 13.276 35.0134 13.11 35.0134Z" fill="#333333"/>
<path d="M18.1094 35.0135H13.1102C12.765 35.0135 12.4854 34.7338 12.4854 34.3885V29.3895C12.4854 29.0446 12.765 28.7646 13.1102 28.7646C13.4554 28.7646 13.735 29.0446 13.735 29.3895V33.7638H18.1094C18.4544 33.7638 18.7343 34.0435 18.7343 34.3885C18.7343 34.7338 18.4544 35.0135 18.1094 35.0135Z" fill="#333333"/>
</svg>
