<svg width="21" height="28" viewBox="0 0 21 28" fill="none" xmlns="http://www.w3.org/2000/svg">
<path d="M2.03516 27V1H4.06899V27H2.03516Z" fill="white"/>
<path d="M8.74681 10.36C8.5841 7.864 10.1705 6.2 10.984 5.68H14.4415H17.8991C17.0855 6.2 15.4991 7.864 15.6618 10.36C15.8652 13.48 18.3058 15.04 17.8991 18.16C17.5736 20.656 16.272 23.1867 15.6618 24.14H12.2043H8.74681C9.35696 23.1867 10.6586 20.656 10.984 18.16C11.3908 15.04 8.95019 13.48 8.74681 10.36Z" fill="white"/>
<path fill-rule="evenodd" clip-rule="evenodd" d="M2.0327 0.324219C2.32475 0.324219 2.5615 0.626874 2.5615 1.00022V27.0002C2.5615 27.3736 2.32475 27.6762 2.0327 27.6762C1.74066 27.6762 1.50391 27.3736 1.50391 27.0002V1.00022C1.50391 0.626874 1.74066 0.324219 2.0327 0.324219ZM4.4733 0.324219C4.76535 0.324219 5.0021 0.626874 5.0021 1.00022V27.0002C5.0021 27.3736 4.76535 27.6762 4.4733 27.6762C4.18126 27.6762 3.94451 27.3736 3.94451 27.0002V1.00022C3.94451 0.626874 4.18126 0.324219 4.4733 0.324219ZM11.4545 5.3779C11.5852 5.71183 11.4793 6.11789 11.2181 6.28485C10.8752 6.50402 10.3402 6.98764 9.91576 7.69181C9.49658 8.38729 9.20356 9.26449 9.27133 10.3041C9.35216 11.5441 9.83307 12.4982 10.3811 13.5854C10.4327 13.6877 10.4849 13.7912 10.5374 13.8963C11.1269 15.0759 11.742 16.4394 11.5032 18.2714C11.1559 20.9349 9.7896 23.5746 9.15362 24.5683C8.96869 24.8572 8.63553 24.8998 8.4095 24.6634C8.18347 24.427 8.15016 24.0011 8.33509 23.7122C8.91942 22.7992 10.1564 20.3775 10.46 18.0491C10.6279 16.761 10.2261 15.7845 9.64616 14.6242C9.593 14.5178 9.53808 14.4096 9.48211 14.2993C8.94927 13.2493 8.3214 12.012 8.21739 10.4164C8.12245 8.95995 8.54127 7.75715 9.07799 6.86663C9.60949 5.9848 10.2744 5.37642 10.7451 5.07559C11.0063 4.90862 11.3239 5.04397 11.4545 5.3779ZM14.9121 5.3779C15.0427 5.71183 14.9368 6.11789 14.6756 6.28485C14.3327 6.50402 13.7977 6.98764 13.3733 7.69181C12.9541 8.38729 12.6611 9.26449 12.7288 10.3041C12.8097 11.5441 13.2906 12.4982 13.8386 13.5854C13.8902 13.6877 13.9424 13.7912 13.9949 13.8963C14.5844 15.0759 15.1995 16.4394 14.9607 18.2714C14.6134 20.9349 13.2471 23.5746 12.6111 24.5683C12.4262 24.8572 12.0931 24.8998 11.867 24.6634C11.641 24.427 11.6077 24.0011 11.7926 23.7122C12.3769 22.7992 13.6139 20.3775 13.9175 18.0491C14.0854 16.761 13.6836 15.7845 13.1037 14.6242C13.0505 14.5178 12.9956 14.4096 12.9396 14.2993C12.4068 13.2493 11.7789 12.012 11.6749 10.4164C11.58 8.95995 11.9988 7.75715 12.5355 6.86663C13.067 5.9848 13.732 5.37642 14.2026 5.07559C14.4638 4.90862 14.7815 5.04397 14.9121 5.3779ZM18.3696 5.3779C18.5002 5.71183 18.3943 6.11789 18.1331 6.28485C17.7902 6.50402 17.2552 6.98764 16.8308 7.69181C16.4116 8.38729 16.1186 9.26449 16.1864 10.3041C16.2672 11.5441 16.7481 12.4982 17.2962 13.5854C17.3477 13.6877 17.3999 13.7912 17.4524 13.8963C18.042 15.0759 18.6571 16.4394 18.4182 18.2714C18.071 20.9349 16.7046 23.5746 16.0687 24.5683C15.8837 24.8572 15.5506 24.8998 15.3245 24.6634C15.0985 24.427 15.0652 24.0011 15.2501 23.7122C15.8345 22.7992 17.0714 20.3775 17.375 18.0491C17.5429 16.761 17.1411 15.7845 16.5612 14.6242C16.508 14.5178 16.4531 14.4096 16.3971 14.2993C15.8643 13.2493 15.2364 12.012 15.1324 10.4164C15.0375 8.95995 15.4563 7.75715 15.993 6.86663C16.5245 5.9848 17.1895 5.37642 17.6601 5.07559C17.9213 4.90862 18.239 5.04397 18.3696 5.3779Z" fill="#333333"/>
</svg>
