<svg width="26" height="28" viewBox="0 0 26 28" fill="none" xmlns="http://www.w3.org/2000/svg">
<path d="M22.2928 1V24.4366H20.0984H12.9667H5.835H3.64062V1H12.9667H22.2928Z" fill="white"/>
<path fill-rule="evenodd" clip-rule="evenodd" d="M2.96484 1.00022C2.96484 0.626874 3.2675 0.324219 3.64084 0.324219H22.293C22.6664 0.324219 22.969 0.626874 22.969 1.00022V24.4368C22.969 24.8102 22.6664 25.1128 22.293 25.1128H20.7746V27.0002C20.7746 27.3736 20.472 27.6762 20.0986 27.6762C19.7253 27.6762 19.4226 27.3736 19.4226 27.0002V25.1128H6.51122V27.0002C6.51122 27.3736 6.20856 27.6762 5.83522 27.6762C5.46187 27.6762 5.15922 27.3736 5.15922 27.0002V25.1128H3.64084C3.2675 25.1128 2.96484 24.8102 2.96484 24.4368V1.00022ZM4.31684 1.67622V23.7608H12.2909V1.67622H4.31684ZM13.6429 1.67622V23.7608H21.617V1.67622H13.6429ZM10.9554 12.0425C11.3288 12.0425 11.6314 12.3452 11.6314 12.7185V14.1833C11.6314 14.5567 11.3288 14.8593 10.9554 14.8593C10.5821 14.8593 10.2794 14.5567 10.2794 14.1833V12.7185C10.2794 12.3452 10.5821 12.0425 10.9554 12.0425ZM14.9784 12.0425C15.3518 12.0425 15.6544 12.3452 15.6544 12.7185V14.1833C15.6544 14.5567 15.3518 14.8593 14.9784 14.8593C14.6051 14.8593 14.3024 14.5567 14.3024 14.1833V12.7185C14.3024 12.3452 14.6051 12.0425 14.9784 12.0425Z" fill="#333333"/>
</svg>
