<svg width="20" height="26" viewBox="0 0 20 26" fill="none" xmlns="http://www.w3.org/2000/svg">
<path d="M9.94439 24.1801C9.63837 23.5561 5.48156 8.84006 3.44141 1.56006H9.94439L15.6823 8.84006V20.8001L9.94439 24.1801Z" fill="white"/>
<path fill-rule="evenodd" clip-rule="evenodd" d="M3.03313 1.17619C3.12594 0.993118 3.27904 0.883789 3.4426 0.883789H9.94559C10.0716 0.883789 10.1928 0.948765 10.2849 1.0656L16.0228 8.3456C16.1236 8.47344 16.1808 8.65241 16.1808 8.83979V20.7998C16.1808 21.0692 16.0631 21.3129 15.8812 21.4201L10.1433 24.8001C9.92267 24.93 9.66521 24.8268 9.53182 24.5548C9.4854 24.4601 9.43416 24.3102 9.39128 24.181C9.34085 24.0291 9.27754 23.8291 9.20338 23.5887C9.05481 23.107 8.85813 22.4484 8.62549 21.6567C8.15996 20.0724 7.54721 17.9445 6.8808 15.6104C5.54782 10.9416 3.99818 5.4412 2.97789 1.80044C2.91967 1.59267 2.94032 1.35926 3.03313 1.17619ZM4.16436 2.23579C5.17593 5.84091 6.58359 10.8327 7.80799 15.1212C8.42684 17.2887 8.99846 19.2751 9.4483 20.8115V2.23579H4.16436ZM10.4429 3.11541L15.1862 9.13355V20.356L10.4429 23.1501V3.11541Z" fill="#333333"/>
</svg>
