<svg width="26" height="26" viewBox="0 0 26 26" fill="none" xmlns="http://www.w3.org/2000/svg">
<path d="M24.7674 23.4001H2.92744L24.7674 3.12012V23.4001Z" fill="white"/>
<path d="M10.7274 10.9201C13.8474 9.46412 15.4941 6.15345 15.9274 4.68012C13.0674 7.54012 5.00744 6.24012 3.44744 6.50012C1.88744 6.76012 0.847437 9.36012 2.14744 11.1801C3.44744 13.0001 6.82744 12.7401 10.7274 10.9201Z" fill="white"/>
<path fill-rule="evenodd" clip-rule="evenodd" d="M25.0377 2.50021C25.2841 2.60769 25.4435 2.85099 25.4435 3.11986V23.3999C25.4435 23.7732 25.1408 24.0759 24.7675 24.0759H2.92746C2.64948 24.0759 2.39984 23.9057 2.29823 23.647C2.19663 23.3882 2.26377 23.0936 2.46747 22.9045L24.3075 2.62449C24.5045 2.44154 24.7912 2.39274 25.0377 2.50021ZM4.64891 22.7239H24.0915V4.67007L4.64891 22.7239ZM16.2725 4.09857C16.5382 4.25631 16.6632 4.57415 16.576 4.87061C16.3378 5.68057 15.7841 6.94515 14.8844 8.20022C13.9833 9.45712 12.7086 10.7413 11.0133 11.5324C9.0165 12.4643 7.10646 13.02 5.49182 13.0902C3.88724 13.16 2.43717 12.7485 1.59737 11.5728C0.803763 10.4617 0.734413 9.12747 1.08138 8.048C1.419 6.99764 2.2174 6.01955 3.33632 5.83306C3.59793 5.78946 3.94992 5.78332 4.32344 5.78838C4.70063 5.79348 5.1522 5.81148 5.64505 5.83112L5.6803 5.83252C6.70168 5.87322 7.92408 5.92095 9.18285 5.88908C10.444 5.85715 11.7154 5.74563 12.8322 5.47699C13.9571 5.20637 14.8596 4.79167 15.4495 4.20186C15.668 3.98335 16.0068 3.94083 16.2725 4.09857ZM4.30515 7.14025C3.92812 7.13515 3.68698 7.14527 3.55859 7.16666C3.11751 7.24018 2.61591 7.69209 2.36853 8.46172C2.1305 9.20226 2.19115 10.078 2.69754 10.7869C3.15774 11.4312 4.04767 11.7997 5.43309 11.7395C6.80845 11.6797 8.53841 11.1954 10.4416 10.3073C11.8663 9.6424 12.9749 8.54327 13.7855 7.4125C14.0332 7.06698 14.2506 6.72195 14.4387 6.39042C14.0248 6.55367 13.5905 6.68513 13.1484 6.79149C11.9008 7.0916 10.5234 7.20757 9.21707 7.24065C7.90833 7.27378 6.64448 7.22401 5.62648 7.18345L5.60445 7.18257C5.10064 7.1625 4.6643 7.14511 4.30515 7.14025Z" fill="#333333"/>
</svg>
