<svg width="28" height="18" viewBox="0 0 28 18" fill="none" xmlns="http://www.w3.org/2000/svg">
<path d="M3.62626 14.329H1V9.42664L5.20202 2.77344H18.596L27 9.42664V12.5782H3.62626V14.329Z" fill="white"/>
<path fill-rule="evenodd" clip-rule="evenodd" d="M4.57921 2.59854C4.68476 2.43142 4.93026 2.32275 5.20224 2.32275H18.5962C18.7956 2.32275 18.9848 2.38145 19.1133 2.48313L27.5173 9.13633C27.6199 9.21758 27.6762 9.32039 27.6762 9.42662V12.5781C27.6762 12.827 27.3736 13.0288 27.0002 13.0288H4.30248V14.329C4.30248 14.5779 3.99983 14.7796 3.62648 14.7796H1.00022C0.626874 14.7796 0.324219 14.5779 0.324219 14.329V9.42662C0.324219 9.36655 0.34223 9.30709 0.377193 9.25173L4.57921 2.59854ZM5.65109 3.22409L2.01833 8.97595H25.5472L18.2817 3.22409H5.65109ZM26.3242 9.87729H1.67622V13.8783H2.95048V12.5781C2.95048 12.3292 3.25314 12.1275 3.62648 12.1275H26.3242V9.87729Z" fill="#333333"/>
</svg>
