<svg width="28" height="27" viewBox="0 0 28 27" fill="none" xmlns="http://www.w3.org/2000/svg">
<path d="M1.51953 25.48V1.04004H9.34281H26.4795V4.74307V14.3709V25.48H9.34281H1.51953Z" fill="white"/>
<path fill-rule="evenodd" clip-rule="evenodd" d="M0.84375 1.04026C0.84375 0.666913 1.14641 0.364258 1.51975 0.364258H26.4798C26.8531 0.364258 27.1558 0.666913 27.1558 1.04026V2.52147C27.1558 2.89481 26.8531 3.19747 26.4798 3.19747C26.1064 3.19747 25.8038 2.89481 25.8038 2.52147V1.71626H10.019V13.6952H20.1466C20.52 13.6952 20.8226 13.9978 20.8226 14.3712C20.8226 14.7445 20.52 15.0472 20.1466 15.0472H10.019V18.4445C10.019 18.8178 9.71638 19.1205 9.34303 19.1205C8.96969 19.1205 8.66703 18.8178 8.66703 18.4445V1.71626H2.19575V24.8043H8.66703V22.1475C8.66703 21.7742 8.96969 21.4715 9.34303 21.4715C9.71638 21.4715 10.019 21.7742 10.019 22.1475V24.8043H25.8038V15.0472H23.1269C22.7536 15.0472 22.4509 14.7445 22.4509 14.3712C22.4509 13.9978 22.7536 13.6952 23.1269 13.6952H25.8038V4.74329C25.8038 4.36994 26.1064 4.06729 26.4798 4.06729C26.8531 4.06729 27.1558 4.36994 27.1558 4.74329V25.4803C27.1558 25.8536 26.8531 26.1563 26.4798 26.1563H1.51975C1.14641 26.1563 0.84375 25.8536 0.84375 25.4803V1.04026Z" fill="#333333"/>
</svg>
