<svg width="40" height="40" viewBox="0 0 40 40" fill="none" xmlns="http://www.w3.org/2000/svg">
<g clip-path="url(#clip0)">
<path d="M37.9994 22.1154C38.389 22.7279 38.5175 23.4705 38.3559 24.178C38.1946 24.8855 37.7564 25.499 37.1399 25.8817C35.8425 26.6911 35.1275 28.1754 35.3038 29.6942C35.3893 30.415 35.1825 31.1399 34.73 31.7073C34.2775 32.2746 33.6168 32.6372 32.8954 32.7145C31.3752 32.8806 30.087 33.9076 29.587 35.3526C29.3512 36.0389 28.8505 36.6025 28.1967 36.9173C27.5429 37.232 26.7903 37.2724 26.1067 37.0287C24.6651 36.5184 23.0588 36.8851 21.9812 37.9703C21.4713 38.4863 20.7757 38.7768 20.0498 38.7768C19.3242 38.7768 18.6287 38.4863 18.1185 37.9703C17.0415 36.8844 15.4345 36.5177 13.9929 37.0287C13.3094 37.2724 12.5568 37.232 11.903 36.9173C11.2492 36.6025 10.7485 36.0389 10.513 35.3526C10.013 33.9076 8.72448 32.8806 7.20461 32.7145C6.48278 32.6372 5.82214 32.2746 5.36963 31.7073C4.91712 31.1399 4.71069 30.415 4.79613 29.6942C4.97249 28.1754 4.25784 26.6907 2.96013 25.8817C2.34323 25.499 1.90541 24.8855 1.74376 24.178C1.58244 23.4705 1.71095 22.7279 2.10057 22.1154C2.91843 20.8238 2.91843 19.1762 2.10057 17.8843C1.71095 17.2721 1.58244 16.5295 1.74376 15.8216C1.90541 15.1142 2.34323 14.5007 2.96013 14.1182C4.2575 13.3089 4.97249 11.8246 4.79647 10.3058C4.71103 9.58497 4.91746 8.86007 5.36997 8.29272C5.82248 7.72504 6.48313 7.36242 7.20495 7.28518C8.72482 7.11942 10.0133 6.09205 10.5133 4.64703C10.7488 3.96075 11.2495 3.39751 11.9033 3.08239C12.5571 2.76762 13.3097 2.72763 13.9933 2.97131C15.4349 3.48124 17.0415 3.11486 18.1188 2.02973C18.6291 1.51365 19.3246 1.22314 20.0502 1.22314C20.7761 1.22314 21.4716 1.51365 21.9815 2.02973C23.0591 3.11486 24.6655 3.48124 26.1071 2.97131C26.7906 2.72763 27.5432 2.76762 28.197 3.08239C28.8508 3.39751 29.3515 3.96075 29.5873 4.64703C30.0874 6.09205 31.3755 7.11942 32.8957 7.28518C33.6172 7.36242 34.2778 7.72504 34.7303 8.29272C35.1829 8.86007 35.3896 9.58497 35.3042 10.3058C35.1275 11.8246 35.8425 13.3093 37.1402 14.1182C37.7568 14.5007 38.1949 15.1142 38.3562 15.8216C38.5179 16.5295 38.3894 17.2721 37.9998 17.8843C37.1815 19.1762 37.1815 20.8235 37.9994 22.1154Z" fill="white"/>
<path d="M29.5838 19.3529C29.5844 18.6984 29.2857 18.0798 28.7731 17.6731C29.3138 17.036 29.4351 16.143 29.0841 15.3849C28.7327 14.6265 27.973 14.1416 27.1377 14.1422H22.3717L22.5685 13.6214C22.8785 12.8052 23.0367 11.9395 23.0361 11.0666V10.989C23.0357 10.3253 22.7667 9.68996 22.29 9.22788C21.8135 8.7658 21.1703 8.51631 20.5069 8.53613C19.1641 8.60756 18.1156 9.72311 18.1272 11.0676C18.1272 11.7044 17.2324 13.1675 16.5075 14.1433H11.1324C10.7941 14.1433 10.52 14.4174 10.52 14.7557V27.0148C10.52 27.3531 10.7941 27.6272 11.1324 27.6272H26.1787C26.9524 27.6276 27.6664 27.211 28.0468 26.5373C28.4269 25.8633 28.4149 25.0369 28.0147 24.3746C28.6299 24.0991 29.0796 23.5499 29.2287 22.8923C29.378 22.2347 29.2088 21.5454 28.7727 21.0314C29.285 20.625 29.5838 20.0067 29.5838 19.3529ZM11.7449 15.3685H16.1975V26.4023H11.7449V15.3685ZM27.4388 20.273H27.1373C26.799 20.273 26.5249 20.5471 26.5249 20.8854C26.5249 21.2238 26.799 21.4979 27.1373 21.4979C27.6452 21.4979 28.0571 21.9097 28.0571 22.4179C28.0571 22.9258 27.6452 23.3376 27.1373 23.3376H26.1787C25.8403 23.3376 25.5662 23.6121 25.5662 23.9501C25.5662 24.2885 25.8403 24.5626 26.1787 24.5626C26.6865 24.5626 27.0984 24.9744 27.0984 25.4826C27.0984 25.9905 26.6865 26.4023 26.1787 26.4023H17.4224V14.9632C17.9416 14.2766 19.3521 12.2963 19.3521 11.068C19.336 10.3844 19.86 9.80889 20.5418 9.76036C20.8747 9.75011 21.1977 9.8752 21.4369 10.1069C21.6758 10.3386 21.8108 10.6575 21.8108 10.9904V11.068C21.8115 11.7925 21.6799 12.5113 21.4229 13.1887L20.9123 14.5404C20.8412 14.7287 20.8668 14.9396 20.9813 15.1054C21.0955 15.2708 21.2838 15.3695 21.4851 15.3699H27.1373C27.6452 15.3699 28.0571 15.7817 28.0571 16.2896C28.0571 16.7978 27.6452 17.2097 27.1373 17.2097C26.799 17.2097 26.5249 17.4838 26.5249 17.8221C26.5249 18.1605 26.799 18.4346 27.1373 18.4346H27.4388C27.947 18.4346 28.3588 18.8464 28.3588 19.3546C28.3588 19.8628 27.947 20.2747 27.4388 20.2747V20.273ZM13.5495 22.851C12.6691 22.851 11.9558 23.5646 11.9558 24.4446C11.9558 25.3251 12.6691 26.0383 13.5495 26.0383C14.4295 26.0383 15.1432 25.3251 15.1432 24.4446C15.1421 23.5649 14.4292 22.852 13.5495 22.851ZM13.5495 24.8131C13.3458 24.8131 13.1803 24.648 13.1807 24.4443C13.1807 24.2406 13.3458 24.0752 13.5495 24.0755C13.7535 24.0755 13.9186 24.241 13.9182 24.4446C13.9179 24.6483 13.7528 24.8131 13.5495 24.8131ZM39.0345 18.5419C39.6001 17.6536 39.7864 16.576 39.5519 15.5493C39.3178 14.523 38.6824 13.6327 37.7877 13.0776C36.8936 12.5198 36.4008 11.4969 36.5221 10.4501C36.6462 9.40458 36.3464 8.3526 35.6899 7.52961C35.0333 6.70627 34.0747 6.17994 33.0278 6.06784C31.9803 5.95369 31.0927 5.24656 30.7475 4.25098C30.4054 3.25505 29.6791 2.43753 28.7303 1.98058C27.7816 1.52397 26.6893 1.46552 25.6975 1.81926C24.7039 2.17026 23.5969 1.91769 22.8542 1.17023C22.114 0.421406 21.1047 0 20.0517 0C18.9987 0 17.9894 0.421406 17.2492 1.17023C16.5065 1.91803 15.3991 2.1706 14.4059 1.81926C13.4138 1.46587 12.3222 1.52431 11.3734 1.98092C10.425 2.43787 9.69836 3.25539 9.35625 4.25098C9.01174 5.2469 8.12381 5.95472 7.07627 6.06887C6.02908 6.18097 5.07041 6.7073 4.4142 7.53063C3.75766 8.35396 3.45792 9.4056 3.58164 10.4514C3.70331 11.4979 3.21048 12.5209 2.31674 13.0786C1.42198 13.6337 0.786621 14.5237 0.552506 15.55C0.31805 16.5763 0.504316 17.6536 1.06927 18.5419C1.63285 19.4322 1.63285 20.5676 1.06927 21.4579C0.503974 22.3465 0.317708 23.4241 0.551822 24.4505C0.786279 25.4771 1.42164 26.3675 2.31606 26.9225C3.21048 27.4803 3.70297 28.5032 3.58164 29.5497C3.45792 30.5955 3.75766 31.6472 4.4142 32.4705C5.07041 33.2938 6.02908 33.8202 7.07627 33.9323C8.12347 34.0461 9.0114 34.7536 9.35625 35.7488C9.69836 36.7447 10.425 37.5622 11.3737 38.0192C12.3225 38.4762 13.4145 38.5343 14.4066 38.1809C15.3998 37.8292 16.5072 38.0817 17.2498 38.8299C17.9901 39.5787 18.9994 40.0001 20.0524 40.0001C21.1054 40.0001 22.1146 39.5787 22.8549 38.8299C23.5976 38.0821 24.7046 37.8295 25.6981 38.1809C26.69 38.5343 27.7819 38.4758 28.7303 38.0189C29.6791 37.5622 30.4054 36.7447 30.7475 35.7488C31.0923 34.7532 31.9803 34.0454 33.0278 33.9313C34.0747 33.8191 35.0333 33.2928 35.6899 32.4695C36.3464 31.6462 36.6462 30.5945 36.5221 29.5487C36.4008 28.5022 36.8933 27.4793 37.7873 26.9215C38.6821 26.3664 39.3175 25.4761 39.5519 24.4498C39.7864 23.4231 39.6001 22.3455 39.0345 21.4569C38.4716 20.5669 38.4716 19.4322 39.0345 18.5419ZM38.0013 22.1155C38.3909 22.7279 38.5194 23.4706 38.3578 24.1781C38.1964 24.8855 37.7583 25.499 37.1417 25.8818C35.8444 26.6911 35.1294 28.1754 35.3057 29.6943C35.3912 30.4151 35.1844 31.14 34.7319 31.7073C34.2794 32.2747 33.6187 32.6373 32.8972 32.7145C31.377 32.8806 30.0889 33.9077 29.5889 35.3527C29.3531 36.039 28.8524 36.6026 28.1985 36.9173C27.5447 37.2321 26.7922 37.2724 26.1086 37.0287C24.667 36.5185 23.0607 36.8852 21.9831 37.9703C21.4731 38.4864 20.7776 38.7769 20.0517 38.7769C19.3261 38.7769 18.6306 38.4864 18.1203 37.9703C17.0434 36.8845 15.4364 36.5178 13.9948 37.0287C13.3112 37.2724 12.5587 37.2321 11.9048 36.9173C11.251 36.6026 10.7503 36.039 10.5149 35.3527C10.0148 33.9077 8.72636 32.8806 7.20649 32.7145C6.48467 32.6373 5.82402 32.2747 5.37151 31.7073C4.919 31.14 4.71257 30.4151 4.79801 29.6943C4.97437 28.1754 4.25972 26.6908 2.96201 25.8818C2.34511 25.499 1.9073 24.8855 1.74564 24.1781C1.58432 23.4706 1.71283 22.7279 2.10245 22.1155C2.92031 20.8239 2.92031 19.1762 2.10245 17.8843C1.71283 17.2722 1.58432 16.5295 1.74564 15.8217C1.9073 15.1142 2.34511 14.5008 2.96201 14.1183C4.25938 13.309 4.97437 11.8247 4.79836 10.3058C4.71291 9.58503 4.91934 8.86013 5.37185 8.29279C5.82436 7.7251 6.48501 7.36248 7.20683 7.28524C8.7267 7.11948 10.0152 6.09211 10.5152 4.64709C10.7507 3.96081 11.2514 3.39757 11.9052 3.08245C12.559 2.76768 13.3116 2.72769 13.9951 2.97138C15.4367 3.4813 17.0434 3.11492 18.1207 2.02979C18.6309 1.51371 19.3265 1.22321 20.052 1.22321C20.778 1.22321 21.4735 1.51371 21.9834 2.02979C23.061 3.11492 24.6673 3.4813 26.1089 2.97138C26.7925 2.72769 27.5451 2.76768 28.1989 3.08245C28.8527 3.39757 29.3534 3.96081 29.5892 4.64709C30.0892 6.09211 31.3774 7.11948 32.8976 7.28524C33.6191 7.36248 34.2797 7.7251 34.7322 8.29279C35.1847 8.86013 35.3915 9.58503 35.3061 10.3058C35.1294 11.8247 35.8444 13.3093 37.1421 14.1183C37.7586 14.5008 38.1968 15.1142 38.3581 15.8217C38.5198 16.5295 38.3913 17.2722 38.0016 17.8843C37.1834 19.1762 37.1834 20.8236 38.0013 22.1155ZM20.052 5.10131C11.8235 5.10131 5.15346 11.772 5.15346 20.0002C5.15346 28.2284 11.8242 34.8988 20.0524 34.8988C28.2809 34.8988 34.951 28.2284 34.951 19.9999C34.9417 11.7755 28.2765 5.11054 20.052 5.10131ZM20.052 33.6742C12.5002 33.6739 6.37837 27.5521 6.37837 20.0002C6.37837 12.4484 12.5002 6.32656 20.052 6.32656C27.6039 6.32622 33.726 12.4481 33.726 19.9999C33.7175 27.5483 27.6004 33.6654 20.052 33.6739V33.6742Z" fill="#333333"/>
</g>
<defs>
<clipPath id="clip0">
<rect width="40" height="40" fill="white"/>
</clipPath>
</defs>
</svg>
