<svg width="40" height="40" viewBox="0 0 40 40" fill="none" xmlns="http://www.w3.org/2000/svg">
<g clip-path="url(#clip0)">
<path d="M4.66797 5.6665V34.3332H35.3346V5.6665H4.66797Z" fill="url(#paint0_linear)"/>
<path d="M39.4349 34.9118H0.565153C0.253002 34.9118 3.1844e-06 34.6588 3.1844e-06 34.3466C3.1844e-06 34.0345 0.253002 33.7815 0.565153 33.7815H4.09395V20.5649H1.92943L3.37207 22.0077C3.59285 22.2285 3.59285 22.5863 3.37207 22.8068C3.15128 23.0276 2.79373 23.0276 2.57294 22.8068L0.165592 20.3993C0.0919343 20.3257 0.0429546 20.2369 0.0184648 20.1431C0.0184648 20.1427 0.0184648 20.1422 0.018088 20.1422C-0.0303265 19.9551 0.0184648 19.7483 0.164273 19.6015C0.164462 19.6011 0.165027 19.6009 0.165592 19.6002L2.57294 17.1928C2.79373 16.9721 3.15128 16.9721 3.37207 17.1928C3.59285 17.4134 3.59285 17.7714 3.37207 17.992L1.92943 19.4346H4.09395V5.65304C4.09395 5.34089 4.34695 5.08789 4.6591 5.08789H35.3407C35.6529 5.08789 35.9059 5.34089 35.9059 5.65304V19.4346H38.0706L36.6279 17.992C36.4072 17.7714 36.4072 17.4134 36.6279 17.1928C36.8487 16.9721 37.2063 16.9721 37.4271 17.1928L39.8344 19.6002C39.8348 19.6006 39.8354 19.6008 39.8357 19.6015C39.8361 19.6019 39.8367 19.6021 39.8371 19.6028C39.8372 19.603 39.8376 19.6032 39.8378 19.6036C39.8384 19.6041 39.8389 19.6045 39.8393 19.6051C39.8395 19.6051 39.8395 19.6053 39.8397 19.6055C39.8406 19.6064 39.8414 19.6072 39.8423 19.6081C39.8806 19.6478 39.9118 19.6917 39.9363 19.7385C39.9363 19.7385 39.9363 19.7385 39.9363 19.7386C39.9367 19.7396 39.9373 19.7405 39.9378 19.7415C39.9378 19.7415 39.9378 19.7417 39.938 19.7417C39.9382 19.7422 39.9384 19.7426 39.9386 19.7432C39.9388 19.7432 39.9388 19.7432 39.9388 19.7434C39.9399 19.7454 39.9409 19.7473 39.942 19.7494V19.7496C39.9422 19.75 39.9424 19.7503 39.9426 19.7507C39.9426 19.7507 39.9427 19.7509 39.9427 19.7511C39.9431 19.7516 39.9435 19.752 39.9435 19.7526C39.9439 19.7535 39.9441 19.7539 39.9442 19.7543C39.9444 19.7547 39.9446 19.7549 39.9446 19.7552C39.9448 19.7554 39.945 19.7556 39.945 19.7558C39.9452 19.7562 39.9454 19.7565 39.9456 19.7569C39.9456 19.7573 39.9459 19.7577 39.9463 19.7584C39.9463 19.7588 39.9465 19.7592 39.9469 19.7596C40.0452 19.969 40.0079 20.2266 39.8348 20.3997L37.4274 22.8072C37.207 23.028 36.8491 23.028 36.6283 22.8072C36.4075 22.5866 36.4075 22.2289 36.6283 22.0081L38.071 20.5653H35.9059V33.7819H39.4349C39.747 33.7819 40 34.0349 40 34.347C40 34.6592 39.747 34.9118 39.4349 34.9118ZM20.5651 33.7815H34.7756V20.5649H32.4353C32.1231 20.5649 31.8701 20.3119 31.8701 19.9997C31.8701 19.6876 32.1231 19.4346 32.4353 19.4346H34.7756V6.21819H20.5651V33.7815ZM5.22444 33.7815H19.4349V6.21819H5.22444V19.4346H7.56491C7.87706 19.4346 8.13006 19.6876 8.13006 19.9997C8.13006 20.3119 7.87706 20.5649 7.56491 20.5649H5.22444V33.7815ZM23.777 23.4705H22.2662C21.954 23.4705 21.701 23.2175 21.701 22.9054C21.701 22.5932 21.954 22.3402 22.2662 22.3402H23.777C24.2024 22.3402 24.5484 21.9942 24.5484 21.5688V18.4309C24.5484 18.0055 24.2024 17.6595 23.777 17.6595H22.2662C21.954 17.6595 21.701 17.4065 21.701 17.0943C21.701 16.7822 21.954 16.5292 22.2662 16.5292H23.777C24.8255 16.5292 25.6787 17.3822 25.6787 18.4309V21.5688C25.6787 22.6175 24.8255 23.4705 23.777 23.4705ZM17.7338 23.4705H16.2228C15.1743 23.4705 14.3211 22.6175 14.3211 21.5688V18.4309C14.3211 17.3824 15.1741 16.5292 16.2228 16.5292H17.7338C18.046 16.5292 18.299 16.7822 18.299 17.0943C18.299 17.4065 18.046 17.6595 17.7338 17.6595H16.2228C15.7975 17.6595 15.4514 18.0055 15.4514 18.4309V21.5688C15.4514 21.9942 15.7975 22.3402 16.2228 22.3402H17.7338C18.046 22.3402 18.299 22.5932 18.299 22.9054C18.299 23.2175 18.046 23.4705 17.7338 23.4705Z" fill="#333333"/>
</g>
<defs>
<linearGradient id="paint0_linear" x1="18.7639" y1="-8.91738" x2="18.7639" y2="54.1493" gradientUnits="userSpaceOnUse">
<stop stop-color="#FFDF00"/>
<stop offset="1" stop-color="#FF8E00"/>
</linearGradient>
<clipPath id="clip0">
<rect width="40" height="40" fill="white"/>
</clipPath>
</defs>
</svg>
