<svg width="40" height="40" viewBox="0 0 40 40" fill="none" xmlns="http://www.w3.org/2000/svg">
<g clip-path="url(#clip0)">
<path d="M36.3502 16.1717H38.7501C39.4393 16.1717 40 16.7324 40.0002 17.4216V22.5784C40.0002 23.2677 39.4394 23.8284 38.7503 23.8284H36.3504C36.3114 23.8284 36.2771 23.8537 36.2688 23.8884C35.8601 25.6045 35.1823 27.2397 34.2542 28.7484C34.2336 28.7819 34.2377 28.8236 34.2639 28.8498L35.9655 30.5515C36.2016 30.7877 36.3316 31.1015 36.3316 31.4353C36.3316 31.7692 36.2016 32.0831 35.9655 32.3191L35.0955 33.1891C34.8671 33.4174 34.4403 33.8236 34 34.2639C33.3333 34.9306 33.4076 34.8771 33.1792 35.1054L32.3191 35.9655C32.0831 36.2016 31.7692 36.3316 31.4353 36.3316C31.1015 36.3316 30.7877 36.2016 30.5515 35.9655L28.8498 34.2639C28.8237 34.2376 28.7818 34.2335 28.7485 34.2542C27.2398 35.1822 25.6047 35.8601 23.8885 36.2689C23.8537 36.2773 23.8284 36.3115 23.8284 36.3504V38.7503C23.8284 39.4395 23.2677 40.0002 22.5785 40.0002H17.4217C16.7325 40.0002 16.1718 39.4394 16.1718 38.7503V36.3504C16.1718 36.3115 16.1466 36.2772 16.1119 36.2689C14.3955 35.8601 12.7604 35.1822 11.2517 34.2542C11.2184 34.2334 11.1765 34.2375 11.1504 34.2639L9.44875 35.9655C9.21258 36.2016 8.89875 36.3316 8.56492 36.3316C8.23102 36.3316 7.91711 36.2016 7.68109 35.9655L4.03469 32.3191C3.79859 32.0831 3.66859 31.7692 3.66859 31.4353C3.66859 31.1015 3.79859 30.7876 4.03469 30.5515L5.73633 28.8498C5.76258 28.8236 5.76664 28.7819 5.74602 28.7484C4.81797 27.2397 4.14016 25.6045 3.73141 23.8884C3.72305 23.8536 3.68883 23.8284 3.64984 23.8284H1.24992C0.560703 23.8284 0 23.2676 0 22.5784V17.4216C0 16.7324 0.560703 16.1717 1.24992 16.1718H3.64984C3.68883 16.1718 3.72312 16.1465 3.73141 16.1117C4.14016 14.3956 4.81797 12.7605 5.74602 11.2517C5.76664 11.2183 5.76258 11.1766 5.73633 11.1504L4.03469 9.44875C3.79859 9.21258 3.66859 8.89875 3.66859 8.56492C3.66859 8.23102 3.79859 7.91711 4.03477 7.68109L7.68094 4.03461C7.91695 3.79852 8.23086 3.66852 8.56476 3.66852C8.89859 3.66852 9.21242 3.79852 9.44859 4.03461L11.1502 5.73625C11.1763 5.76258 11.2182 5.76664 11.2516 5.74594C12.7603 4.81789 14.3955 4.14016 16.1116 3.73133C16.1464 3.72305 16.1716 3.68883 16.1716 3.64984V1.24992C16.1716 0.560703 16.7324 0 17.4216 0H22.5784C23.2676 0 23.8283 0.560703 23.8282 1.24992V3.64984C23.8282 3.68875 23.8535 3.72305 23.8883 3.73133C25.6044 4.14008 27.2395 4.81789 28.7483 5.74594C28.7816 5.76656 28.8234 5.7625 28.8496 5.73625L30.5512 4.03461C30.7874 3.79852 31.1012 3.66852 31.4351 3.66852C31.769 3.66852 32.0829 3.79852 32.3189 4.03469L35.9653 7.68102C36.2014 7.91703 36.3314 8.23094 36.3314 8.56484C36.3314 8.89867 36.2014 9.2125 35.9653 9.44867L34.2637 11.1503C34.2374 11.1765 34.2334 11.2182 34.254 11.2516C35.182 12.7604 35.8598 14.3955 36.2686 16.1116C36.277 16.1465 36.3112 16.1717 36.3502 16.1717Z" fill="white"/>
<path d="M38.7501 16.1717H36.3502C36.3112 16.1717 36.277 16.1465 36.2686 16.1116C35.8598 14.3955 35.182 12.7604 34.254 11.2516C34.2334 11.2182 34.2374 11.1765 34.2637 11.1503L35.9653 9.44867C36.2014 9.2125 36.3314 8.89867 36.3314 8.56484C36.3314 8.23094 36.2014 7.91703 35.9653 7.68102L32.3189 4.03469C32.0829 3.79852 31.769 3.66852 31.4351 3.66852C31.1012 3.66852 30.7874 3.79852 30.5513 4.03461L28.8496 5.73625C28.8234 5.7625 28.7816 5.76656 28.7483 5.74594C27.2395 4.81789 25.6044 4.14008 23.8883 3.73133C23.8535 3.72305 23.8282 3.68875 23.8282 3.64984V1.24992C23.8283 0.560703 23.2676 0 22.5784 0H17.4216C16.7324 0 16.1716 0.560703 16.1716 1.24992V3.64984C16.1716 3.68883 16.1464 3.72305 16.1116 3.73133C14.3955 4.14016 12.7603 4.81789 11.2516 5.74594C11.2182 5.76664 11.1763 5.76258 11.1502 5.73625L9.44859 4.03461C9.21242 3.79852 8.89859 3.66852 8.56477 3.66852C8.23086 3.66852 7.91695 3.79852 7.68094 4.03461L4.03477 7.68109C3.79859 7.91711 3.66859 8.23102 3.66859 8.56492C3.66859 8.89875 3.79859 9.21258 4.03469 9.44875L5.73633 11.1504C5.76258 11.1766 5.76664 11.2183 5.74602 11.2517C4.81797 12.7605 4.14016 14.3956 3.73141 16.1117C3.72312 16.1465 3.68883 16.1718 3.64984 16.1718H1.24992C0.560703 16.1717 0 16.7324 0 17.4216V22.5784C0 23.2676 0.560703 23.8284 1.24992 23.8284H3.64984C3.68883 23.8284 3.72305 23.8536 3.73141 23.8884C4.14016 25.6045 4.81797 27.2397 5.74602 28.7484C5.76664 28.7819 5.76258 28.8236 5.73633 28.8498L4.03469 30.5515C3.79859 30.7876 3.66859 31.1015 3.66859 31.4353C3.66859 31.7692 3.79859 32.0831 4.03469 32.3191L7.68109 35.9655C7.91711 36.2016 8.23102 36.3316 8.56492 36.3316C8.89875 36.3316 9.21258 36.2016 9.44875 35.9655L11.1504 34.2639C11.1765 34.2375 11.2184 34.2334 11.2517 34.2542C12.7604 35.1822 14.3955 35.8601 16.1119 36.2689C16.1466 36.2772 16.1718 36.3115 16.1718 36.3504V38.7503C16.1718 39.4395 16.7325 40.0002 17.4217 40.0002H22.5785C23.2677 40.0002 23.8284 39.4395 23.8284 38.7503V36.3504C23.8284 36.3115 23.8537 36.2773 23.8885 36.2689C25.6047 35.8601 27.2398 35.1822 28.7485 34.2542C28.7818 34.2335 28.8237 34.2376 28.8498 34.2639L30.5515 35.9655C30.7877 36.2016 31.1015 36.3316 31.4353 36.3316C31.7692 36.3316 32.0831 36.2016 32.3191 35.9655L33.1792 35.1054C33.4076 34.8771 33.4076 34.5069 33.1793 34.2786C32.9509 34.0503 32.5807 34.0502 32.3525 34.2785L31.4922 35.1387C31.4727 35.1582 31.4505 35.1623 31.4352 35.1623C31.42 35.1623 31.3978 35.1582 31.3783 35.1387L29.6766 33.437C29.2659 33.0263 28.6322 32.9528 28.1358 33.2582C26.733 34.1212 25.2127 34.7514 23.6176 35.1315C23.0533 35.2658 22.6591 35.767 22.6591 36.3504V38.7503C22.6591 38.7948 22.6229 38.8309 22.5784 38.8309H17.4216C17.3772 38.8309 17.341 38.7948 17.341 38.7503V36.3504C17.341 35.767 16.9469 35.2658 16.3827 35.1315C14.7873 34.7514 13.2671 34.1212 11.8643 33.2582C11.3677 32.953 10.7342 33.0263 10.3234 33.437L8.6218 35.1387C8.60234 35.1582 8.58008 35.1623 8.56484 35.1623C8.54961 35.1623 8.52742 35.1582 8.50789 35.1387L4.86141 31.4923C4.84195 31.4728 4.83781 31.4505 4.83781 31.4353C4.83781 31.4201 4.84195 31.3979 4.86148 31.3784L6.56313 29.6767C6.97375 29.266 7.04727 28.6324 6.74195 28.1359C5.87891 26.733 5.24875 25.2127 4.86875 23.6175C4.7343 23.0533 4.23305 22.6591 3.64977 22.6591H1.24992C1.20547 22.6591 1.1693 22.623 1.1693 22.5785V17.4217C1.1693 17.3773 1.20547 17.3411 1.24992 17.3411H3.64984C4.23312 17.3411 4.73438 16.947 4.86883 16.3827C5.24883 14.7875 5.87898 13.2673 6.74203 11.8644C7.04734 11.3678 6.97383 10.7342 6.5632 10.3235L4.86156 8.62187C4.84203 8.60242 4.83789 8.58016 4.83789 8.56492C4.83789 8.54969 4.84203 8.5275 4.86156 8.50797L8.50797 4.86148C8.52742 4.84203 8.54969 4.83789 8.56492 4.83789C8.58016 4.83789 8.60234 4.84203 8.62187 4.86156L10.3235 6.5632C10.7343 6.97375 11.3678 7.04734 11.8644 6.74203C13.2673 5.87898 14.7875 5.24883 16.3827 4.86883C16.947 4.73438 17.3411 4.23312 17.3411 3.64984V1.24992C17.3411 1.20547 17.3773 1.1693 17.4217 1.1693H22.5785C22.623 1.1693 22.6591 1.20547 22.6591 1.24992V3.64984C22.6591 4.23312 23.0532 4.73438 23.6175 4.86883C25.2127 5.24883 26.733 5.87898 28.1359 6.74203C28.6324 7.04727 29.2659 6.97391 29.6767 6.5632L31.3784 4.86156C31.3978 4.84203 31.4201 4.83789 31.4353 4.83789C31.4505 4.83789 31.4727 4.84203 31.4923 4.86156L35.1387 8.50797C35.1582 8.52742 35.1623 8.54969 35.1623 8.56492C35.1623 8.58016 35.1582 8.60234 35.1387 8.62187L33.437 10.3235C33.0264 10.7342 32.9529 11.3678 33.2582 11.8644C34.1213 13.2673 34.7514 14.7875 35.1314 16.3827C35.2659 16.947 35.7671 17.3411 36.3504 17.3411H38.7503C38.7948 17.3411 38.8309 17.3773 38.8309 17.4217V22.5785C38.8309 22.623 38.7948 22.6591 38.7503 22.6591H36.3504C35.7671 22.6591 35.2659 23.0532 35.1314 23.6175C34.7514 25.2127 34.1213 26.733 33.2582 28.1359C32.9529 28.6324 33.0264 29.266 33.437 29.6767L35.1387 31.3784C35.1582 31.3978 35.1623 31.4201 35.1623 31.4353C35.1623 31.4505 35.1582 31.4727 35.1387 31.4923L34.2687 32.3623C34.0404 32.5906 34.0404 32.9608 34.2687 33.1891C34.497 33.4173 34.8671 33.4174 35.0955 33.1891L35.9655 32.3191C36.2016 32.0831 36.3316 31.7692 36.3316 31.4353C36.3316 31.1015 36.2016 30.7877 35.9655 30.5515L34.2639 28.8498C34.2377 28.8236 34.2336 28.7819 34.2542 28.7484C35.1823 27.2397 35.8601 25.6045 36.2688 23.8884C36.2771 23.8537 36.3114 23.8284 36.3504 23.8284H38.7503C39.4395 23.8284 40.0002 23.2677 40.0002 22.5784V17.4216C40 16.7324 39.4393 16.1717 38.7501 16.1717Z" fill="#333333"/>
<path d="M8.26016 17.6588C7.94078 17.6108 7.64359 17.8322 7.59633 18.1516C7.50641 18.7595 7.46094 19.3813 7.46094 20.0001C7.46094 26.9131 13.0851 32.5373 19.9981 32.5373C26.9112 32.5373 32.5353 26.9131 32.5353 20.0001C32.5353 13.087 26.9112 7.46289 19.9981 7.46289C17.4389 7.46289 14.9773 8.22906 12.8795 9.67859C10.8305 11.0943 9.26266 13.0611 8.34461 15.368L8.32094 15.428C8.20242 15.7284 8.34977 16.068 8.65016 16.1865C8.95039 16.3049 9.29008 16.1577 9.40859 15.8573L9.43164 15.7989C10.2635 13.7084 11.6856 11.9248 13.5441 10.6406C15.4457 9.32664 17.6774 8.63219 19.9981 8.63219C26.2664 8.63219 31.366 13.7318 31.366 20.0001C31.366 26.2684 26.2664 31.368 19.9981 31.368C13.7298 31.368 8.63023 26.2684 8.63023 20.0001C8.63023 19.4384 8.67156 18.874 8.75305 18.3225C8.80024 18.0031 8.57961 17.7059 8.26016 17.6588Z" fill="#333333"/>
<path d="M18.3389 26.0694C18.3629 26.0694 18.387 26.0691 18.4109 26.0684C19.0857 26.049 19.735 25.7536 20.1925 25.258L26.7417 18.1644C27.1988 17.6693 27.4358 17.0259 27.409 16.3526C27.3821 15.6793 27.0948 15.0568 26.5996 14.5997C25.5777 13.6561 23.9784 13.7199 23.0348 14.7418L18.2362 19.939L16.8646 18.6132C15.8642 17.6466 14.264 17.674 13.2974 18.6742C12.3307 19.6743 12.358 21.2744 13.3582 22.2412L16.5857 25.3607C17.0586 25.8177 17.6812 26.0694 18.3389 26.0694ZM14.1381 19.4867C14.4032 19.2124 14.7572 19.0745 15.1115 19.0745C15.4503 19.0745 15.7896 19.2007 16.052 19.454L17.8538 21.1954C17.9669 21.3047 18.1203 21.3634 18.2767 21.3595C18.434 21.355 18.5828 21.2873 18.6896 21.1717L23.8939 15.535C24.4003 14.9866 25.2582 14.9526 25.8064 15.4586C26.072 15.7039 26.2262 16.0379 26.2406 16.3992C26.255 16.7604 26.1278 17.1056 25.8825 17.3712L19.3331 24.465C19.0878 24.7308 18.7393 24.8893 18.3771 24.8997C18.011 24.9101 17.6611 24.774 17.3982 24.52L14.1707 21.4005C13.6342 20.8818 13.6196 20.0232 14.1381 19.4867Z" fill="#333333"/>
</g>
<defs>
<clipPath id="clip0">
<rect width="40" height="40" fill="white"/>
</clipPath>
</defs>
</svg>
