<svg width="40" height="40" viewBox="0 0 40 40" fill="none" xmlns="http://www.w3.org/2000/svg">
<path d="M5.66797 39.3332V30.3332V0.666504H17.668V39.3332H5.66797Z" fill="url(#paint0_linear)"/>
<path d="M34.3346 0.666504H22.3346V39.3332H34.3346V0.666504Z" fill="url(#paint1_linear)"/>
<path d="M17.7656 39.9951C17.763 39.9954 17.7604 39.9957 17.7578 39.9961C17.7618 39.9957 17.7658 39.9951 17.7656 39.9951Z" fill="#333333"/>
<path d="M17.7577 39.9961C17.7538 39.9966 17.7498 39.9971 17.75 39.9971C17.7527 39.9969 17.7552 39.9965 17.7577 39.9961Z" fill="#333333"/>
<path d="M18.2806 35.7269V10.0938C18.2806 9.7701 18.0183 9.50775 17.6946 9.50775C17.3709 9.50775 17.1085 9.77002 17.1085 10.0938V16.8938C15.7828 9.93635 15.2948 3.19626 15.1705 1.17203H17.1085V7.74978C17.1085 8.07345 17.3708 8.3358 17.6946 8.3358C18.0182 8.3358 18.2806 8.07353 18.2806 7.74978V0.586017C18.2806 0.262344 18.0183 0 17.6946 0H5.73055C5.40688 0 5.14453 0.262266 5.14453 0.586017V27.9489C5.14453 28.2726 5.4068 28.5349 5.73055 28.5349C6.0543 28.5349 6.31656 28.2726 6.31656 27.9489V9.199C7.48899 13.3864 8.96501 22.4154 7.23141 38.8279H6.31656V30.2929C6.31656 29.9693 6.0543 29.7069 5.73055 29.7069C5.4068 29.7069 5.14453 29.9692 5.14453 30.2929V39.4138C5.14453 39.7375 5.4068 39.9998 5.73055 39.9998H7.75735C7.75782 39.9998 7.75829 39.9999 7.75875 39.9999C7.7593 39.9999 7.75985 39.9998 7.7604 39.9998H10.0609C10.0612 39.9998 17.7666 39.9949 17.7669 39.9949C17.7795 39.9934 17.7921 39.9916 17.8047 39.9891C17.8133 39.9875 17.8217 39.9855 17.8301 39.9834C17.8388 39.9813 17.8476 39.9792 17.8563 39.9767C17.8663 39.9738 17.8763 39.9705 17.8862 39.9672C17.89 39.9659 17.8939 39.9649 17.8978 39.9634C17.9007 39.9623 17.9034 39.9609 17.9064 39.9598C17.9183 39.9552 17.93 39.9501 17.9416 39.9447C17.9482 39.9416 17.9549 39.9384 17.9614 39.9352C17.9713 39.9301 17.981 39.9247 17.9905 39.9191C17.9982 39.9145 18.0059 39.91 18.0134 39.9052C18.0211 39.9002 18.0285 39.8948 18.036 39.8895C18.0444 39.8835 18.0528 39.8774 18.0608 39.8709C18.0671 39.8659 18.073 39.8607 18.079 39.8555C18.0874 39.8482 18.0956 39.8409 18.1035 39.8332C18.1092 39.8277 18.1145 39.822 18.1198 39.8163C18.1272 39.8084 18.1346 39.8006 18.1416 39.7924C18.1472 39.7858 18.1524 39.7789 18.1578 39.7719C18.1638 39.7643 18.1697 39.7566 18.1752 39.7487C18.181 39.7405 18.1863 39.7319 18.1917 39.7234C18.196 39.7163 18.2005 39.7094 18.2046 39.7022C18.2101 39.6924 18.2151 39.6824 18.2201 39.6723C18.2233 39.6656 18.2267 39.6591 18.2296 39.6524C18.2343 39.6419 18.2385 39.6312 18.2426 39.6203C18.2452 39.6134 18.2479 39.6064 18.2503 39.5994C18.2537 39.5891 18.2567 39.5786 18.2595 39.5681C18.2617 39.5598 18.264 39.5516 18.2659 39.5432C18.268 39.5339 18.2697 39.5244 18.2713 39.515C18.2731 39.5048 18.2748 39.4947 18.276 39.4845C18.277 39.4764 18.2777 39.4683 18.2784 39.4602C18.2793 39.4483 18.2799 39.4364 18.2802 39.4244C18.2803 39.4209 18.2807 39.4175 18.2807 39.4139C18.2806 39.4121 18.2806 35.7287 18.2806 35.7269ZM9.55407 38.8278H8.40969C9.16633 31.6004 9.73227 21.4854 8.35594 13.0762C7.61305 8.53697 6.60789 6.35142 6.31641 5.78689V1.17203H6.89328C7.57586 2.07821 8.86969 4.56157 9.77868 8.79525C10.5027 12.1676 10.892 16.1271 10.9355 20.5639C10.9884 25.9779 10.5236 32.1204 9.55407 38.8278ZM13.8436 38.8278C13.3795 36.5981 12.9852 33.229 13.5667 31.8594C13.8618 32.2228 14.4854 33.1944 15.5974 35.7658C16.1056 36.9409 16.5617 38.0941 16.845 38.8278H13.8436ZM17.1085 36.3301C16.941 35.9256 16.7626 35.504 16.5782 35.0822C14.7974 31.0072 14.1042 30.5852 13.5942 30.5095C13.2884 30.464 13.0014 30.5854 12.8067 30.8421C11.5565 32.4909 12.2867 37.0046 12.6487 38.8278H10.7387C11.7092 32.0648 12.1691 25.8696 12.106 20.4039C12.0538 15.8719 11.6436 11.8249 10.8871 8.37548C10.052 4.56813 8.97704 2.3211 8.28883 1.17196H11.4269C11.6392 2.9143 12.3716 8.82939 13.3115 15.3508C14.7988 25.6712 16.0761 32.5577 17.1085 35.8246V36.3301ZM17.1085 30.9437C15.1359 21.4699 13.0379 4.68751 12.6077 1.17203H13.9963C14.1447 3.6193 14.8648 13.65 17.1085 22.2824V30.9437H17.1085Z" fill="#333333"/>
<path d="M17.6934 40.0001C17.7123 40.0001 17.7312 39.9989 17.7502 39.9971L17.6914 40C17.6921 40 17.6927 40.0001 17.6934 40.0001Z" fill="#333333"/>
<path d="M34.2649 0H32.4544C32.453 0 32.4515 0 32.45 0H26.0092C26.0084 0 26.0077 0 26.0068 0H22.3009C21.9772 0 21.7148 0.262266 21.7148 0.586017V7.55556C21.7148 7.55751 21.7148 7.55947 21.7148 7.5615V15.4786C21.7148 15.4798 21.7148 15.4809 21.7148 15.4821V39.4139C21.7148 39.7376 21.9771 39.9999 22.3009 39.9999H34.2649C34.5885 39.9999 34.8509 39.7377 34.8509 39.4139V31.0863C34.8509 30.7626 34.5886 30.5003 34.2649 30.5003C33.9412 30.5003 33.6789 30.7626 33.6789 31.0863V38.8278H31.9535C31.876 32.086 32.0507 22.6211 33.2603 14.6883C33.3999 13.7726 33.5413 12.9582 33.6789 12.2389V28.7424C33.6789 29.0661 33.9412 29.3284 34.2649 29.3284C34.5886 29.3284 34.851 29.0662 34.851 28.7424V7.55236C34.851 7.55134 34.851 7.55025 34.851 7.54923V0.586017C34.8509 0.262266 34.5886 0 34.2649 0ZM26.2093 11.6835C26.4469 11.6835 26.6696 11.5706 26.8209 11.3683C27.022 11.0996 27.4406 10.5404 27.0619 5.36728C26.9387 3.68446 26.7689 2.04743 26.6729 1.17203H27.7745C28.0574 3.27516 29.0027 11.5652 26.9952 15.8564C26.672 16.5475 26.4276 16.6789 26.3587 16.6708C26.3221 16.6665 25.4486 16.5156 24.0932 12.1494C23.4297 10.0119 22.9658 7.86939 22.8869 7.49736V5.89657C23.0263 6.25915 23.1728 6.63306 23.3231 7.00697C24.9991 11.1798 25.5891 11.5959 26.0916 11.6743C26.131 11.6805 26.1703 11.6835 26.2093 11.6835ZM22.8868 1.17203H25.4938C25.5835 1.98118 25.7575 3.6329 25.8852 5.34759C26.0845 8.02533 26.0627 9.36986 26.0003 10.0403C25.2959 8.84345 24.0419 5.83079 22.8869 2.49977V1.17203H22.8868ZM24.9261 38.8279H22.8869V19.8175C23.9311 24.162 25.2652 31.3695 24.9261 38.8279ZM26.0992 38.8278C26.3738 32.6343 25.5136 26.6767 24.7279 22.7161C23.9233 18.66 23.0591 15.908 22.8868 15.376V12.2127H22.8869C22.9148 12.3048 22.9429 12.397 22.9715 12.4892C23.7155 14.8875 24.7573 17.6626 26.2218 17.8348C26.2739 17.841 26.3253 17.844 26.3763 17.844C27.0288 17.8439 27.5935 17.3432 28.0567 16.3529C29.0925 14.1389 29.5413 10.7902 29.3908 6.39978C29.3122 4.10735 29.0881 2.155 28.9579 1.17203H31.7404C31.3856 2.99337 30.4098 8.16556 29.5044 14.4402C28.4909 21.4639 27.3667 31.3085 27.6698 38.8279H26.0992V38.8278ZM33.6788 7.45009C33.4981 7.9383 32.7913 10.0237 32.1159 14.4179C30.8829 22.439 30.7034 32.0087 30.7813 38.8279H28.8425C28.2939 25.5415 32.2701 4.56587 32.9349 1.17203H33.6789V7.45009H33.6788Z" fill="#333333"/>
<defs>
<linearGradient id="paint0_linear" x1="18.8446" y1="-19.0048" x2="18.8446" y2="66.0619" gradientUnits="userSpaceOnUse">
<stop stop-color="#FFDF00"/>
<stop offset="1" stop-color="#FF8E00"/>
</linearGradient>
<linearGradient id="paint1_linear" x1="18.8446" y1="-19.0048" x2="18.8446" y2="66.0619" gradientUnits="userSpaceOnUse">
<stop stop-color="#FFDF00"/>
<stop offset="1" stop-color="#FF8E00"/>
</linearGradient>
</defs>
</svg>
