<svg width="40" height="40" viewBox="0 0 40 40" fill="none" xmlns="http://www.w3.org/2000/svg">
<g clip-path="url(#clip0)">
<path d="M5.33464 10.6665L2.0013 14.9998L1.0013 18.6665C0.890191 19.9998 0.667969 22.7998 0.667969 23.3332V33.3332L1.66797 35.3332L3.66797 36.3332H21.0013L27.3346 35.6665L28.668 32.3332H36.0013V35.6665L38.3346 36.3332L39.668 33.9998V27.9998L38.3346 25.9998H29.0013V19.3332L26.0013 12.9998L26.3346 7.6665L19.3346 3.6665L15.668 6.99984H12.0013L5.33464 10.6665Z" fill="white"/>
<path d="M12.08 10.6506C12.3159 10.5975 12.5046 10.4208 12.5731 10.1888C12.6415 9.95681 12.5789 9.70597 12.4095 9.53332C12.2402 9.36067 11.9906 9.29329 11.7573 9.35725C6.41147 10.6874 2.66129 15.4911 2.66798 20.9999C2.66798 21.3681 2.96645 21.6666 3.33464 21.6666C3.70283 21.6666 4.00131 21.3681 4.00131 20.9999C3.99541 16.1034 7.32846 11.8335 12.08 10.6506Z" fill="#333333"/>
<path d="M38 24.9998H29.3333V20.9998C29.3388 18.0325 28.4372 15.1344 26.7493 12.6938L27.1113 8.18384C27.1638 7.53357 26.8958 6.89857 26.3933 6.48251C24.4661 4.91387 22.2412 3.75184 19.8527 3.06651C19.1704 2.87845 18.4396 3.06795 17.9347 3.56384L15.0627 6.35251C14.9333 6.34917 14.8 6.33317 14.6667 6.33317C6.5703 6.34236 0.00918477 12.9035 0 20.9998V32.9998C0.00220492 35.2081 1.79177 36.9976 4 36.9998H24.6667C26.9844 36.9971 28.9489 35.2938 29.28 32.9998H35.3333V34.9998C35.3333 36.1044 36.2288 36.9998 37.3333 36.9998H38C39.1046 36.9998 40 36.1044 40 34.9998V26.9998C40 25.8953 39.1046 24.9998 38 24.9998ZM18.8667 4.51584C19.0286 4.35233 19.2656 4.28798 19.488 4.34717C21.7018 4.98353 23.7641 6.06114 25.5507 7.51517C25.7145 7.65499 25.8006 7.8653 25.782 8.07984L25.5333 11.1745C25.368 10.9925 25.2127 10.8032 25.038 10.6285C22.8159 8.40171 19.9317 6.9554 16.818 6.50651L18.8667 4.51584ZM8 35.6665H4C2.52724 35.6665 1.33333 34.4726 1.33333 32.9998V26.9998C1.33333 26.6316 1.63181 26.3332 2 26.3332H2.51267C2.75625 26.3332 2.98041 26.4661 3.09733 26.6798C4.44152 29.1821 6.4879 31.2368 8.98467 32.5912C9.19976 32.7059 9.33389 32.9301 9.33333 33.1738V34.9998C9.33333 35.368 9.03486 35.6665 8.66667 35.6665H8ZM28 32.3332C27.9978 34.1732 26.5067 35.6643 24.6667 35.6665H10.544C10.623 35.453 10.6645 35.2275 10.6667 34.9998V33.1738C10.6703 32.4298 10.2561 31.7466 9.59467 31.4058C7.34253 30.1626 5.49362 28.3002 4.26667 26.0392C3.91573 25.3984 3.24328 24.9999 2.51267 24.9998H2C1.77237 25.002 1.54684 25.0435 1.33333 25.1225V20.9998C1.33333 13.636 7.30287 7.66651 14.6667 7.66651C22.0305 7.66651 28 13.636 28 20.9998V32.3332ZM29.3333 31.6665V26.3332H31.3333V27.6665C31.3333 28.0347 31.6318 28.3332 32 28.3332C32.3682 28.3332 32.6667 28.0347 32.6667 27.6665V26.3332H35.3333V31.6665H29.3333ZM38.6667 34.9998C38.6667 35.368 38.3682 35.6665 38 35.6665H37.3333C36.9651 35.6665 36.6667 35.368 36.6667 34.9998V26.3332H38C38.3682 26.3332 38.6667 26.6316 38.6667 26.9998V34.9998Z" fill="#333333"/>
<path d="M14.6667 10.3333C15.0349 10.3333 15.3333 10.0349 15.3333 9.66667C15.3333 9.29848 15.0349 9 14.6667 9C14.2985 9 14 9.29848 14 9.66667C14 10.0349 14.2985 10.3333 14.6667 10.3333Z" fill="#333333"/>
<path d="M21.332 31.6667C21.332 33.1394 22.5259 34.3333 23.9987 34.3333C25.4715 34.3333 26.6654 33.1394 26.6654 31.6667C26.6654 30.1939 25.4715 29 23.9987 29C22.5259 29 21.332 30.1939 21.332 31.6667ZM25.332 31.6667C25.332 32.4031 24.7351 33 23.9987 33C23.2623 33 22.6654 32.4031 22.6654 31.6667C22.6654 30.9303 23.2623 30.3333 23.9987 30.3333C24.7351 30.3333 25.332 30.9303 25.332 31.6667Z" fill="#333333"/>
<path d="M14.6654 14.333C10.6153 14.333 7.33203 17.6163 7.33203 21.6663C7.33203 25.7164 10.6153 28.9997 14.6654 28.9997C18.7155 28.9997 21.9987 25.7164 21.9987 21.6663C21.9939 17.6182 18.7135 14.3378 14.6654 14.333ZM14.6654 27.6663C11.3517 27.6663 8.66536 24.98 8.66536 21.6663C8.66536 18.3526 11.3517 15.6663 14.6654 15.6663C17.9791 15.6663 20.6654 18.3526 20.6654 21.6663C20.6617 24.9785 17.9775 27.6627 14.6654 27.6663Z" fill="#333333"/>
</g>
<defs>
<clipPath id="clip0">
<rect width="40" height="40" fill="white"/>
</clipPath>
</defs>
</svg>
